M48
; DRILL file {KiCad 9.0.5} date 2026-04-20T12:42:27-0500
; FORMAT={-:-/ absolute / metric / decimal}
; #@! TF.CreationDate,2026-04-20T12:42:27-05:00
; #@! TF.GenerationSoftware,Kicad,Pcbnew,9.0.5
; #@! TF.FileFunction,Plated,1,2,PTH
FMAT,2
METRIC
; #@! TA.AperFunction,Plated,PTH,ViaDrill
T1C0.300
; #@! TA.AperFunction,Plated,PTH,ComponentDrill
T2C0.600
; #@! TA.AperFunction,Plated,PTH,ComponentDrill
T3C1.000
; #@! TA.AperFunction,Plated,PTH,ComponentDrill
T4C1.500
; #@! TA.AperFunction,Plated,PTH,ComponentDrill
T5C2.600
%
G90
G05
T1
X43.606Y-66.094
X45.1Y-55.401
X45.239Y-70.261
X45.3Y-65.2
X45.9Y-67.8
X46.2Y-40.3
X46.2Y-73.3
X46.576Y-68.424
X46.824Y-66.976
X47.015Y-74.035
X47.285Y-46.706
X47.4Y-48.0
X47.412Y-61.299
X47.416Y-67.514
X47.9Y-54.0
X47.9Y-55.7
X48.0Y-53.0
X48.7Y-68.1
X48.9Y-73.3
X49.0Y-43.1
X49.1Y-48.4
X49.725Y-54.7
X50.4Y-66.3
X50.425Y-54.8
X50.5Y-63.3
X52.367Y-55.072
X52.888Y-55.593
X53.1Y-62.6
X53.2Y-107.1
X53.275Y-67.4
X53.325Y-65.589
X53.6Y-54.1
X53.825Y-45.2
X53.967Y-55.212
X54.054Y-65.398
X54.125Y-67.4
X54.2Y-46.2
X54.2Y-47.0
X54.2Y-47.8
X54.3Y-69.4
X54.5Y-37.1
X56.0Y-50.5
X56.614Y-60.484
X57.42Y-61.289
X57.7Y-55.5
X57.7Y-74.2
X57.719Y-57.7
X58.6Y-49.1
X58.8Y-70.5
X59.3Y-49.618
X62.5Y-70.4
X62.7Y-64.0
X63.1Y-65.8
X63.8Y-67.2
X68.3Y-62.2
X68.589Y-66.189
X68.6Y-59.5
X69.9Y-59.5
X70.1Y-62.2
X71.4Y-63.1
X72.3Y-60.9
X72.6Y-73.1
X74.0Y-67.765
X74.2Y-62.9
X81.0Y-51.3
X81.819Y-51.328
X82.6Y-51.5
X84.848Y-46.868
X85.451Y-47.393
X85.8Y-48.113
X86.1Y-64.6
X89.5Y-67.765
X92.1Y-60.35
X92.427Y-59.5
X93.627Y-59.5
X106.715Y-59.5
X107.915Y-59.5
X117.5Y-88.019
X125.7Y-47.511
X130.4Y-59.5
X131.8Y-59.5
X144.6Y-47.812
X149.577Y-59.5
X150.778Y-59.5
X163.7Y-48.113
X163.8Y-59.5
X165.065Y-59.5
X178.6Y-48.414
X182.9Y-59.5
X184.2Y-59.5
X205.8Y-60.4
X206.7Y-59.5
X208.0Y-59.5
X220.3Y-60.5
X221.015Y-59.5
X222.215Y-59.5
X234.5Y-48.715
X244.8Y-59.5
X246.1Y-59.5
X257.9Y-48.7
X263.6Y-59.5
X265.4Y-59.5
X277.3Y-49.1
X281.0Y-59.5
X283.0Y-59.5
X298.0Y-49.3
X308.8Y-59.5
X311.3Y-59.5
X334.6Y-33.3
X335.609Y-33.3
X341.6Y-41.3
X342.4Y-51.0
X346.148Y-62.348
X346.5Y-39.6
X346.5Y-45.3
X347.05Y-54.7
X349.5Y-31.8
X350.7Y-31.8
T3
X335.544Y-35.481
X335.544Y-37.981
X335.544Y-40.481
X339.1Y-49.2
X341.64Y-49.2
X344.18Y-49.2
X346.72Y-49.2
X350.044Y-35.481
X350.044Y-40.481
T4
X35.56Y-43.18
X36.671Y-111.76
X39.052Y-54.61
X41.434Y-73.66
X41.91Y-40.64
X43.021Y-109.22
X45.402Y-52.07
X46.196Y-92.71
X47.784Y-71.12
X52.546Y-90.17
X54.61Y-43.18
X60.484Y-111.76
X60.96Y-40.64
X62.865Y-54.61
X66.834Y-109.22
X67.627Y-73.66
X69.215Y-52.07
X72.39Y-35.56
X73.977Y-71.12
X77.153Y-92.71
X78.74Y-33.02
X81.915Y-54.61
X83.502Y-90.17
X84.296Y-111.76
X86.677Y-73.66
X88.265Y-52.07
X90.646Y-109.22
X91.44Y-35.56
X93.027Y-71.12
X96.203Y-92.71
X97.79Y-33.02
X100.965Y-54.61
X102.552Y-90.17
X105.727Y-73.66
X107.315Y-52.07
X110.49Y-35.56
X112.078Y-71.12
X115.252Y-92.71
X116.84Y-33.02
X120.015Y-54.61
X121.602Y-90.17
X124.777Y-73.66
X126.365Y-52.07
X129.54Y-35.56
X131.127Y-71.12
X134.302Y-92.71
X135.89Y-33.02
X139.065Y-54.61
X140.653Y-90.17
X143.827Y-73.66
X145.415Y-52.07
X148.59Y-35.56
X150.177Y-71.12
X153.352Y-92.71
X154.94Y-33.02
X155.734Y-111.76
X158.115Y-54.61
X159.702Y-90.17
X162.084Y-109.22
X162.877Y-73.66
X164.465Y-52.07
X167.64Y-35.56
X169.227Y-71.12
X172.403Y-92.71
X173.99Y-33.02
X177.165Y-54.61
X178.752Y-90.17
X181.927Y-73.66
X183.515Y-52.07
X186.69Y-35.56
X188.278Y-71.12
X191.452Y-92.71
X193.04Y-33.02
X196.215Y-54.61
X197.802Y-90.17
X200.977Y-73.66
X202.565Y-52.07
X205.74Y-35.56
X207.327Y-71.12
X210.502Y-92.71
X212.09Y-33.02
X215.265Y-54.61
X216.852Y-90.17
X220.028Y-73.66
X221.615Y-52.07
X224.79Y-35.56
X224.79Y-111.76
X226.377Y-71.12
X229.552Y-92.71
X231.14Y-33.02
X231.14Y-109.22
X234.315Y-54.61
X235.903Y-90.17
X239.077Y-73.66
X240.665Y-52.07
X243.84Y-35.56
X243.84Y-111.76
X245.427Y-71.12
X248.602Y-92.71
X250.19Y-33.02
X250.19Y-109.22
X253.365Y-54.61
X254.952Y-90.17
X258.127Y-73.66
X259.715Y-52.07
X262.89Y-35.56
X262.89Y-111.76
X264.477Y-71.12
X269.24Y-33.02
X269.24Y-109.22
X272.415Y-54.61
X278.765Y-52.07
X281.94Y-111.76
X284.321Y-92.71
X288.29Y-109.22
X289.084Y-73.66
X290.671Y-90.17
X291.465Y-35.56
X295.434Y-71.12
X296.227Y-54.61
X297.815Y-33.02
X300.99Y-111.76
X302.577Y-52.07
X307.34Y-109.22
X320.04Y-35.56
X320.04Y-54.61
X320.04Y-73.66
X320.04Y-92.71
X320.04Y-111.76
X326.39Y-33.02
X326.39Y-52.07
X326.39Y-71.12
X326.39Y-90.17
X326.39Y-109.22
X339.09Y-92.71
X339.09Y-111.76
X345.44Y-90.17
X345.44Y-109.22
T5
X343.044Y-32.381
X343.044Y-43.581
T2
G00X45.28Y-28.325
M15
G01X45.28Y-29.125
M16
G05
G00X45.28Y-32.375
M15
G01X45.28Y-33.475
M16
G05
G00X53.92Y-28.325
M15
G01X53.92Y-29.125
M16
G05
G00X53.92Y-32.375
M15
G01X53.92Y-33.475
M16
G05
M30
