%TF.GenerationSoftware,KiCad,Pcbnew,9.0.5*%
%TF.CreationDate,2026-04-20T13:00:27-05:00*%
%TF.ProjectId,Keyboard,4b657962-6f61-4726-942e-6b696361645f,v1.0*%
%TF.SameCoordinates,Original*%
%TF.FileFunction,Legend,Bot*%
%TF.FilePolarity,Positive*%
%FSLAX46Y46*%
G04 Gerber Fmt 4.6, Leading zero omitted, Abs format (unit mm)*
G04 Created by KiCad (PCBNEW 9.0.5) date 2026-04-20 13:00:27*
%MOMM*%
%LPD*%
G01*
G04 APERTURE LIST*
%ADD10C,0.100000*%
%ADD11C,0.150000*%
%ADD12C,0.120000*%
%ADD13C,0.254000*%
G04 APERTURE END LIST*
D10*
X77948609Y-68037217D02*
X77996228Y-68180074D01*
X77996228Y-68180074D02*
X78043847Y-68227693D01*
X78043847Y-68227693D02*
X78139085Y-68275312D01*
X78139085Y-68275312D02*
X78281942Y-68275312D01*
X78281942Y-68275312D02*
X78377180Y-68227693D01*
X78377180Y-68227693D02*
X78424800Y-68180074D01*
X78424800Y-68180074D02*
X78472419Y-68084836D01*
X78472419Y-68084836D02*
X78472419Y-67703884D01*
X78472419Y-67703884D02*
X77472419Y-67703884D01*
X77472419Y-67703884D02*
X77472419Y-68037217D01*
X77472419Y-68037217D02*
X77520038Y-68132455D01*
X77520038Y-68132455D02*
X77567657Y-68180074D01*
X77567657Y-68180074D02*
X77662895Y-68227693D01*
X77662895Y-68227693D02*
X77758133Y-68227693D01*
X77758133Y-68227693D02*
X77853371Y-68180074D01*
X77853371Y-68180074D02*
X77900990Y-68132455D01*
X77900990Y-68132455D02*
X77948609Y-68037217D01*
X77948609Y-68037217D02*
X77948609Y-67703884D01*
X78472419Y-68846741D02*
X78424800Y-68751503D01*
X78424800Y-68751503D02*
X78377180Y-68703884D01*
X78377180Y-68703884D02*
X78281942Y-68656265D01*
X78281942Y-68656265D02*
X77996228Y-68656265D01*
X77996228Y-68656265D02*
X77900990Y-68703884D01*
X77900990Y-68703884D02*
X77853371Y-68751503D01*
X77853371Y-68751503D02*
X77805752Y-68846741D01*
X77805752Y-68846741D02*
X77805752Y-68989598D01*
X77805752Y-68989598D02*
X77853371Y-69084836D01*
X77853371Y-69084836D02*
X77900990Y-69132455D01*
X77900990Y-69132455D02*
X77996228Y-69180074D01*
X77996228Y-69180074D02*
X78281942Y-69180074D01*
X78281942Y-69180074D02*
X78377180Y-69132455D01*
X78377180Y-69132455D02*
X78424800Y-69084836D01*
X78424800Y-69084836D02*
X78472419Y-68989598D01*
X78472419Y-68989598D02*
X78472419Y-68846741D01*
X78472419Y-69751503D02*
X78424800Y-69656265D01*
X78424800Y-69656265D02*
X78377180Y-69608646D01*
X78377180Y-69608646D02*
X78281942Y-69561027D01*
X78281942Y-69561027D02*
X77996228Y-69561027D01*
X77996228Y-69561027D02*
X77900990Y-69608646D01*
X77900990Y-69608646D02*
X77853371Y-69656265D01*
X77853371Y-69656265D02*
X77805752Y-69751503D01*
X77805752Y-69751503D02*
X77805752Y-69894360D01*
X77805752Y-69894360D02*
X77853371Y-69989598D01*
X77853371Y-69989598D02*
X77900990Y-70037217D01*
X77900990Y-70037217D02*
X77996228Y-70084836D01*
X77996228Y-70084836D02*
X78281942Y-70084836D01*
X78281942Y-70084836D02*
X78377180Y-70037217D01*
X78377180Y-70037217D02*
X78424800Y-69989598D01*
X78424800Y-69989598D02*
X78472419Y-69894360D01*
X78472419Y-69894360D02*
X78472419Y-69751503D01*
X77805752Y-70370551D02*
X77805752Y-70751503D01*
X77472419Y-70513408D02*
X78329561Y-70513408D01*
X78329561Y-70513408D02*
X78424800Y-70561027D01*
X78424800Y-70561027D02*
X78472419Y-70656265D01*
X78472419Y-70656265D02*
X78472419Y-70751503D01*
X86272419Y-68275312D02*
X85796228Y-67941979D01*
X86272419Y-67703884D02*
X85272419Y-67703884D01*
X85272419Y-67703884D02*
X85272419Y-68084836D01*
X85272419Y-68084836D02*
X85320038Y-68180074D01*
X85320038Y-68180074D02*
X85367657Y-68227693D01*
X85367657Y-68227693D02*
X85462895Y-68275312D01*
X85462895Y-68275312D02*
X85605752Y-68275312D01*
X85605752Y-68275312D02*
X85700990Y-68227693D01*
X85700990Y-68227693D02*
X85748609Y-68180074D01*
X85748609Y-68180074D02*
X85796228Y-68084836D01*
X85796228Y-68084836D02*
X85796228Y-67703884D01*
X86224800Y-69084836D02*
X86272419Y-68989598D01*
X86272419Y-68989598D02*
X86272419Y-68799122D01*
X86272419Y-68799122D02*
X86224800Y-68703884D01*
X86224800Y-68703884D02*
X86129561Y-68656265D01*
X86129561Y-68656265D02*
X85748609Y-68656265D01*
X85748609Y-68656265D02*
X85653371Y-68703884D01*
X85653371Y-68703884D02*
X85605752Y-68799122D01*
X85605752Y-68799122D02*
X85605752Y-68989598D01*
X85605752Y-68989598D02*
X85653371Y-69084836D01*
X85653371Y-69084836D02*
X85748609Y-69132455D01*
X85748609Y-69132455D02*
X85843847Y-69132455D01*
X85843847Y-69132455D02*
X85939085Y-68656265D01*
X86224800Y-69513408D02*
X86272419Y-69608646D01*
X86272419Y-69608646D02*
X86272419Y-69799122D01*
X86272419Y-69799122D02*
X86224800Y-69894360D01*
X86224800Y-69894360D02*
X86129561Y-69941979D01*
X86129561Y-69941979D02*
X86081942Y-69941979D01*
X86081942Y-69941979D02*
X85986704Y-69894360D01*
X85986704Y-69894360D02*
X85939085Y-69799122D01*
X85939085Y-69799122D02*
X85939085Y-69656265D01*
X85939085Y-69656265D02*
X85891466Y-69561027D01*
X85891466Y-69561027D02*
X85796228Y-69513408D01*
X85796228Y-69513408D02*
X85748609Y-69513408D01*
X85748609Y-69513408D02*
X85653371Y-69561027D01*
X85653371Y-69561027D02*
X85605752Y-69656265D01*
X85605752Y-69656265D02*
X85605752Y-69799122D01*
X85605752Y-69799122D02*
X85653371Y-69894360D01*
X86224800Y-70751503D02*
X86272419Y-70656265D01*
X86272419Y-70656265D02*
X86272419Y-70465789D01*
X86272419Y-70465789D02*
X86224800Y-70370551D01*
X86224800Y-70370551D02*
X86129561Y-70322932D01*
X86129561Y-70322932D02*
X85748609Y-70322932D01*
X85748609Y-70322932D02*
X85653371Y-70370551D01*
X85653371Y-70370551D02*
X85605752Y-70465789D01*
X85605752Y-70465789D02*
X85605752Y-70656265D01*
X85605752Y-70656265D02*
X85653371Y-70751503D01*
X85653371Y-70751503D02*
X85748609Y-70799122D01*
X85748609Y-70799122D02*
X85843847Y-70799122D01*
X85843847Y-70799122D02*
X85939085Y-70322932D01*
X85605752Y-71084837D02*
X85605752Y-71465789D01*
X85272419Y-71227694D02*
X86129561Y-71227694D01*
X86129561Y-71227694D02*
X86224800Y-71275313D01*
X86224800Y-71275313D02*
X86272419Y-71370551D01*
X86272419Y-71370551D02*
X86272419Y-71465789D01*
D11*
X59072112Y-72298911D02*
X59139456Y-72298911D01*
X59139456Y-72298911D02*
X59274143Y-72231567D01*
X59274143Y-72231567D02*
X59341486Y-72164224D01*
X59341486Y-72164224D02*
X59408830Y-72029537D01*
X59408830Y-72029537D02*
X59408830Y-71894850D01*
X59408830Y-71894850D02*
X59375158Y-71793835D01*
X59375158Y-71793835D02*
X59274143Y-71625476D01*
X59274143Y-71625476D02*
X59173128Y-71524461D01*
X59173128Y-71524461D02*
X59004769Y-71423445D01*
X59004769Y-71423445D02*
X58903754Y-71389774D01*
X58903754Y-71389774D02*
X58769067Y-71389774D01*
X58769067Y-71389774D02*
X58634380Y-71457117D01*
X58634380Y-71457117D02*
X58567036Y-71524461D01*
X58567036Y-71524461D02*
X58499693Y-71659148D01*
X58499693Y-71659148D02*
X58499693Y-71726491D01*
X58466021Y-73039689D02*
X58870082Y-72635628D01*
X58668051Y-72837659D02*
X57960945Y-72130552D01*
X57960945Y-72130552D02*
X58129303Y-72164224D01*
X58129303Y-72164224D02*
X58263990Y-72164224D01*
X58263990Y-72164224D02*
X58365006Y-72130552D01*
X146242319Y-89273214D02*
X145242319Y-89273214D01*
X145242319Y-89273214D02*
X145242319Y-89511309D01*
X145242319Y-89511309D02*
X145289938Y-89654166D01*
X145289938Y-89654166D02*
X145385176Y-89749404D01*
X145385176Y-89749404D02*
X145480414Y-89797023D01*
X145480414Y-89797023D02*
X145670890Y-89844642D01*
X145670890Y-89844642D02*
X145813747Y-89844642D01*
X145813747Y-89844642D02*
X146004223Y-89797023D01*
X146004223Y-89797023D02*
X146099461Y-89749404D01*
X146099461Y-89749404D02*
X146194700Y-89654166D01*
X146194700Y-89654166D02*
X146242319Y-89511309D01*
X146242319Y-89511309D02*
X146242319Y-89273214D01*
X145337557Y-90225595D02*
X145289938Y-90273214D01*
X145289938Y-90273214D02*
X145242319Y-90368452D01*
X145242319Y-90368452D02*
X145242319Y-90606547D01*
X145242319Y-90606547D02*
X145289938Y-90701785D01*
X145289938Y-90701785D02*
X145337557Y-90749404D01*
X145337557Y-90749404D02*
X145432795Y-90797023D01*
X145432795Y-90797023D02*
X145528033Y-90797023D01*
X145528033Y-90797023D02*
X145670890Y-90749404D01*
X145670890Y-90749404D02*
X146242319Y-90177976D01*
X146242319Y-90177976D02*
X146242319Y-90797023D01*
X145670890Y-91368452D02*
X145623271Y-91273214D01*
X145623271Y-91273214D02*
X145575652Y-91225595D01*
X145575652Y-91225595D02*
X145480414Y-91177976D01*
X145480414Y-91177976D02*
X145432795Y-91177976D01*
X145432795Y-91177976D02*
X145337557Y-91225595D01*
X145337557Y-91225595D02*
X145289938Y-91273214D01*
X145289938Y-91273214D02*
X145242319Y-91368452D01*
X145242319Y-91368452D02*
X145242319Y-91558928D01*
X145242319Y-91558928D02*
X145289938Y-91654166D01*
X145289938Y-91654166D02*
X145337557Y-91701785D01*
X145337557Y-91701785D02*
X145432795Y-91749404D01*
X145432795Y-91749404D02*
X145480414Y-91749404D01*
X145480414Y-91749404D02*
X145575652Y-91701785D01*
X145575652Y-91701785D02*
X145623271Y-91654166D01*
X145623271Y-91654166D02*
X145670890Y-91558928D01*
X145670890Y-91558928D02*
X145670890Y-91368452D01*
X145670890Y-91368452D02*
X145718509Y-91273214D01*
X145718509Y-91273214D02*
X145766128Y-91225595D01*
X145766128Y-91225595D02*
X145861366Y-91177976D01*
X145861366Y-91177976D02*
X146051842Y-91177976D01*
X146051842Y-91177976D02*
X146147080Y-91225595D01*
X146147080Y-91225595D02*
X146194700Y-91273214D01*
X146194700Y-91273214D02*
X146242319Y-91368452D01*
X146242319Y-91368452D02*
X146242319Y-91558928D01*
X146242319Y-91558928D02*
X146194700Y-91654166D01*
X146194700Y-91654166D02*
X146147080Y-91701785D01*
X146147080Y-91701785D02*
X146051842Y-91749404D01*
X146051842Y-91749404D02*
X145861366Y-91749404D01*
X145861366Y-91749404D02*
X145766128Y-91701785D01*
X145766128Y-91701785D02*
X145718509Y-91654166D01*
X145718509Y-91654166D02*
X145670890Y-91558928D01*
X208154819Y-51173214D02*
X207154819Y-51173214D01*
X207154819Y-51173214D02*
X207154819Y-51411309D01*
X207154819Y-51411309D02*
X207202438Y-51554166D01*
X207202438Y-51554166D02*
X207297676Y-51649404D01*
X207297676Y-51649404D02*
X207392914Y-51697023D01*
X207392914Y-51697023D02*
X207583390Y-51744642D01*
X207583390Y-51744642D02*
X207726247Y-51744642D01*
X207726247Y-51744642D02*
X207916723Y-51697023D01*
X207916723Y-51697023D02*
X208011961Y-51649404D01*
X208011961Y-51649404D02*
X208107200Y-51554166D01*
X208107200Y-51554166D02*
X208154819Y-51411309D01*
X208154819Y-51411309D02*
X208154819Y-51173214D01*
X207154819Y-52077976D02*
X207154819Y-52697023D01*
X207154819Y-52697023D02*
X207535771Y-52363690D01*
X207535771Y-52363690D02*
X207535771Y-52506547D01*
X207535771Y-52506547D02*
X207583390Y-52601785D01*
X207583390Y-52601785D02*
X207631009Y-52649404D01*
X207631009Y-52649404D02*
X207726247Y-52697023D01*
X207726247Y-52697023D02*
X207964342Y-52697023D01*
X207964342Y-52697023D02*
X208059580Y-52649404D01*
X208059580Y-52649404D02*
X208107200Y-52601785D01*
X208107200Y-52601785D02*
X208154819Y-52506547D01*
X208154819Y-52506547D02*
X208154819Y-52220833D01*
X208154819Y-52220833D02*
X208107200Y-52125595D01*
X208107200Y-52125595D02*
X208059580Y-52077976D01*
X207583390Y-53268452D02*
X207535771Y-53173214D01*
X207535771Y-53173214D02*
X207488152Y-53125595D01*
X207488152Y-53125595D02*
X207392914Y-53077976D01*
X207392914Y-53077976D02*
X207345295Y-53077976D01*
X207345295Y-53077976D02*
X207250057Y-53125595D01*
X207250057Y-53125595D02*
X207202438Y-53173214D01*
X207202438Y-53173214D02*
X207154819Y-53268452D01*
X207154819Y-53268452D02*
X207154819Y-53458928D01*
X207154819Y-53458928D02*
X207202438Y-53554166D01*
X207202438Y-53554166D02*
X207250057Y-53601785D01*
X207250057Y-53601785D02*
X207345295Y-53649404D01*
X207345295Y-53649404D02*
X207392914Y-53649404D01*
X207392914Y-53649404D02*
X207488152Y-53601785D01*
X207488152Y-53601785D02*
X207535771Y-53554166D01*
X207535771Y-53554166D02*
X207583390Y-53458928D01*
X207583390Y-53458928D02*
X207583390Y-53268452D01*
X207583390Y-53268452D02*
X207631009Y-53173214D01*
X207631009Y-53173214D02*
X207678628Y-53125595D01*
X207678628Y-53125595D02*
X207773866Y-53077976D01*
X207773866Y-53077976D02*
X207964342Y-53077976D01*
X207964342Y-53077976D02*
X208059580Y-53125595D01*
X208059580Y-53125595D02*
X208107200Y-53173214D01*
X208107200Y-53173214D02*
X208154819Y-53268452D01*
X208154819Y-53268452D02*
X208154819Y-53458928D01*
X208154819Y-53458928D02*
X208107200Y-53554166D01*
X208107200Y-53554166D02*
X208059580Y-53601785D01*
X208059580Y-53601785D02*
X207964342Y-53649404D01*
X207964342Y-53649404D02*
X207773866Y-53649404D01*
X207773866Y-53649404D02*
X207678628Y-53601785D01*
X207678628Y-53601785D02*
X207631009Y-53554166D01*
X207631009Y-53554166D02*
X207583390Y-53458928D01*
X47194166Y-39724819D02*
X47527499Y-39248628D01*
X47765594Y-39724819D02*
X47765594Y-38724819D01*
X47765594Y-38724819D02*
X47384642Y-38724819D01*
X47384642Y-38724819D02*
X47289404Y-38772438D01*
X47289404Y-38772438D02*
X47241785Y-38820057D01*
X47241785Y-38820057D02*
X47194166Y-38915295D01*
X47194166Y-38915295D02*
X47194166Y-39058152D01*
X47194166Y-39058152D02*
X47241785Y-39153390D01*
X47241785Y-39153390D02*
X47289404Y-39201009D01*
X47289404Y-39201009D02*
X47384642Y-39248628D01*
X47384642Y-39248628D02*
X47765594Y-39248628D01*
X46860832Y-38724819D02*
X46241785Y-38724819D01*
X46241785Y-38724819D02*
X46575118Y-39105771D01*
X46575118Y-39105771D02*
X46432261Y-39105771D01*
X46432261Y-39105771D02*
X46337023Y-39153390D01*
X46337023Y-39153390D02*
X46289404Y-39201009D01*
X46289404Y-39201009D02*
X46241785Y-39296247D01*
X46241785Y-39296247D02*
X46241785Y-39534342D01*
X46241785Y-39534342D02*
X46289404Y-39629580D01*
X46289404Y-39629580D02*
X46337023Y-39677200D01*
X46337023Y-39677200D02*
X46432261Y-39724819D01*
X46432261Y-39724819D02*
X46717975Y-39724819D01*
X46717975Y-39724819D02*
X46813213Y-39677200D01*
X46813213Y-39677200D02*
X46860832Y-39629580D01*
X312929819Y-70223214D02*
X311929819Y-70223214D01*
X311929819Y-70223214D02*
X311929819Y-70461309D01*
X311929819Y-70461309D02*
X311977438Y-70604166D01*
X311977438Y-70604166D02*
X312072676Y-70699404D01*
X312072676Y-70699404D02*
X312167914Y-70747023D01*
X312167914Y-70747023D02*
X312358390Y-70794642D01*
X312358390Y-70794642D02*
X312501247Y-70794642D01*
X312501247Y-70794642D02*
X312691723Y-70747023D01*
X312691723Y-70747023D02*
X312786961Y-70699404D01*
X312786961Y-70699404D02*
X312882200Y-70604166D01*
X312882200Y-70604166D02*
X312929819Y-70461309D01*
X312929819Y-70461309D02*
X312929819Y-70223214D01*
X311929819Y-71651785D02*
X311929819Y-71461309D01*
X311929819Y-71461309D02*
X311977438Y-71366071D01*
X311977438Y-71366071D02*
X312025057Y-71318452D01*
X312025057Y-71318452D02*
X312167914Y-71223214D01*
X312167914Y-71223214D02*
X312358390Y-71175595D01*
X312358390Y-71175595D02*
X312739342Y-71175595D01*
X312739342Y-71175595D02*
X312834580Y-71223214D01*
X312834580Y-71223214D02*
X312882200Y-71270833D01*
X312882200Y-71270833D02*
X312929819Y-71366071D01*
X312929819Y-71366071D02*
X312929819Y-71556547D01*
X312929819Y-71556547D02*
X312882200Y-71651785D01*
X312882200Y-71651785D02*
X312834580Y-71699404D01*
X312834580Y-71699404D02*
X312739342Y-71747023D01*
X312739342Y-71747023D02*
X312501247Y-71747023D01*
X312501247Y-71747023D02*
X312406009Y-71699404D01*
X312406009Y-71699404D02*
X312358390Y-71651785D01*
X312358390Y-71651785D02*
X312310771Y-71556547D01*
X312310771Y-71556547D02*
X312310771Y-71366071D01*
X312310771Y-71366071D02*
X312358390Y-71270833D01*
X312358390Y-71270833D02*
X312406009Y-71223214D01*
X312406009Y-71223214D02*
X312501247Y-71175595D01*
X311929819Y-72080357D02*
X311929819Y-72699404D01*
X311929819Y-72699404D02*
X312310771Y-72366071D01*
X312310771Y-72366071D02*
X312310771Y-72508928D01*
X312310771Y-72508928D02*
X312358390Y-72604166D01*
X312358390Y-72604166D02*
X312406009Y-72651785D01*
X312406009Y-72651785D02*
X312501247Y-72699404D01*
X312501247Y-72699404D02*
X312739342Y-72699404D01*
X312739342Y-72699404D02*
X312834580Y-72651785D01*
X312834580Y-72651785D02*
X312882200Y-72604166D01*
X312882200Y-72604166D02*
X312929819Y-72508928D01*
X312929819Y-72508928D02*
X312929819Y-72223214D01*
X312929819Y-72223214D02*
X312882200Y-72127976D01*
X312882200Y-72127976D02*
X312834580Y-72080357D01*
X255779819Y-32123214D02*
X254779819Y-32123214D01*
X254779819Y-32123214D02*
X254779819Y-32361309D01*
X254779819Y-32361309D02*
X254827438Y-32504166D01*
X254827438Y-32504166D02*
X254922676Y-32599404D01*
X254922676Y-32599404D02*
X255017914Y-32647023D01*
X255017914Y-32647023D02*
X255208390Y-32694642D01*
X255208390Y-32694642D02*
X255351247Y-32694642D01*
X255351247Y-32694642D02*
X255541723Y-32647023D01*
X255541723Y-32647023D02*
X255636961Y-32599404D01*
X255636961Y-32599404D02*
X255732200Y-32504166D01*
X255732200Y-32504166D02*
X255779819Y-32361309D01*
X255779819Y-32361309D02*
X255779819Y-32123214D01*
X254779819Y-33599404D02*
X254779819Y-33123214D01*
X254779819Y-33123214D02*
X255256009Y-33075595D01*
X255256009Y-33075595D02*
X255208390Y-33123214D01*
X255208390Y-33123214D02*
X255160771Y-33218452D01*
X255160771Y-33218452D02*
X255160771Y-33456547D01*
X255160771Y-33456547D02*
X255208390Y-33551785D01*
X255208390Y-33551785D02*
X255256009Y-33599404D01*
X255256009Y-33599404D02*
X255351247Y-33647023D01*
X255351247Y-33647023D02*
X255589342Y-33647023D01*
X255589342Y-33647023D02*
X255684580Y-33599404D01*
X255684580Y-33599404D02*
X255732200Y-33551785D01*
X255732200Y-33551785D02*
X255779819Y-33456547D01*
X255779819Y-33456547D02*
X255779819Y-33218452D01*
X255779819Y-33218452D02*
X255732200Y-33123214D01*
X255732200Y-33123214D02*
X255684580Y-33075595D01*
X254779819Y-33980357D02*
X254779819Y-34647023D01*
X254779819Y-34647023D02*
X255779819Y-34218452D01*
X312929819Y-89273214D02*
X311929819Y-89273214D01*
X311929819Y-89273214D02*
X311929819Y-89511309D01*
X311929819Y-89511309D02*
X311977438Y-89654166D01*
X311977438Y-89654166D02*
X312072676Y-89749404D01*
X312072676Y-89749404D02*
X312167914Y-89797023D01*
X312167914Y-89797023D02*
X312358390Y-89844642D01*
X312358390Y-89844642D02*
X312501247Y-89844642D01*
X312501247Y-89844642D02*
X312691723Y-89797023D01*
X312691723Y-89797023D02*
X312786961Y-89749404D01*
X312786961Y-89749404D02*
X312882200Y-89654166D01*
X312882200Y-89654166D02*
X312929819Y-89511309D01*
X312929819Y-89511309D02*
X312929819Y-89273214D01*
X311929819Y-90701785D02*
X311929819Y-90511309D01*
X311929819Y-90511309D02*
X311977438Y-90416071D01*
X311977438Y-90416071D02*
X312025057Y-90368452D01*
X312025057Y-90368452D02*
X312167914Y-90273214D01*
X312167914Y-90273214D02*
X312358390Y-90225595D01*
X312358390Y-90225595D02*
X312739342Y-90225595D01*
X312739342Y-90225595D02*
X312834580Y-90273214D01*
X312834580Y-90273214D02*
X312882200Y-90320833D01*
X312882200Y-90320833D02*
X312929819Y-90416071D01*
X312929819Y-90416071D02*
X312929819Y-90606547D01*
X312929819Y-90606547D02*
X312882200Y-90701785D01*
X312882200Y-90701785D02*
X312834580Y-90749404D01*
X312834580Y-90749404D02*
X312739342Y-90797023D01*
X312739342Y-90797023D02*
X312501247Y-90797023D01*
X312501247Y-90797023D02*
X312406009Y-90749404D01*
X312406009Y-90749404D02*
X312358390Y-90701785D01*
X312358390Y-90701785D02*
X312310771Y-90606547D01*
X312310771Y-90606547D02*
X312310771Y-90416071D01*
X312310771Y-90416071D02*
X312358390Y-90320833D01*
X312358390Y-90320833D02*
X312406009Y-90273214D01*
X312406009Y-90273214D02*
X312501247Y-90225595D01*
X312263152Y-91654166D02*
X312929819Y-91654166D01*
X311882200Y-91416071D02*
X312596485Y-91177976D01*
X312596485Y-91177976D02*
X312596485Y-91797023D01*
X58363588Y-56372112D02*
X58363588Y-56439456D01*
X58363588Y-56439456D02*
X58430932Y-56574143D01*
X58430932Y-56574143D02*
X58498275Y-56641486D01*
X58498275Y-56641486D02*
X58632962Y-56708830D01*
X58632962Y-56708830D02*
X58767649Y-56708830D01*
X58767649Y-56708830D02*
X58868664Y-56675158D01*
X58868664Y-56675158D02*
X59037023Y-56574143D01*
X59037023Y-56574143D02*
X59138038Y-56473128D01*
X59138038Y-56473128D02*
X59239054Y-56304769D01*
X59239054Y-56304769D02*
X59272725Y-56203754D01*
X59272725Y-56203754D02*
X59272725Y-56069067D01*
X59272725Y-56069067D02*
X59205382Y-55934380D01*
X59205382Y-55934380D02*
X59138038Y-55867036D01*
X59138038Y-55867036D02*
X59003351Y-55799693D01*
X59003351Y-55799693D02*
X58936008Y-55799693D01*
X58767649Y-55496647D02*
X58296245Y-55025242D01*
X58296245Y-55025242D02*
X57892184Y-56035395D01*
X350266666Y-32554819D02*
X350599999Y-32078628D01*
X350838094Y-32554819D02*
X350838094Y-31554819D01*
X350838094Y-31554819D02*
X350457142Y-31554819D01*
X350457142Y-31554819D02*
X350361904Y-31602438D01*
X350361904Y-31602438D02*
X350314285Y-31650057D01*
X350314285Y-31650057D02*
X350266666Y-31745295D01*
X350266666Y-31745295D02*
X350266666Y-31888152D01*
X350266666Y-31888152D02*
X350314285Y-31983390D01*
X350314285Y-31983390D02*
X350361904Y-32031009D01*
X350361904Y-32031009D02*
X350457142Y-32078628D01*
X350457142Y-32078628D02*
X350838094Y-32078628D01*
X349361904Y-31554819D02*
X349838094Y-31554819D01*
X349838094Y-31554819D02*
X349885713Y-32031009D01*
X349885713Y-32031009D02*
X349838094Y-31983390D01*
X349838094Y-31983390D02*
X349742856Y-31935771D01*
X349742856Y-31935771D02*
X349504761Y-31935771D01*
X349504761Y-31935771D02*
X349409523Y-31983390D01*
X349409523Y-31983390D02*
X349361904Y-32031009D01*
X349361904Y-32031009D02*
X349314285Y-32126247D01*
X349314285Y-32126247D02*
X349314285Y-32364342D01*
X349314285Y-32364342D02*
X349361904Y-32459580D01*
X349361904Y-32459580D02*
X349409523Y-32507200D01*
X349409523Y-32507200D02*
X349504761Y-32554819D01*
X349504761Y-32554819D02*
X349742856Y-32554819D01*
X349742856Y-32554819D02*
X349838094Y-32507200D01*
X349838094Y-32507200D02*
X349885713Y-32459580D01*
X348166666Y-45259580D02*
X348214285Y-45307200D01*
X348214285Y-45307200D02*
X348357142Y-45354819D01*
X348357142Y-45354819D02*
X348452380Y-45354819D01*
X348452380Y-45354819D02*
X348595237Y-45307200D01*
X348595237Y-45307200D02*
X348690475Y-45211961D01*
X348690475Y-45211961D02*
X348738094Y-45116723D01*
X348738094Y-45116723D02*
X348785713Y-44926247D01*
X348785713Y-44926247D02*
X348785713Y-44783390D01*
X348785713Y-44783390D02*
X348738094Y-44592914D01*
X348738094Y-44592914D02*
X348690475Y-44497676D01*
X348690475Y-44497676D02*
X348595237Y-44402438D01*
X348595237Y-44402438D02*
X348452380Y-44354819D01*
X348452380Y-44354819D02*
X348357142Y-44354819D01*
X348357142Y-44354819D02*
X348214285Y-44402438D01*
X348214285Y-44402438D02*
X348166666Y-44450057D01*
X347595237Y-44783390D02*
X347690475Y-44735771D01*
X347690475Y-44735771D02*
X347738094Y-44688152D01*
X347738094Y-44688152D02*
X347785713Y-44592914D01*
X347785713Y-44592914D02*
X347785713Y-44545295D01*
X347785713Y-44545295D02*
X347738094Y-44450057D01*
X347738094Y-44450057D02*
X347690475Y-44402438D01*
X347690475Y-44402438D02*
X347595237Y-44354819D01*
X347595237Y-44354819D02*
X347404761Y-44354819D01*
X347404761Y-44354819D02*
X347309523Y-44402438D01*
X347309523Y-44402438D02*
X347261904Y-44450057D01*
X347261904Y-44450057D02*
X347214285Y-44545295D01*
X347214285Y-44545295D02*
X347214285Y-44592914D01*
X347214285Y-44592914D02*
X347261904Y-44688152D01*
X347261904Y-44688152D02*
X347309523Y-44735771D01*
X347309523Y-44735771D02*
X347404761Y-44783390D01*
X347404761Y-44783390D02*
X347595237Y-44783390D01*
X347595237Y-44783390D02*
X347690475Y-44831009D01*
X347690475Y-44831009D02*
X347738094Y-44878628D01*
X347738094Y-44878628D02*
X347785713Y-44973866D01*
X347785713Y-44973866D02*
X347785713Y-45164342D01*
X347785713Y-45164342D02*
X347738094Y-45259580D01*
X347738094Y-45259580D02*
X347690475Y-45307200D01*
X347690475Y-45307200D02*
X347595237Y-45354819D01*
X347595237Y-45354819D02*
X347404761Y-45354819D01*
X347404761Y-45354819D02*
X347309523Y-45307200D01*
X347309523Y-45307200D02*
X347261904Y-45259580D01*
X347261904Y-45259580D02*
X347214285Y-45164342D01*
X347214285Y-45164342D02*
X347214285Y-44973866D01*
X347214285Y-44973866D02*
X347261904Y-44878628D01*
X347261904Y-44878628D02*
X347309523Y-44831009D01*
X347309523Y-44831009D02*
X347404761Y-44783390D01*
X335325416Y-44528569D02*
X335658749Y-44052378D01*
X335896844Y-44528569D02*
X335896844Y-43528569D01*
X335896844Y-43528569D02*
X335515892Y-43528569D01*
X335515892Y-43528569D02*
X335420654Y-43576188D01*
X335420654Y-43576188D02*
X335373035Y-43623807D01*
X335373035Y-43623807D02*
X335325416Y-43719045D01*
X335325416Y-43719045D02*
X335325416Y-43861902D01*
X335325416Y-43861902D02*
X335373035Y-43957140D01*
X335373035Y-43957140D02*
X335420654Y-44004759D01*
X335420654Y-44004759D02*
X335515892Y-44052378D01*
X335515892Y-44052378D02*
X335896844Y-44052378D01*
X334849225Y-44528569D02*
X334658749Y-44528569D01*
X334658749Y-44528569D02*
X334563511Y-44480950D01*
X334563511Y-44480950D02*
X334515892Y-44433330D01*
X334515892Y-44433330D02*
X334420654Y-44290473D01*
X334420654Y-44290473D02*
X334373035Y-44099997D01*
X334373035Y-44099997D02*
X334373035Y-43719045D01*
X334373035Y-43719045D02*
X334420654Y-43623807D01*
X334420654Y-43623807D02*
X334468273Y-43576188D01*
X334468273Y-43576188D02*
X334563511Y-43528569D01*
X334563511Y-43528569D02*
X334753987Y-43528569D01*
X334753987Y-43528569D02*
X334849225Y-43576188D01*
X334849225Y-43576188D02*
X334896844Y-43623807D01*
X334896844Y-43623807D02*
X334944463Y-43719045D01*
X334944463Y-43719045D02*
X334944463Y-43957140D01*
X334944463Y-43957140D02*
X334896844Y-44052378D01*
X334896844Y-44052378D02*
X334849225Y-44099997D01*
X334849225Y-44099997D02*
X334753987Y-44147616D01*
X334753987Y-44147616D02*
X334563511Y-44147616D01*
X334563511Y-44147616D02*
X334468273Y-44099997D01*
X334468273Y-44099997D02*
X334420654Y-44052378D01*
X334420654Y-44052378D02*
X334373035Y-43957140D01*
X212917319Y-70223214D02*
X211917319Y-70223214D01*
X211917319Y-70223214D02*
X211917319Y-70461309D01*
X211917319Y-70461309D02*
X211964938Y-70604166D01*
X211964938Y-70604166D02*
X212060176Y-70699404D01*
X212060176Y-70699404D02*
X212155414Y-70747023D01*
X212155414Y-70747023D02*
X212345890Y-70794642D01*
X212345890Y-70794642D02*
X212488747Y-70794642D01*
X212488747Y-70794642D02*
X212679223Y-70747023D01*
X212679223Y-70747023D02*
X212774461Y-70699404D01*
X212774461Y-70699404D02*
X212869700Y-70604166D01*
X212869700Y-70604166D02*
X212917319Y-70461309D01*
X212917319Y-70461309D02*
X212917319Y-70223214D01*
X212250652Y-71651785D02*
X212917319Y-71651785D01*
X211869700Y-71413690D02*
X212583985Y-71175595D01*
X212583985Y-71175595D02*
X212583985Y-71794642D01*
X212250652Y-72604166D02*
X212917319Y-72604166D01*
X211869700Y-72366071D02*
X212583985Y-72127976D01*
X212583985Y-72127976D02*
X212583985Y-72747023D01*
X93854819Y-51173214D02*
X92854819Y-51173214D01*
X92854819Y-51173214D02*
X92854819Y-51411309D01*
X92854819Y-51411309D02*
X92902438Y-51554166D01*
X92902438Y-51554166D02*
X92997676Y-51649404D01*
X92997676Y-51649404D02*
X93092914Y-51697023D01*
X93092914Y-51697023D02*
X93283390Y-51744642D01*
X93283390Y-51744642D02*
X93426247Y-51744642D01*
X93426247Y-51744642D02*
X93616723Y-51697023D01*
X93616723Y-51697023D02*
X93711961Y-51649404D01*
X93711961Y-51649404D02*
X93807200Y-51554166D01*
X93807200Y-51554166D02*
X93854819Y-51411309D01*
X93854819Y-51411309D02*
X93854819Y-51173214D01*
X93854819Y-52697023D02*
X93854819Y-52125595D01*
X93854819Y-52411309D02*
X92854819Y-52411309D01*
X92854819Y-52411309D02*
X92997676Y-52316071D01*
X92997676Y-52316071D02*
X93092914Y-52220833D01*
X93092914Y-52220833D02*
X93140533Y-52125595D01*
X92950057Y-53077976D02*
X92902438Y-53125595D01*
X92902438Y-53125595D02*
X92854819Y-53220833D01*
X92854819Y-53220833D02*
X92854819Y-53458928D01*
X92854819Y-53458928D02*
X92902438Y-53554166D01*
X92902438Y-53554166D02*
X92950057Y-53601785D01*
X92950057Y-53601785D02*
X93045295Y-53649404D01*
X93045295Y-53649404D02*
X93140533Y-53649404D01*
X93140533Y-53649404D02*
X93283390Y-53601785D01*
X93283390Y-53601785D02*
X93854819Y-53030357D01*
X93854819Y-53030357D02*
X93854819Y-53649404D01*
X103379819Y-32123214D02*
X102379819Y-32123214D01*
X102379819Y-32123214D02*
X102379819Y-32361309D01*
X102379819Y-32361309D02*
X102427438Y-32504166D01*
X102427438Y-32504166D02*
X102522676Y-32599404D01*
X102522676Y-32599404D02*
X102617914Y-32647023D01*
X102617914Y-32647023D02*
X102808390Y-32694642D01*
X102808390Y-32694642D02*
X102951247Y-32694642D01*
X102951247Y-32694642D02*
X103141723Y-32647023D01*
X103141723Y-32647023D02*
X103236961Y-32599404D01*
X103236961Y-32599404D02*
X103332200Y-32504166D01*
X103332200Y-32504166D02*
X103379819Y-32361309D01*
X103379819Y-32361309D02*
X103379819Y-32123214D01*
X102475057Y-33075595D02*
X102427438Y-33123214D01*
X102427438Y-33123214D02*
X102379819Y-33218452D01*
X102379819Y-33218452D02*
X102379819Y-33456547D01*
X102379819Y-33456547D02*
X102427438Y-33551785D01*
X102427438Y-33551785D02*
X102475057Y-33599404D01*
X102475057Y-33599404D02*
X102570295Y-33647023D01*
X102570295Y-33647023D02*
X102665533Y-33647023D01*
X102665533Y-33647023D02*
X102808390Y-33599404D01*
X102808390Y-33599404D02*
X103379819Y-33027976D01*
X103379819Y-33027976D02*
X103379819Y-33647023D01*
X103379819Y-34599404D02*
X103379819Y-34027976D01*
X103379819Y-34313690D02*
X102379819Y-34313690D01*
X102379819Y-34313690D02*
X102522676Y-34218452D01*
X102522676Y-34218452D02*
X102617914Y-34123214D01*
X102617914Y-34123214D02*
X102665533Y-34027976D01*
X179579819Y-32123214D02*
X178579819Y-32123214D01*
X178579819Y-32123214D02*
X178579819Y-32361309D01*
X178579819Y-32361309D02*
X178627438Y-32504166D01*
X178627438Y-32504166D02*
X178722676Y-32599404D01*
X178722676Y-32599404D02*
X178817914Y-32647023D01*
X178817914Y-32647023D02*
X179008390Y-32694642D01*
X179008390Y-32694642D02*
X179151247Y-32694642D01*
X179151247Y-32694642D02*
X179341723Y-32647023D01*
X179341723Y-32647023D02*
X179436961Y-32599404D01*
X179436961Y-32599404D02*
X179532200Y-32504166D01*
X179532200Y-32504166D02*
X179579819Y-32361309D01*
X179579819Y-32361309D02*
X179579819Y-32123214D01*
X178579819Y-33027976D02*
X178579819Y-33647023D01*
X178579819Y-33647023D02*
X178960771Y-33313690D01*
X178960771Y-33313690D02*
X178960771Y-33456547D01*
X178960771Y-33456547D02*
X179008390Y-33551785D01*
X179008390Y-33551785D02*
X179056009Y-33599404D01*
X179056009Y-33599404D02*
X179151247Y-33647023D01*
X179151247Y-33647023D02*
X179389342Y-33647023D01*
X179389342Y-33647023D02*
X179484580Y-33599404D01*
X179484580Y-33599404D02*
X179532200Y-33551785D01*
X179532200Y-33551785D02*
X179579819Y-33456547D01*
X179579819Y-33456547D02*
X179579819Y-33170833D01*
X179579819Y-33170833D02*
X179532200Y-33075595D01*
X179532200Y-33075595D02*
X179484580Y-33027976D01*
X178579819Y-33980357D02*
X178579819Y-34647023D01*
X178579819Y-34647023D02*
X179579819Y-34218452D01*
X127192319Y-89273214D02*
X126192319Y-89273214D01*
X126192319Y-89273214D02*
X126192319Y-89511309D01*
X126192319Y-89511309D02*
X126239938Y-89654166D01*
X126239938Y-89654166D02*
X126335176Y-89749404D01*
X126335176Y-89749404D02*
X126430414Y-89797023D01*
X126430414Y-89797023D02*
X126620890Y-89844642D01*
X126620890Y-89844642D02*
X126763747Y-89844642D01*
X126763747Y-89844642D02*
X126954223Y-89797023D01*
X126954223Y-89797023D02*
X127049461Y-89749404D01*
X127049461Y-89749404D02*
X127144700Y-89654166D01*
X127144700Y-89654166D02*
X127192319Y-89511309D01*
X127192319Y-89511309D02*
X127192319Y-89273214D01*
X126287557Y-90225595D02*
X126239938Y-90273214D01*
X126239938Y-90273214D02*
X126192319Y-90368452D01*
X126192319Y-90368452D02*
X126192319Y-90606547D01*
X126192319Y-90606547D02*
X126239938Y-90701785D01*
X126239938Y-90701785D02*
X126287557Y-90749404D01*
X126287557Y-90749404D02*
X126382795Y-90797023D01*
X126382795Y-90797023D02*
X126478033Y-90797023D01*
X126478033Y-90797023D02*
X126620890Y-90749404D01*
X126620890Y-90749404D02*
X127192319Y-90177976D01*
X127192319Y-90177976D02*
X127192319Y-90797023D01*
X126525652Y-91654166D02*
X127192319Y-91654166D01*
X126144700Y-91416071D02*
X126858985Y-91177976D01*
X126858985Y-91177976D02*
X126858985Y-91797023D01*
X49933333Y-29254819D02*
X49933333Y-29969104D01*
X49933333Y-29969104D02*
X49980952Y-30111961D01*
X49980952Y-30111961D02*
X50076190Y-30207200D01*
X50076190Y-30207200D02*
X50219047Y-30254819D01*
X50219047Y-30254819D02*
X50314285Y-30254819D01*
X48933333Y-30254819D02*
X49504761Y-30254819D01*
X49219047Y-30254819D02*
X49219047Y-29254819D01*
X49219047Y-29254819D02*
X49314285Y-29397676D01*
X49314285Y-29397676D02*
X49409523Y-29492914D01*
X49409523Y-29492914D02*
X49504761Y-29540533D01*
X47665005Y-59929304D02*
X47732349Y-59929304D01*
X47732349Y-59929304D02*
X47867036Y-59861960D01*
X47867036Y-59861960D02*
X47934379Y-59794617D01*
X47934379Y-59794617D02*
X48001723Y-59659930D01*
X48001723Y-59659930D02*
X48001723Y-59525243D01*
X48001723Y-59525243D02*
X47968051Y-59424228D01*
X47968051Y-59424228D02*
X47867036Y-59255869D01*
X47867036Y-59255869D02*
X47766021Y-59154854D01*
X47766021Y-59154854D02*
X47597662Y-59053838D01*
X47597662Y-59053838D02*
X47496647Y-59020167D01*
X47496647Y-59020167D02*
X47361960Y-59020167D01*
X47361960Y-59020167D02*
X47227273Y-59087510D01*
X47227273Y-59087510D02*
X47159929Y-59154854D01*
X47159929Y-59154854D02*
X47092586Y-59289541D01*
X47092586Y-59289541D02*
X47092586Y-59356884D01*
X46419151Y-59895632D02*
X46553838Y-59760945D01*
X46553838Y-59760945D02*
X46654853Y-59727273D01*
X46654853Y-59727273D02*
X46722196Y-59727273D01*
X46722196Y-59727273D02*
X46890555Y-59760945D01*
X46890555Y-59760945D02*
X47058914Y-59861960D01*
X47058914Y-59861960D02*
X47328288Y-60131334D01*
X47328288Y-60131334D02*
X47361960Y-60232350D01*
X47361960Y-60232350D02*
X47361960Y-60299693D01*
X47361960Y-60299693D02*
X47328288Y-60400708D01*
X47328288Y-60400708D02*
X47193601Y-60535395D01*
X47193601Y-60535395D02*
X47092586Y-60569067D01*
X47092586Y-60569067D02*
X47025242Y-60569067D01*
X47025242Y-60569067D02*
X46924227Y-60535395D01*
X46924227Y-60535395D02*
X46755868Y-60367037D01*
X46755868Y-60367037D02*
X46722196Y-60266021D01*
X46722196Y-60266021D02*
X46722196Y-60198678D01*
X46722196Y-60198678D02*
X46755868Y-60097663D01*
X46755868Y-60097663D02*
X46890555Y-59962976D01*
X46890555Y-59962976D02*
X46991570Y-59929304D01*
X46991570Y-59929304D02*
X47058914Y-59929304D01*
X47058914Y-59929304D02*
X47159929Y-59962976D01*
X335922916Y-32581069D02*
X336256249Y-32104878D01*
X336494344Y-32581069D02*
X336494344Y-31581069D01*
X336494344Y-31581069D02*
X336113392Y-31581069D01*
X336113392Y-31581069D02*
X336018154Y-31628688D01*
X336018154Y-31628688D02*
X335970535Y-31676307D01*
X335970535Y-31676307D02*
X335922916Y-31771545D01*
X335922916Y-31771545D02*
X335922916Y-31914402D01*
X335922916Y-31914402D02*
X335970535Y-32009640D01*
X335970535Y-32009640D02*
X336018154Y-32057259D01*
X336018154Y-32057259D02*
X336113392Y-32104878D01*
X336113392Y-32104878D02*
X336494344Y-32104878D01*
X335351487Y-32009640D02*
X335446725Y-31962021D01*
X335446725Y-31962021D02*
X335494344Y-31914402D01*
X335494344Y-31914402D02*
X335541963Y-31819164D01*
X335541963Y-31819164D02*
X335541963Y-31771545D01*
X335541963Y-31771545D02*
X335494344Y-31676307D01*
X335494344Y-31676307D02*
X335446725Y-31628688D01*
X335446725Y-31628688D02*
X335351487Y-31581069D01*
X335351487Y-31581069D02*
X335161011Y-31581069D01*
X335161011Y-31581069D02*
X335065773Y-31628688D01*
X335065773Y-31628688D02*
X335018154Y-31676307D01*
X335018154Y-31676307D02*
X334970535Y-31771545D01*
X334970535Y-31771545D02*
X334970535Y-31819164D01*
X334970535Y-31819164D02*
X335018154Y-31914402D01*
X335018154Y-31914402D02*
X335065773Y-31962021D01*
X335065773Y-31962021D02*
X335161011Y-32009640D01*
X335161011Y-32009640D02*
X335351487Y-32009640D01*
X335351487Y-32009640D02*
X335446725Y-32057259D01*
X335446725Y-32057259D02*
X335494344Y-32104878D01*
X335494344Y-32104878D02*
X335541963Y-32200116D01*
X335541963Y-32200116D02*
X335541963Y-32390592D01*
X335541963Y-32390592D02*
X335494344Y-32485830D01*
X335494344Y-32485830D02*
X335446725Y-32533450D01*
X335446725Y-32533450D02*
X335351487Y-32581069D01*
X335351487Y-32581069D02*
X335161011Y-32581069D01*
X335161011Y-32581069D02*
X335065773Y-32533450D01*
X335065773Y-32533450D02*
X335018154Y-32485830D01*
X335018154Y-32485830D02*
X334970535Y-32390592D01*
X334970535Y-32390592D02*
X334970535Y-32200116D01*
X334970535Y-32200116D02*
X335018154Y-32104878D01*
X335018154Y-32104878D02*
X335065773Y-32057259D01*
X335065773Y-32057259D02*
X335161011Y-32009640D01*
X82407200Y-62090476D02*
X82454819Y-62233333D01*
X82454819Y-62233333D02*
X82454819Y-62471428D01*
X82454819Y-62471428D02*
X82407200Y-62566666D01*
X82407200Y-62566666D02*
X82359580Y-62614285D01*
X82359580Y-62614285D02*
X82264342Y-62661904D01*
X82264342Y-62661904D02*
X82169104Y-62661904D01*
X82169104Y-62661904D02*
X82073866Y-62614285D01*
X82073866Y-62614285D02*
X82026247Y-62566666D01*
X82026247Y-62566666D02*
X81978628Y-62471428D01*
X81978628Y-62471428D02*
X81931009Y-62280952D01*
X81931009Y-62280952D02*
X81883390Y-62185714D01*
X81883390Y-62185714D02*
X81835771Y-62138095D01*
X81835771Y-62138095D02*
X81740533Y-62090476D01*
X81740533Y-62090476D02*
X81645295Y-62090476D01*
X81645295Y-62090476D02*
X81550057Y-62138095D01*
X81550057Y-62138095D02*
X81502438Y-62185714D01*
X81502438Y-62185714D02*
X81454819Y-62280952D01*
X81454819Y-62280952D02*
X81454819Y-62519047D01*
X81454819Y-62519047D02*
X81502438Y-62661904D01*
X81454819Y-62995238D02*
X82454819Y-63233333D01*
X82454819Y-63233333D02*
X81740533Y-63423809D01*
X81740533Y-63423809D02*
X82454819Y-63614285D01*
X82454819Y-63614285D02*
X81454819Y-63852381D01*
X81454819Y-64138095D02*
X81454819Y-64804761D01*
X81454819Y-64804761D02*
X82454819Y-64376190D01*
X81550057Y-65138095D02*
X81502438Y-65185714D01*
X81502438Y-65185714D02*
X81454819Y-65280952D01*
X81454819Y-65280952D02*
X81454819Y-65519047D01*
X81454819Y-65519047D02*
X81502438Y-65614285D01*
X81502438Y-65614285D02*
X81550057Y-65661904D01*
X81550057Y-65661904D02*
X81645295Y-65709523D01*
X81645295Y-65709523D02*
X81740533Y-65709523D01*
X81740533Y-65709523D02*
X81883390Y-65661904D01*
X81883390Y-65661904D02*
X82454819Y-65090476D01*
X82454819Y-65090476D02*
X82454819Y-65709523D01*
X155767319Y-70223214D02*
X154767319Y-70223214D01*
X154767319Y-70223214D02*
X154767319Y-70461309D01*
X154767319Y-70461309D02*
X154814938Y-70604166D01*
X154814938Y-70604166D02*
X154910176Y-70699404D01*
X154910176Y-70699404D02*
X155005414Y-70747023D01*
X155005414Y-70747023D02*
X155195890Y-70794642D01*
X155195890Y-70794642D02*
X155338747Y-70794642D01*
X155338747Y-70794642D02*
X155529223Y-70747023D01*
X155529223Y-70747023D02*
X155624461Y-70699404D01*
X155624461Y-70699404D02*
X155719700Y-70604166D01*
X155719700Y-70604166D02*
X155767319Y-70461309D01*
X155767319Y-70461309D02*
X155767319Y-70223214D01*
X154767319Y-71127976D02*
X154767319Y-71747023D01*
X154767319Y-71747023D02*
X155148271Y-71413690D01*
X155148271Y-71413690D02*
X155148271Y-71556547D01*
X155148271Y-71556547D02*
X155195890Y-71651785D01*
X155195890Y-71651785D02*
X155243509Y-71699404D01*
X155243509Y-71699404D02*
X155338747Y-71747023D01*
X155338747Y-71747023D02*
X155576842Y-71747023D01*
X155576842Y-71747023D02*
X155672080Y-71699404D01*
X155672080Y-71699404D02*
X155719700Y-71651785D01*
X155719700Y-71651785D02*
X155767319Y-71556547D01*
X155767319Y-71556547D02*
X155767319Y-71270833D01*
X155767319Y-71270833D02*
X155719700Y-71175595D01*
X155719700Y-71175595D02*
X155672080Y-71127976D01*
X155767319Y-72699404D02*
X155767319Y-72127976D01*
X155767319Y-72413690D02*
X154767319Y-72413690D01*
X154767319Y-72413690D02*
X154910176Y-72318452D01*
X154910176Y-72318452D02*
X155005414Y-72223214D01*
X155005414Y-72223214D02*
X155053033Y-72127976D01*
X117667319Y-70223214D02*
X116667319Y-70223214D01*
X116667319Y-70223214D02*
X116667319Y-70461309D01*
X116667319Y-70461309D02*
X116714938Y-70604166D01*
X116714938Y-70604166D02*
X116810176Y-70699404D01*
X116810176Y-70699404D02*
X116905414Y-70747023D01*
X116905414Y-70747023D02*
X117095890Y-70794642D01*
X117095890Y-70794642D02*
X117238747Y-70794642D01*
X117238747Y-70794642D02*
X117429223Y-70747023D01*
X117429223Y-70747023D02*
X117524461Y-70699404D01*
X117524461Y-70699404D02*
X117619700Y-70604166D01*
X117619700Y-70604166D02*
X117667319Y-70461309D01*
X117667319Y-70461309D02*
X117667319Y-70223214D01*
X116762557Y-71175595D02*
X116714938Y-71223214D01*
X116714938Y-71223214D02*
X116667319Y-71318452D01*
X116667319Y-71318452D02*
X116667319Y-71556547D01*
X116667319Y-71556547D02*
X116714938Y-71651785D01*
X116714938Y-71651785D02*
X116762557Y-71699404D01*
X116762557Y-71699404D02*
X116857795Y-71747023D01*
X116857795Y-71747023D02*
X116953033Y-71747023D01*
X116953033Y-71747023D02*
X117095890Y-71699404D01*
X117095890Y-71699404D02*
X117667319Y-71127976D01*
X117667319Y-71127976D02*
X117667319Y-71747023D01*
X116667319Y-72080357D02*
X116667319Y-72699404D01*
X116667319Y-72699404D02*
X117048271Y-72366071D01*
X117048271Y-72366071D02*
X117048271Y-72508928D01*
X117048271Y-72508928D02*
X117095890Y-72604166D01*
X117095890Y-72604166D02*
X117143509Y-72651785D01*
X117143509Y-72651785D02*
X117238747Y-72699404D01*
X117238747Y-72699404D02*
X117476842Y-72699404D01*
X117476842Y-72699404D02*
X117572080Y-72651785D01*
X117572080Y-72651785D02*
X117619700Y-72604166D01*
X117619700Y-72604166D02*
X117667319Y-72508928D01*
X117667319Y-72508928D02*
X117667319Y-72223214D01*
X117667319Y-72223214D02*
X117619700Y-72127976D01*
X117619700Y-72127976D02*
X117572080Y-72080357D01*
X36859580Y-61833333D02*
X36907200Y-61785714D01*
X36907200Y-61785714D02*
X36954819Y-61642857D01*
X36954819Y-61642857D02*
X36954819Y-61547619D01*
X36954819Y-61547619D02*
X36907200Y-61404762D01*
X36907200Y-61404762D02*
X36811961Y-61309524D01*
X36811961Y-61309524D02*
X36716723Y-61261905D01*
X36716723Y-61261905D02*
X36526247Y-61214286D01*
X36526247Y-61214286D02*
X36383390Y-61214286D01*
X36383390Y-61214286D02*
X36192914Y-61261905D01*
X36192914Y-61261905D02*
X36097676Y-61309524D01*
X36097676Y-61309524D02*
X36002438Y-61404762D01*
X36002438Y-61404762D02*
X35954819Y-61547619D01*
X35954819Y-61547619D02*
X35954819Y-61642857D01*
X35954819Y-61642857D02*
X36002438Y-61785714D01*
X36002438Y-61785714D02*
X36050057Y-61833333D01*
X35954819Y-62166667D02*
X35954819Y-62785714D01*
X35954819Y-62785714D02*
X36335771Y-62452381D01*
X36335771Y-62452381D02*
X36335771Y-62595238D01*
X36335771Y-62595238D02*
X36383390Y-62690476D01*
X36383390Y-62690476D02*
X36431009Y-62738095D01*
X36431009Y-62738095D02*
X36526247Y-62785714D01*
X36526247Y-62785714D02*
X36764342Y-62785714D01*
X36764342Y-62785714D02*
X36859580Y-62738095D01*
X36859580Y-62738095D02*
X36907200Y-62690476D01*
X36907200Y-62690476D02*
X36954819Y-62595238D01*
X36954819Y-62595238D02*
X36954819Y-62309524D01*
X36954819Y-62309524D02*
X36907200Y-62214286D01*
X36907200Y-62214286D02*
X36859580Y-62166667D01*
X52254819Y-52833333D02*
X51778628Y-52500000D01*
X52254819Y-52261905D02*
X51254819Y-52261905D01*
X51254819Y-52261905D02*
X51254819Y-52642857D01*
X51254819Y-52642857D02*
X51302438Y-52738095D01*
X51302438Y-52738095D02*
X51350057Y-52785714D01*
X51350057Y-52785714D02*
X51445295Y-52833333D01*
X51445295Y-52833333D02*
X51588152Y-52833333D01*
X51588152Y-52833333D02*
X51683390Y-52785714D01*
X51683390Y-52785714D02*
X51731009Y-52738095D01*
X51731009Y-52738095D02*
X51778628Y-52642857D01*
X51778628Y-52642857D02*
X51778628Y-52261905D01*
X51350057Y-53214286D02*
X51302438Y-53261905D01*
X51302438Y-53261905D02*
X51254819Y-53357143D01*
X51254819Y-53357143D02*
X51254819Y-53595238D01*
X51254819Y-53595238D02*
X51302438Y-53690476D01*
X51302438Y-53690476D02*
X51350057Y-53738095D01*
X51350057Y-53738095D02*
X51445295Y-53785714D01*
X51445295Y-53785714D02*
X51540533Y-53785714D01*
X51540533Y-53785714D02*
X51683390Y-53738095D01*
X51683390Y-53738095D02*
X52254819Y-53166667D01*
X52254819Y-53166667D02*
X52254819Y-53785714D01*
X284354819Y-51173214D02*
X283354819Y-51173214D01*
X283354819Y-51173214D02*
X283354819Y-51411309D01*
X283354819Y-51411309D02*
X283402438Y-51554166D01*
X283402438Y-51554166D02*
X283497676Y-51649404D01*
X283497676Y-51649404D02*
X283592914Y-51697023D01*
X283592914Y-51697023D02*
X283783390Y-51744642D01*
X283783390Y-51744642D02*
X283926247Y-51744642D01*
X283926247Y-51744642D02*
X284116723Y-51697023D01*
X284116723Y-51697023D02*
X284211961Y-51649404D01*
X284211961Y-51649404D02*
X284307200Y-51554166D01*
X284307200Y-51554166D02*
X284354819Y-51411309D01*
X284354819Y-51411309D02*
X284354819Y-51173214D01*
X283354819Y-52649404D02*
X283354819Y-52173214D01*
X283354819Y-52173214D02*
X283831009Y-52125595D01*
X283831009Y-52125595D02*
X283783390Y-52173214D01*
X283783390Y-52173214D02*
X283735771Y-52268452D01*
X283735771Y-52268452D02*
X283735771Y-52506547D01*
X283735771Y-52506547D02*
X283783390Y-52601785D01*
X283783390Y-52601785D02*
X283831009Y-52649404D01*
X283831009Y-52649404D02*
X283926247Y-52697023D01*
X283926247Y-52697023D02*
X284164342Y-52697023D01*
X284164342Y-52697023D02*
X284259580Y-52649404D01*
X284259580Y-52649404D02*
X284307200Y-52601785D01*
X284307200Y-52601785D02*
X284354819Y-52506547D01*
X284354819Y-52506547D02*
X284354819Y-52268452D01*
X284354819Y-52268452D02*
X284307200Y-52173214D01*
X284307200Y-52173214D02*
X284259580Y-52125595D01*
X283783390Y-53268452D02*
X283735771Y-53173214D01*
X283735771Y-53173214D02*
X283688152Y-53125595D01*
X283688152Y-53125595D02*
X283592914Y-53077976D01*
X283592914Y-53077976D02*
X283545295Y-53077976D01*
X283545295Y-53077976D02*
X283450057Y-53125595D01*
X283450057Y-53125595D02*
X283402438Y-53173214D01*
X283402438Y-53173214D02*
X283354819Y-53268452D01*
X283354819Y-53268452D02*
X283354819Y-53458928D01*
X283354819Y-53458928D02*
X283402438Y-53554166D01*
X283402438Y-53554166D02*
X283450057Y-53601785D01*
X283450057Y-53601785D02*
X283545295Y-53649404D01*
X283545295Y-53649404D02*
X283592914Y-53649404D01*
X283592914Y-53649404D02*
X283688152Y-53601785D01*
X283688152Y-53601785D02*
X283735771Y-53554166D01*
X283735771Y-53554166D02*
X283783390Y-53458928D01*
X283783390Y-53458928D02*
X283783390Y-53268452D01*
X283783390Y-53268452D02*
X283831009Y-53173214D01*
X283831009Y-53173214D02*
X283878628Y-53125595D01*
X283878628Y-53125595D02*
X283973866Y-53077976D01*
X283973866Y-53077976D02*
X284164342Y-53077976D01*
X284164342Y-53077976D02*
X284259580Y-53125595D01*
X284259580Y-53125595D02*
X284307200Y-53173214D01*
X284307200Y-53173214D02*
X284354819Y-53268452D01*
X284354819Y-53268452D02*
X284354819Y-53458928D01*
X284354819Y-53458928D02*
X284307200Y-53554166D01*
X284307200Y-53554166D02*
X284259580Y-53601785D01*
X284259580Y-53601785D02*
X284164342Y-53649404D01*
X284164342Y-53649404D02*
X283973866Y-53649404D01*
X283973866Y-53649404D02*
X283878628Y-53601785D01*
X283878628Y-53601785D02*
X283831009Y-53554166D01*
X283831009Y-53554166D02*
X283783390Y-53458928D01*
X170054819Y-51173214D02*
X169054819Y-51173214D01*
X169054819Y-51173214D02*
X169054819Y-51411309D01*
X169054819Y-51411309D02*
X169102438Y-51554166D01*
X169102438Y-51554166D02*
X169197676Y-51649404D01*
X169197676Y-51649404D02*
X169292914Y-51697023D01*
X169292914Y-51697023D02*
X169483390Y-51744642D01*
X169483390Y-51744642D02*
X169626247Y-51744642D01*
X169626247Y-51744642D02*
X169816723Y-51697023D01*
X169816723Y-51697023D02*
X169911961Y-51649404D01*
X169911961Y-51649404D02*
X170007200Y-51554166D01*
X170007200Y-51554166D02*
X170054819Y-51411309D01*
X170054819Y-51411309D02*
X170054819Y-51173214D01*
X169054819Y-52077976D02*
X169054819Y-52697023D01*
X169054819Y-52697023D02*
X169435771Y-52363690D01*
X169435771Y-52363690D02*
X169435771Y-52506547D01*
X169435771Y-52506547D02*
X169483390Y-52601785D01*
X169483390Y-52601785D02*
X169531009Y-52649404D01*
X169531009Y-52649404D02*
X169626247Y-52697023D01*
X169626247Y-52697023D02*
X169864342Y-52697023D01*
X169864342Y-52697023D02*
X169959580Y-52649404D01*
X169959580Y-52649404D02*
X170007200Y-52601785D01*
X170007200Y-52601785D02*
X170054819Y-52506547D01*
X170054819Y-52506547D02*
X170054819Y-52220833D01*
X170054819Y-52220833D02*
X170007200Y-52125595D01*
X170007200Y-52125595D02*
X169959580Y-52077976D01*
X169054819Y-53316071D02*
X169054819Y-53411309D01*
X169054819Y-53411309D02*
X169102438Y-53506547D01*
X169102438Y-53506547D02*
X169150057Y-53554166D01*
X169150057Y-53554166D02*
X169245295Y-53601785D01*
X169245295Y-53601785D02*
X169435771Y-53649404D01*
X169435771Y-53649404D02*
X169673866Y-53649404D01*
X169673866Y-53649404D02*
X169864342Y-53601785D01*
X169864342Y-53601785D02*
X169959580Y-53554166D01*
X169959580Y-53554166D02*
X170007200Y-53506547D01*
X170007200Y-53506547D02*
X170054819Y-53411309D01*
X170054819Y-53411309D02*
X170054819Y-53316071D01*
X170054819Y-53316071D02*
X170007200Y-53220833D01*
X170007200Y-53220833D02*
X169959580Y-53173214D01*
X169959580Y-53173214D02*
X169864342Y-53125595D01*
X169864342Y-53125595D02*
X169673866Y-53077976D01*
X169673866Y-53077976D02*
X169435771Y-53077976D01*
X169435771Y-53077976D02*
X169245295Y-53125595D01*
X169245295Y-53125595D02*
X169150057Y-53173214D01*
X169150057Y-53173214D02*
X169102438Y-53220833D01*
X169102438Y-53220833D02*
X169054819Y-53316071D01*
X255779819Y-108323214D02*
X254779819Y-108323214D01*
X254779819Y-108323214D02*
X254779819Y-108561309D01*
X254779819Y-108561309D02*
X254827438Y-108704166D01*
X254827438Y-108704166D02*
X254922676Y-108799404D01*
X254922676Y-108799404D02*
X255017914Y-108847023D01*
X255017914Y-108847023D02*
X255208390Y-108894642D01*
X255208390Y-108894642D02*
X255351247Y-108894642D01*
X255351247Y-108894642D02*
X255541723Y-108847023D01*
X255541723Y-108847023D02*
X255636961Y-108799404D01*
X255636961Y-108799404D02*
X255732200Y-108704166D01*
X255732200Y-108704166D02*
X255779819Y-108561309D01*
X255779819Y-108561309D02*
X255779819Y-108323214D01*
X254779819Y-109799404D02*
X254779819Y-109323214D01*
X254779819Y-109323214D02*
X255256009Y-109275595D01*
X255256009Y-109275595D02*
X255208390Y-109323214D01*
X255208390Y-109323214D02*
X255160771Y-109418452D01*
X255160771Y-109418452D02*
X255160771Y-109656547D01*
X255160771Y-109656547D02*
X255208390Y-109751785D01*
X255208390Y-109751785D02*
X255256009Y-109799404D01*
X255256009Y-109799404D02*
X255351247Y-109847023D01*
X255351247Y-109847023D02*
X255589342Y-109847023D01*
X255589342Y-109847023D02*
X255684580Y-109799404D01*
X255684580Y-109799404D02*
X255732200Y-109751785D01*
X255732200Y-109751785D02*
X255779819Y-109656547D01*
X255779819Y-109656547D02*
X255779819Y-109418452D01*
X255779819Y-109418452D02*
X255732200Y-109323214D01*
X255732200Y-109323214D02*
X255684580Y-109275595D01*
X255779819Y-110799404D02*
X255779819Y-110227976D01*
X255779819Y-110513690D02*
X254779819Y-110513690D01*
X254779819Y-110513690D02*
X254922676Y-110418452D01*
X254922676Y-110418452D02*
X255017914Y-110323214D01*
X255017914Y-110323214D02*
X255065533Y-110227976D01*
X49912807Y-71835545D02*
X49912807Y-71902889D01*
X49912807Y-71902889D02*
X49980151Y-72037576D01*
X49980151Y-72037576D02*
X50047494Y-72104919D01*
X50047494Y-72104919D02*
X50182181Y-72172263D01*
X50182181Y-72172263D02*
X50316868Y-72172263D01*
X50316868Y-72172263D02*
X50417883Y-72138591D01*
X50417883Y-72138591D02*
X50586242Y-72037576D01*
X50586242Y-72037576D02*
X50687257Y-71936561D01*
X50687257Y-71936561D02*
X50788273Y-71768202D01*
X50788273Y-71768202D02*
X50821944Y-71667187D01*
X50821944Y-71667187D02*
X50821944Y-71532500D01*
X50821944Y-71532500D02*
X50754601Y-71397813D01*
X50754601Y-71397813D02*
X50687257Y-71330469D01*
X50687257Y-71330469D02*
X50552570Y-71263126D01*
X50552570Y-71263126D02*
X50485227Y-71263126D01*
X49912807Y-70556019D02*
X50249525Y-70892736D01*
X50249525Y-70892736D02*
X49946479Y-71263126D01*
X49946479Y-71263126D02*
X49946479Y-71195782D01*
X49946479Y-71195782D02*
X49912807Y-71094767D01*
X49912807Y-71094767D02*
X49744448Y-70926408D01*
X49744448Y-70926408D02*
X49643433Y-70892736D01*
X49643433Y-70892736D02*
X49576090Y-70892736D01*
X49576090Y-70892736D02*
X49475074Y-70926408D01*
X49475074Y-70926408D02*
X49306716Y-71094767D01*
X49306716Y-71094767D02*
X49273044Y-71195782D01*
X49273044Y-71195782D02*
X49273044Y-71263126D01*
X49273044Y-71263126D02*
X49306716Y-71364141D01*
X49306716Y-71364141D02*
X49475074Y-71532500D01*
X49475074Y-71532500D02*
X49576090Y-71566171D01*
X49576090Y-71566171D02*
X49643433Y-71566171D01*
X74371428Y-61284819D02*
X74942856Y-61284819D01*
X74657142Y-61284819D02*
X74657142Y-60284819D01*
X74657142Y-60284819D02*
X74752380Y-60427676D01*
X74752380Y-60427676D02*
X74847618Y-60522914D01*
X74847618Y-60522914D02*
X74942856Y-60570533D01*
X73752380Y-60284819D02*
X73657142Y-60284819D01*
X73657142Y-60284819D02*
X73561904Y-60332438D01*
X73561904Y-60332438D02*
X73514285Y-60380057D01*
X73514285Y-60380057D02*
X73466666Y-60475295D01*
X73466666Y-60475295D02*
X73419047Y-60665771D01*
X73419047Y-60665771D02*
X73419047Y-60903866D01*
X73419047Y-60903866D02*
X73466666Y-61094342D01*
X73466666Y-61094342D02*
X73514285Y-61189580D01*
X73514285Y-61189580D02*
X73561904Y-61237200D01*
X73561904Y-61237200D02*
X73657142Y-61284819D01*
X73657142Y-61284819D02*
X73752380Y-61284819D01*
X73752380Y-61284819D02*
X73847618Y-61237200D01*
X73847618Y-61237200D02*
X73895237Y-61189580D01*
X73895237Y-61189580D02*
X73942856Y-61094342D01*
X73942856Y-61094342D02*
X73990475Y-60903866D01*
X73990475Y-60903866D02*
X73990475Y-60665771D01*
X73990475Y-60665771D02*
X73942856Y-60475295D01*
X73942856Y-60475295D02*
X73895237Y-60380057D01*
X73895237Y-60380057D02*
X73847618Y-60332438D01*
X73847618Y-60332438D02*
X73752380Y-60284819D01*
X72990475Y-61284819D02*
X72990475Y-60284819D01*
X72895237Y-60903866D02*
X72609523Y-61284819D01*
X72609523Y-60618152D02*
X72990475Y-60999104D01*
X71657142Y-61284819D02*
X72228570Y-61284819D01*
X71942856Y-61284819D02*
X71942856Y-60284819D01*
X71942856Y-60284819D02*
X72038094Y-60427676D01*
X72038094Y-60427676D02*
X72133332Y-60522914D01*
X72133332Y-60522914D02*
X72228570Y-60570533D01*
X98617319Y-70223214D02*
X97617319Y-70223214D01*
X97617319Y-70223214D02*
X97617319Y-70461309D01*
X97617319Y-70461309D02*
X97664938Y-70604166D01*
X97664938Y-70604166D02*
X97760176Y-70699404D01*
X97760176Y-70699404D02*
X97855414Y-70747023D01*
X97855414Y-70747023D02*
X98045890Y-70794642D01*
X98045890Y-70794642D02*
X98188747Y-70794642D01*
X98188747Y-70794642D02*
X98379223Y-70747023D01*
X98379223Y-70747023D02*
X98474461Y-70699404D01*
X98474461Y-70699404D02*
X98569700Y-70604166D01*
X98569700Y-70604166D02*
X98617319Y-70461309D01*
X98617319Y-70461309D02*
X98617319Y-70223214D01*
X98617319Y-71747023D02*
X98617319Y-71175595D01*
X98617319Y-71461309D02*
X97617319Y-71461309D01*
X97617319Y-71461309D02*
X97760176Y-71366071D01*
X97760176Y-71366071D02*
X97855414Y-71270833D01*
X97855414Y-71270833D02*
X97903033Y-71175595D01*
X98045890Y-72318452D02*
X97998271Y-72223214D01*
X97998271Y-72223214D02*
X97950652Y-72175595D01*
X97950652Y-72175595D02*
X97855414Y-72127976D01*
X97855414Y-72127976D02*
X97807795Y-72127976D01*
X97807795Y-72127976D02*
X97712557Y-72175595D01*
X97712557Y-72175595D02*
X97664938Y-72223214D01*
X97664938Y-72223214D02*
X97617319Y-72318452D01*
X97617319Y-72318452D02*
X97617319Y-72508928D01*
X97617319Y-72508928D02*
X97664938Y-72604166D01*
X97664938Y-72604166D02*
X97712557Y-72651785D01*
X97712557Y-72651785D02*
X97807795Y-72699404D01*
X97807795Y-72699404D02*
X97855414Y-72699404D01*
X97855414Y-72699404D02*
X97950652Y-72651785D01*
X97950652Y-72651785D02*
X97998271Y-72604166D01*
X97998271Y-72604166D02*
X98045890Y-72508928D01*
X98045890Y-72508928D02*
X98045890Y-72318452D01*
X98045890Y-72318452D02*
X98093509Y-72223214D01*
X98093509Y-72223214D02*
X98141128Y-72175595D01*
X98141128Y-72175595D02*
X98236366Y-72127976D01*
X98236366Y-72127976D02*
X98426842Y-72127976D01*
X98426842Y-72127976D02*
X98522080Y-72175595D01*
X98522080Y-72175595D02*
X98569700Y-72223214D01*
X98569700Y-72223214D02*
X98617319Y-72318452D01*
X98617319Y-72318452D02*
X98617319Y-72508928D01*
X98617319Y-72508928D02*
X98569700Y-72604166D01*
X98569700Y-72604166D02*
X98522080Y-72651785D01*
X98522080Y-72651785D02*
X98426842Y-72699404D01*
X98426842Y-72699404D02*
X98236366Y-72699404D01*
X98236366Y-72699404D02*
X98141128Y-72651785D01*
X98141128Y-72651785D02*
X98093509Y-72604166D01*
X98093509Y-72604166D02*
X98045890Y-72508928D01*
X33154819Y-70761905D02*
X32154819Y-70761905D01*
X32154819Y-70761905D02*
X32154819Y-71000000D01*
X32154819Y-71000000D02*
X32202438Y-71142857D01*
X32202438Y-71142857D02*
X32297676Y-71238095D01*
X32297676Y-71238095D02*
X32392914Y-71285714D01*
X32392914Y-71285714D02*
X32583390Y-71333333D01*
X32583390Y-71333333D02*
X32726247Y-71333333D01*
X32726247Y-71333333D02*
X32916723Y-71285714D01*
X32916723Y-71285714D02*
X33011961Y-71238095D01*
X33011961Y-71238095D02*
X33107200Y-71142857D01*
X33107200Y-71142857D02*
X33154819Y-71000000D01*
X33154819Y-71000000D02*
X33154819Y-70761905D01*
X32154819Y-71666667D02*
X32154819Y-72285714D01*
X32154819Y-72285714D02*
X32535771Y-71952381D01*
X32535771Y-71952381D02*
X32535771Y-72095238D01*
X32535771Y-72095238D02*
X32583390Y-72190476D01*
X32583390Y-72190476D02*
X32631009Y-72238095D01*
X32631009Y-72238095D02*
X32726247Y-72285714D01*
X32726247Y-72285714D02*
X32964342Y-72285714D01*
X32964342Y-72285714D02*
X33059580Y-72238095D01*
X33059580Y-72238095D02*
X33107200Y-72190476D01*
X33107200Y-72190476D02*
X33154819Y-72095238D01*
X33154819Y-72095238D02*
X33154819Y-71809524D01*
X33154819Y-71809524D02*
X33107200Y-71714286D01*
X33107200Y-71714286D02*
X33059580Y-71666667D01*
X340685416Y-39766069D02*
X341018749Y-39289878D01*
X341256844Y-39766069D02*
X341256844Y-38766069D01*
X341256844Y-38766069D02*
X340875892Y-38766069D01*
X340875892Y-38766069D02*
X340780654Y-38813688D01*
X340780654Y-38813688D02*
X340733035Y-38861307D01*
X340733035Y-38861307D02*
X340685416Y-38956545D01*
X340685416Y-38956545D02*
X340685416Y-39099402D01*
X340685416Y-39099402D02*
X340733035Y-39194640D01*
X340733035Y-39194640D02*
X340780654Y-39242259D01*
X340780654Y-39242259D02*
X340875892Y-39289878D01*
X340875892Y-39289878D02*
X341256844Y-39289878D01*
X340352082Y-38766069D02*
X339685416Y-38766069D01*
X339685416Y-38766069D02*
X340113987Y-39766069D01*
X251017319Y-70223214D02*
X250017319Y-70223214D01*
X250017319Y-70223214D02*
X250017319Y-70461309D01*
X250017319Y-70461309D02*
X250064938Y-70604166D01*
X250064938Y-70604166D02*
X250160176Y-70699404D01*
X250160176Y-70699404D02*
X250255414Y-70747023D01*
X250255414Y-70747023D02*
X250445890Y-70794642D01*
X250445890Y-70794642D02*
X250588747Y-70794642D01*
X250588747Y-70794642D02*
X250779223Y-70747023D01*
X250779223Y-70747023D02*
X250874461Y-70699404D01*
X250874461Y-70699404D02*
X250969700Y-70604166D01*
X250969700Y-70604166D02*
X251017319Y-70461309D01*
X251017319Y-70461309D02*
X251017319Y-70223214D01*
X250017319Y-71699404D02*
X250017319Y-71223214D01*
X250017319Y-71223214D02*
X250493509Y-71175595D01*
X250493509Y-71175595D02*
X250445890Y-71223214D01*
X250445890Y-71223214D02*
X250398271Y-71318452D01*
X250398271Y-71318452D02*
X250398271Y-71556547D01*
X250398271Y-71556547D02*
X250445890Y-71651785D01*
X250445890Y-71651785D02*
X250493509Y-71699404D01*
X250493509Y-71699404D02*
X250588747Y-71747023D01*
X250588747Y-71747023D02*
X250826842Y-71747023D01*
X250826842Y-71747023D02*
X250922080Y-71699404D01*
X250922080Y-71699404D02*
X250969700Y-71651785D01*
X250969700Y-71651785D02*
X251017319Y-71556547D01*
X251017319Y-71556547D02*
X251017319Y-71318452D01*
X251017319Y-71318452D02*
X250969700Y-71223214D01*
X250969700Y-71223214D02*
X250922080Y-71175595D01*
X250350652Y-72604166D02*
X251017319Y-72604166D01*
X249969700Y-72366071D02*
X250683985Y-72127976D01*
X250683985Y-72127976D02*
X250683985Y-72747023D01*
X70004819Y-88461905D02*
X69004819Y-88461905D01*
X69004819Y-88461905D02*
X69004819Y-88700000D01*
X69004819Y-88700000D02*
X69052438Y-88842857D01*
X69052438Y-88842857D02*
X69147676Y-88938095D01*
X69147676Y-88938095D02*
X69242914Y-88985714D01*
X69242914Y-88985714D02*
X69433390Y-89033333D01*
X69433390Y-89033333D02*
X69576247Y-89033333D01*
X69576247Y-89033333D02*
X69766723Y-88985714D01*
X69766723Y-88985714D02*
X69861961Y-88938095D01*
X69861961Y-88938095D02*
X69957200Y-88842857D01*
X69957200Y-88842857D02*
X70004819Y-88700000D01*
X70004819Y-88700000D02*
X70004819Y-88461905D01*
X70004819Y-89509524D02*
X70004819Y-89700000D01*
X70004819Y-89700000D02*
X69957200Y-89795238D01*
X69957200Y-89795238D02*
X69909580Y-89842857D01*
X69909580Y-89842857D02*
X69766723Y-89938095D01*
X69766723Y-89938095D02*
X69576247Y-89985714D01*
X69576247Y-89985714D02*
X69195295Y-89985714D01*
X69195295Y-89985714D02*
X69100057Y-89938095D01*
X69100057Y-89938095D02*
X69052438Y-89890476D01*
X69052438Y-89890476D02*
X69004819Y-89795238D01*
X69004819Y-89795238D02*
X69004819Y-89604762D01*
X69004819Y-89604762D02*
X69052438Y-89509524D01*
X69052438Y-89509524D02*
X69100057Y-89461905D01*
X69100057Y-89461905D02*
X69195295Y-89414286D01*
X69195295Y-89414286D02*
X69433390Y-89414286D01*
X69433390Y-89414286D02*
X69528628Y-89461905D01*
X69528628Y-89461905D02*
X69576247Y-89509524D01*
X69576247Y-89509524D02*
X69623866Y-89604762D01*
X69623866Y-89604762D02*
X69623866Y-89795238D01*
X69623866Y-89795238D02*
X69576247Y-89890476D01*
X69576247Y-89890476D02*
X69528628Y-89938095D01*
X69528628Y-89938095D02*
X69433390Y-89985714D01*
X231967319Y-70223214D02*
X230967319Y-70223214D01*
X230967319Y-70223214D02*
X230967319Y-70461309D01*
X230967319Y-70461309D02*
X231014938Y-70604166D01*
X231014938Y-70604166D02*
X231110176Y-70699404D01*
X231110176Y-70699404D02*
X231205414Y-70747023D01*
X231205414Y-70747023D02*
X231395890Y-70794642D01*
X231395890Y-70794642D02*
X231538747Y-70794642D01*
X231538747Y-70794642D02*
X231729223Y-70747023D01*
X231729223Y-70747023D02*
X231824461Y-70699404D01*
X231824461Y-70699404D02*
X231919700Y-70604166D01*
X231919700Y-70604166D02*
X231967319Y-70461309D01*
X231967319Y-70461309D02*
X231967319Y-70223214D01*
X231300652Y-71651785D02*
X231967319Y-71651785D01*
X230919700Y-71413690D02*
X231633985Y-71175595D01*
X231633985Y-71175595D02*
X231633985Y-71794642D01*
X231967319Y-72223214D02*
X231967319Y-72413690D01*
X231967319Y-72413690D02*
X231919700Y-72508928D01*
X231919700Y-72508928D02*
X231872080Y-72556547D01*
X231872080Y-72556547D02*
X231729223Y-72651785D01*
X231729223Y-72651785D02*
X231538747Y-72699404D01*
X231538747Y-72699404D02*
X231157795Y-72699404D01*
X231157795Y-72699404D02*
X231062557Y-72651785D01*
X231062557Y-72651785D02*
X231014938Y-72604166D01*
X231014938Y-72604166D02*
X230967319Y-72508928D01*
X230967319Y-72508928D02*
X230967319Y-72318452D01*
X230967319Y-72318452D02*
X231014938Y-72223214D01*
X231014938Y-72223214D02*
X231062557Y-72175595D01*
X231062557Y-72175595D02*
X231157795Y-72127976D01*
X231157795Y-72127976D02*
X231395890Y-72127976D01*
X231395890Y-72127976D02*
X231491128Y-72175595D01*
X231491128Y-72175595D02*
X231538747Y-72223214D01*
X231538747Y-72223214D02*
X231586366Y-72318452D01*
X231586366Y-72318452D02*
X231586366Y-72508928D01*
X231586366Y-72508928D02*
X231538747Y-72604166D01*
X231538747Y-72604166D02*
X231491128Y-72651785D01*
X231491128Y-72651785D02*
X231395890Y-72699404D01*
X331979819Y-108323214D02*
X330979819Y-108323214D01*
X330979819Y-108323214D02*
X330979819Y-108561309D01*
X330979819Y-108561309D02*
X331027438Y-108704166D01*
X331027438Y-108704166D02*
X331122676Y-108799404D01*
X331122676Y-108799404D02*
X331217914Y-108847023D01*
X331217914Y-108847023D02*
X331408390Y-108894642D01*
X331408390Y-108894642D02*
X331551247Y-108894642D01*
X331551247Y-108894642D02*
X331741723Y-108847023D01*
X331741723Y-108847023D02*
X331836961Y-108799404D01*
X331836961Y-108799404D02*
X331932200Y-108704166D01*
X331932200Y-108704166D02*
X331979819Y-108561309D01*
X331979819Y-108561309D02*
X331979819Y-108323214D01*
X330979819Y-109751785D02*
X330979819Y-109561309D01*
X330979819Y-109561309D02*
X331027438Y-109466071D01*
X331027438Y-109466071D02*
X331075057Y-109418452D01*
X331075057Y-109418452D02*
X331217914Y-109323214D01*
X331217914Y-109323214D02*
X331408390Y-109275595D01*
X331408390Y-109275595D02*
X331789342Y-109275595D01*
X331789342Y-109275595D02*
X331884580Y-109323214D01*
X331884580Y-109323214D02*
X331932200Y-109370833D01*
X331932200Y-109370833D02*
X331979819Y-109466071D01*
X331979819Y-109466071D02*
X331979819Y-109656547D01*
X331979819Y-109656547D02*
X331932200Y-109751785D01*
X331932200Y-109751785D02*
X331884580Y-109799404D01*
X331884580Y-109799404D02*
X331789342Y-109847023D01*
X331789342Y-109847023D02*
X331551247Y-109847023D01*
X331551247Y-109847023D02*
X331456009Y-109799404D01*
X331456009Y-109799404D02*
X331408390Y-109751785D01*
X331408390Y-109751785D02*
X331360771Y-109656547D01*
X331360771Y-109656547D02*
X331360771Y-109466071D01*
X331360771Y-109466071D02*
X331408390Y-109370833D01*
X331408390Y-109370833D02*
X331456009Y-109323214D01*
X331456009Y-109323214D02*
X331551247Y-109275595D01*
X331979819Y-110323214D02*
X331979819Y-110513690D01*
X331979819Y-110513690D02*
X331932200Y-110608928D01*
X331932200Y-110608928D02*
X331884580Y-110656547D01*
X331884580Y-110656547D02*
X331741723Y-110751785D01*
X331741723Y-110751785D02*
X331551247Y-110799404D01*
X331551247Y-110799404D02*
X331170295Y-110799404D01*
X331170295Y-110799404D02*
X331075057Y-110751785D01*
X331075057Y-110751785D02*
X331027438Y-110704166D01*
X331027438Y-110704166D02*
X330979819Y-110608928D01*
X330979819Y-110608928D02*
X330979819Y-110418452D01*
X330979819Y-110418452D02*
X331027438Y-110323214D01*
X331027438Y-110323214D02*
X331075057Y-110275595D01*
X331075057Y-110275595D02*
X331170295Y-110227976D01*
X331170295Y-110227976D02*
X331408390Y-110227976D01*
X331408390Y-110227976D02*
X331503628Y-110275595D01*
X331503628Y-110275595D02*
X331551247Y-110323214D01*
X331551247Y-110323214D02*
X331598866Y-110418452D01*
X331598866Y-110418452D02*
X331598866Y-110608928D01*
X331598866Y-110608928D02*
X331551247Y-110704166D01*
X331551247Y-110704166D02*
X331503628Y-110751785D01*
X331503628Y-110751785D02*
X331408390Y-110799404D01*
X136717319Y-70223214D02*
X135717319Y-70223214D01*
X135717319Y-70223214D02*
X135717319Y-70461309D01*
X135717319Y-70461309D02*
X135764938Y-70604166D01*
X135764938Y-70604166D02*
X135860176Y-70699404D01*
X135860176Y-70699404D02*
X135955414Y-70747023D01*
X135955414Y-70747023D02*
X136145890Y-70794642D01*
X136145890Y-70794642D02*
X136288747Y-70794642D01*
X136288747Y-70794642D02*
X136479223Y-70747023D01*
X136479223Y-70747023D02*
X136574461Y-70699404D01*
X136574461Y-70699404D02*
X136669700Y-70604166D01*
X136669700Y-70604166D02*
X136717319Y-70461309D01*
X136717319Y-70461309D02*
X136717319Y-70223214D01*
X135812557Y-71175595D02*
X135764938Y-71223214D01*
X135764938Y-71223214D02*
X135717319Y-71318452D01*
X135717319Y-71318452D02*
X135717319Y-71556547D01*
X135717319Y-71556547D02*
X135764938Y-71651785D01*
X135764938Y-71651785D02*
X135812557Y-71699404D01*
X135812557Y-71699404D02*
X135907795Y-71747023D01*
X135907795Y-71747023D02*
X136003033Y-71747023D01*
X136003033Y-71747023D02*
X136145890Y-71699404D01*
X136145890Y-71699404D02*
X136717319Y-71127976D01*
X136717319Y-71127976D02*
X136717319Y-71747023D01*
X135717319Y-72080357D02*
X135717319Y-72747023D01*
X135717319Y-72747023D02*
X136717319Y-72318452D01*
X274829819Y-108323214D02*
X273829819Y-108323214D01*
X273829819Y-108323214D02*
X273829819Y-108561309D01*
X273829819Y-108561309D02*
X273877438Y-108704166D01*
X273877438Y-108704166D02*
X273972676Y-108799404D01*
X273972676Y-108799404D02*
X274067914Y-108847023D01*
X274067914Y-108847023D02*
X274258390Y-108894642D01*
X274258390Y-108894642D02*
X274401247Y-108894642D01*
X274401247Y-108894642D02*
X274591723Y-108847023D01*
X274591723Y-108847023D02*
X274686961Y-108799404D01*
X274686961Y-108799404D02*
X274782200Y-108704166D01*
X274782200Y-108704166D02*
X274829819Y-108561309D01*
X274829819Y-108561309D02*
X274829819Y-108323214D01*
X273829819Y-109799404D02*
X273829819Y-109323214D01*
X273829819Y-109323214D02*
X274306009Y-109275595D01*
X274306009Y-109275595D02*
X274258390Y-109323214D01*
X274258390Y-109323214D02*
X274210771Y-109418452D01*
X274210771Y-109418452D02*
X274210771Y-109656547D01*
X274210771Y-109656547D02*
X274258390Y-109751785D01*
X274258390Y-109751785D02*
X274306009Y-109799404D01*
X274306009Y-109799404D02*
X274401247Y-109847023D01*
X274401247Y-109847023D02*
X274639342Y-109847023D01*
X274639342Y-109847023D02*
X274734580Y-109799404D01*
X274734580Y-109799404D02*
X274782200Y-109751785D01*
X274782200Y-109751785D02*
X274829819Y-109656547D01*
X274829819Y-109656547D02*
X274829819Y-109418452D01*
X274829819Y-109418452D02*
X274782200Y-109323214D01*
X274782200Y-109323214D02*
X274734580Y-109275595D01*
X273829819Y-110704166D02*
X273829819Y-110513690D01*
X273829819Y-110513690D02*
X273877438Y-110418452D01*
X273877438Y-110418452D02*
X273925057Y-110370833D01*
X273925057Y-110370833D02*
X274067914Y-110275595D01*
X274067914Y-110275595D02*
X274258390Y-110227976D01*
X274258390Y-110227976D02*
X274639342Y-110227976D01*
X274639342Y-110227976D02*
X274734580Y-110275595D01*
X274734580Y-110275595D02*
X274782200Y-110323214D01*
X274782200Y-110323214D02*
X274829819Y-110418452D01*
X274829819Y-110418452D02*
X274829819Y-110608928D01*
X274829819Y-110608928D02*
X274782200Y-110704166D01*
X274782200Y-110704166D02*
X274734580Y-110751785D01*
X274734580Y-110751785D02*
X274639342Y-110799404D01*
X274639342Y-110799404D02*
X274401247Y-110799404D01*
X274401247Y-110799404D02*
X274306009Y-110751785D01*
X274306009Y-110751785D02*
X274258390Y-110704166D01*
X274258390Y-110704166D02*
X274210771Y-110608928D01*
X274210771Y-110608928D02*
X274210771Y-110418452D01*
X274210771Y-110418452D02*
X274258390Y-110323214D01*
X274258390Y-110323214D02*
X274306009Y-110275595D01*
X274306009Y-110275595D02*
X274401247Y-110227976D01*
X73742857Y-63984819D02*
X74076190Y-63508628D01*
X74314285Y-63984819D02*
X74314285Y-62984819D01*
X74314285Y-62984819D02*
X73933333Y-62984819D01*
X73933333Y-62984819D02*
X73838095Y-63032438D01*
X73838095Y-63032438D02*
X73790476Y-63080057D01*
X73790476Y-63080057D02*
X73742857Y-63175295D01*
X73742857Y-63175295D02*
X73742857Y-63318152D01*
X73742857Y-63318152D02*
X73790476Y-63413390D01*
X73790476Y-63413390D02*
X73838095Y-63461009D01*
X73838095Y-63461009D02*
X73933333Y-63508628D01*
X73933333Y-63508628D02*
X74314285Y-63508628D01*
X72790476Y-63984819D02*
X73361904Y-63984819D01*
X73076190Y-63984819D02*
X73076190Y-62984819D01*
X73076190Y-62984819D02*
X73171428Y-63127676D01*
X73171428Y-63127676D02*
X73266666Y-63222914D01*
X73266666Y-63222914D02*
X73361904Y-63270533D01*
X72171428Y-62984819D02*
X72076190Y-62984819D01*
X72076190Y-62984819D02*
X71980952Y-63032438D01*
X71980952Y-63032438D02*
X71933333Y-63080057D01*
X71933333Y-63080057D02*
X71885714Y-63175295D01*
X71885714Y-63175295D02*
X71838095Y-63365771D01*
X71838095Y-63365771D02*
X71838095Y-63603866D01*
X71838095Y-63603866D02*
X71885714Y-63794342D01*
X71885714Y-63794342D02*
X71933333Y-63889580D01*
X71933333Y-63889580D02*
X71980952Y-63937200D01*
X71980952Y-63937200D02*
X72076190Y-63984819D01*
X72076190Y-63984819D02*
X72171428Y-63984819D01*
X72171428Y-63984819D02*
X72266666Y-63937200D01*
X72266666Y-63937200D02*
X72314285Y-63889580D01*
X72314285Y-63889580D02*
X72361904Y-63794342D01*
X72361904Y-63794342D02*
X72409523Y-63603866D01*
X72409523Y-63603866D02*
X72409523Y-63365771D01*
X72409523Y-63365771D02*
X72361904Y-63175295D01*
X72361904Y-63175295D02*
X72314285Y-63080057D01*
X72314285Y-63080057D02*
X72266666Y-63032438D01*
X72266666Y-63032438D02*
X72171428Y-62984819D01*
X108142319Y-89273214D02*
X107142319Y-89273214D01*
X107142319Y-89273214D02*
X107142319Y-89511309D01*
X107142319Y-89511309D02*
X107189938Y-89654166D01*
X107189938Y-89654166D02*
X107285176Y-89749404D01*
X107285176Y-89749404D02*
X107380414Y-89797023D01*
X107380414Y-89797023D02*
X107570890Y-89844642D01*
X107570890Y-89844642D02*
X107713747Y-89844642D01*
X107713747Y-89844642D02*
X107904223Y-89797023D01*
X107904223Y-89797023D02*
X107999461Y-89749404D01*
X107999461Y-89749404D02*
X108094700Y-89654166D01*
X108094700Y-89654166D02*
X108142319Y-89511309D01*
X108142319Y-89511309D02*
X108142319Y-89273214D01*
X108142319Y-90797023D02*
X108142319Y-90225595D01*
X108142319Y-90511309D02*
X107142319Y-90511309D01*
X107142319Y-90511309D02*
X107285176Y-90416071D01*
X107285176Y-90416071D02*
X107380414Y-90320833D01*
X107380414Y-90320833D02*
X107428033Y-90225595D01*
X108142319Y-91273214D02*
X108142319Y-91463690D01*
X108142319Y-91463690D02*
X108094700Y-91558928D01*
X108094700Y-91558928D02*
X108047080Y-91606547D01*
X108047080Y-91606547D02*
X107904223Y-91701785D01*
X107904223Y-91701785D02*
X107713747Y-91749404D01*
X107713747Y-91749404D02*
X107332795Y-91749404D01*
X107332795Y-91749404D02*
X107237557Y-91701785D01*
X107237557Y-91701785D02*
X107189938Y-91654166D01*
X107189938Y-91654166D02*
X107142319Y-91558928D01*
X107142319Y-91558928D02*
X107142319Y-91368452D01*
X107142319Y-91368452D02*
X107189938Y-91273214D01*
X107189938Y-91273214D02*
X107237557Y-91225595D01*
X107237557Y-91225595D02*
X107332795Y-91177976D01*
X107332795Y-91177976D02*
X107570890Y-91177976D01*
X107570890Y-91177976D02*
X107666128Y-91225595D01*
X107666128Y-91225595D02*
X107713747Y-91273214D01*
X107713747Y-91273214D02*
X107761366Y-91368452D01*
X107761366Y-91368452D02*
X107761366Y-91558928D01*
X107761366Y-91558928D02*
X107713747Y-91654166D01*
X107713747Y-91654166D02*
X107666128Y-91701785D01*
X107666128Y-91701785D02*
X107570890Y-91749404D01*
X60119231Y-68566735D02*
X60691651Y-69139155D01*
X60691651Y-69139155D02*
X60725323Y-69240170D01*
X60725323Y-69240170D02*
X60725323Y-69307514D01*
X60725323Y-69307514D02*
X60691651Y-69408529D01*
X60691651Y-69408529D02*
X60556964Y-69543216D01*
X60556964Y-69543216D02*
X60455949Y-69576888D01*
X60455949Y-69576888D02*
X60388605Y-69576888D01*
X60388605Y-69576888D02*
X60287590Y-69543216D01*
X60287590Y-69543216D02*
X59715170Y-68970796D01*
X59715170Y-70385010D02*
X60119231Y-69980949D01*
X59917201Y-70182979D02*
X59210094Y-69475873D01*
X59210094Y-69475873D02*
X59378453Y-69509544D01*
X59378453Y-69509544D02*
X59513140Y-69509544D01*
X59513140Y-69509544D02*
X59614155Y-69475873D01*
X33054819Y-32561905D02*
X32054819Y-32561905D01*
X32054819Y-32561905D02*
X32054819Y-32800000D01*
X32054819Y-32800000D02*
X32102438Y-32942857D01*
X32102438Y-32942857D02*
X32197676Y-33038095D01*
X32197676Y-33038095D02*
X32292914Y-33085714D01*
X32292914Y-33085714D02*
X32483390Y-33133333D01*
X32483390Y-33133333D02*
X32626247Y-33133333D01*
X32626247Y-33133333D02*
X32816723Y-33085714D01*
X32816723Y-33085714D02*
X32911961Y-33038095D01*
X32911961Y-33038095D02*
X33007200Y-32942857D01*
X33007200Y-32942857D02*
X33054819Y-32800000D01*
X33054819Y-32800000D02*
X33054819Y-32561905D01*
X33054819Y-34085714D02*
X33054819Y-33514286D01*
X33054819Y-33800000D02*
X32054819Y-33800000D01*
X32054819Y-33800000D02*
X32197676Y-33704762D01*
X32197676Y-33704762D02*
X32292914Y-33609524D01*
X32292914Y-33609524D02*
X32340533Y-33514286D01*
X265304819Y-51173214D02*
X264304819Y-51173214D01*
X264304819Y-51173214D02*
X264304819Y-51411309D01*
X264304819Y-51411309D02*
X264352438Y-51554166D01*
X264352438Y-51554166D02*
X264447676Y-51649404D01*
X264447676Y-51649404D02*
X264542914Y-51697023D01*
X264542914Y-51697023D02*
X264733390Y-51744642D01*
X264733390Y-51744642D02*
X264876247Y-51744642D01*
X264876247Y-51744642D02*
X265066723Y-51697023D01*
X265066723Y-51697023D02*
X265161961Y-51649404D01*
X265161961Y-51649404D02*
X265257200Y-51554166D01*
X265257200Y-51554166D02*
X265304819Y-51411309D01*
X265304819Y-51411309D02*
X265304819Y-51173214D01*
X264304819Y-52649404D02*
X264304819Y-52173214D01*
X264304819Y-52173214D02*
X264781009Y-52125595D01*
X264781009Y-52125595D02*
X264733390Y-52173214D01*
X264733390Y-52173214D02*
X264685771Y-52268452D01*
X264685771Y-52268452D02*
X264685771Y-52506547D01*
X264685771Y-52506547D02*
X264733390Y-52601785D01*
X264733390Y-52601785D02*
X264781009Y-52649404D01*
X264781009Y-52649404D02*
X264876247Y-52697023D01*
X264876247Y-52697023D02*
X265114342Y-52697023D01*
X265114342Y-52697023D02*
X265209580Y-52649404D01*
X265209580Y-52649404D02*
X265257200Y-52601785D01*
X265257200Y-52601785D02*
X265304819Y-52506547D01*
X265304819Y-52506547D02*
X265304819Y-52268452D01*
X265304819Y-52268452D02*
X265257200Y-52173214D01*
X265257200Y-52173214D02*
X265209580Y-52125595D01*
X264304819Y-53030357D02*
X264304819Y-53649404D01*
X264304819Y-53649404D02*
X264685771Y-53316071D01*
X264685771Y-53316071D02*
X264685771Y-53458928D01*
X264685771Y-53458928D02*
X264733390Y-53554166D01*
X264733390Y-53554166D02*
X264781009Y-53601785D01*
X264781009Y-53601785D02*
X264876247Y-53649404D01*
X264876247Y-53649404D02*
X265114342Y-53649404D01*
X265114342Y-53649404D02*
X265209580Y-53601785D01*
X265209580Y-53601785D02*
X265257200Y-53554166D01*
X265257200Y-53554166D02*
X265304819Y-53458928D01*
X265304819Y-53458928D02*
X265304819Y-53173214D01*
X265304819Y-53173214D02*
X265257200Y-53077976D01*
X265257200Y-53077976D02*
X265209580Y-53030357D01*
X246254819Y-51173214D02*
X245254819Y-51173214D01*
X245254819Y-51173214D02*
X245254819Y-51411309D01*
X245254819Y-51411309D02*
X245302438Y-51554166D01*
X245302438Y-51554166D02*
X245397676Y-51649404D01*
X245397676Y-51649404D02*
X245492914Y-51697023D01*
X245492914Y-51697023D02*
X245683390Y-51744642D01*
X245683390Y-51744642D02*
X245826247Y-51744642D01*
X245826247Y-51744642D02*
X246016723Y-51697023D01*
X246016723Y-51697023D02*
X246111961Y-51649404D01*
X246111961Y-51649404D02*
X246207200Y-51554166D01*
X246207200Y-51554166D02*
X246254819Y-51411309D01*
X246254819Y-51411309D02*
X246254819Y-51173214D01*
X245588152Y-52601785D02*
X246254819Y-52601785D01*
X245207200Y-52363690D02*
X245921485Y-52125595D01*
X245921485Y-52125595D02*
X245921485Y-52744642D01*
X245683390Y-53268452D02*
X245635771Y-53173214D01*
X245635771Y-53173214D02*
X245588152Y-53125595D01*
X245588152Y-53125595D02*
X245492914Y-53077976D01*
X245492914Y-53077976D02*
X245445295Y-53077976D01*
X245445295Y-53077976D02*
X245350057Y-53125595D01*
X245350057Y-53125595D02*
X245302438Y-53173214D01*
X245302438Y-53173214D02*
X245254819Y-53268452D01*
X245254819Y-53268452D02*
X245254819Y-53458928D01*
X245254819Y-53458928D02*
X245302438Y-53554166D01*
X245302438Y-53554166D02*
X245350057Y-53601785D01*
X245350057Y-53601785D02*
X245445295Y-53649404D01*
X245445295Y-53649404D02*
X245492914Y-53649404D01*
X245492914Y-53649404D02*
X245588152Y-53601785D01*
X245588152Y-53601785D02*
X245635771Y-53554166D01*
X245635771Y-53554166D02*
X245683390Y-53458928D01*
X245683390Y-53458928D02*
X245683390Y-53268452D01*
X245683390Y-53268452D02*
X245731009Y-53173214D01*
X245731009Y-53173214D02*
X245778628Y-53125595D01*
X245778628Y-53125595D02*
X245873866Y-53077976D01*
X245873866Y-53077976D02*
X246064342Y-53077976D01*
X246064342Y-53077976D02*
X246159580Y-53125595D01*
X246159580Y-53125595D02*
X246207200Y-53173214D01*
X246207200Y-53173214D02*
X246254819Y-53268452D01*
X246254819Y-53268452D02*
X246254819Y-53458928D01*
X246254819Y-53458928D02*
X246207200Y-53554166D01*
X246207200Y-53554166D02*
X246159580Y-53601785D01*
X246159580Y-53601785D02*
X246064342Y-53649404D01*
X246064342Y-53649404D02*
X245873866Y-53649404D01*
X245873866Y-53649404D02*
X245778628Y-53601785D01*
X245778628Y-53601785D02*
X245731009Y-53554166D01*
X245731009Y-53554166D02*
X245683390Y-53458928D01*
X83254819Y-69985714D02*
X82254819Y-69985714D01*
X82254819Y-69985714D02*
X82254819Y-70223809D01*
X82254819Y-70223809D02*
X82302438Y-70366666D01*
X82302438Y-70366666D02*
X82397676Y-70461904D01*
X82397676Y-70461904D02*
X82492914Y-70509523D01*
X82492914Y-70509523D02*
X82683390Y-70557142D01*
X82683390Y-70557142D02*
X82826247Y-70557142D01*
X82826247Y-70557142D02*
X83016723Y-70509523D01*
X83016723Y-70509523D02*
X83111961Y-70461904D01*
X83111961Y-70461904D02*
X83207200Y-70366666D01*
X83207200Y-70366666D02*
X83254819Y-70223809D01*
X83254819Y-70223809D02*
X83254819Y-69985714D01*
X83254819Y-71509523D02*
X83254819Y-70938095D01*
X83254819Y-71223809D02*
X82254819Y-71223809D01*
X82254819Y-71223809D02*
X82397676Y-71128571D01*
X82397676Y-71128571D02*
X82492914Y-71033333D01*
X82492914Y-71033333D02*
X82540533Y-70938095D01*
X82254819Y-71842857D02*
X82254819Y-72461904D01*
X82254819Y-72461904D02*
X82635771Y-72128571D01*
X82635771Y-72128571D02*
X82635771Y-72271428D01*
X82635771Y-72271428D02*
X82683390Y-72366666D01*
X82683390Y-72366666D02*
X82731009Y-72414285D01*
X82731009Y-72414285D02*
X82826247Y-72461904D01*
X82826247Y-72461904D02*
X83064342Y-72461904D01*
X83064342Y-72461904D02*
X83159580Y-72414285D01*
X83159580Y-72414285D02*
X83207200Y-72366666D01*
X83207200Y-72366666D02*
X83254819Y-72271428D01*
X83254819Y-72271428D02*
X83254819Y-71985714D01*
X83254819Y-71985714D02*
X83207200Y-71890476D01*
X83207200Y-71890476D02*
X83159580Y-71842857D01*
X131954819Y-51173214D02*
X130954819Y-51173214D01*
X130954819Y-51173214D02*
X130954819Y-51411309D01*
X130954819Y-51411309D02*
X131002438Y-51554166D01*
X131002438Y-51554166D02*
X131097676Y-51649404D01*
X131097676Y-51649404D02*
X131192914Y-51697023D01*
X131192914Y-51697023D02*
X131383390Y-51744642D01*
X131383390Y-51744642D02*
X131526247Y-51744642D01*
X131526247Y-51744642D02*
X131716723Y-51697023D01*
X131716723Y-51697023D02*
X131811961Y-51649404D01*
X131811961Y-51649404D02*
X131907200Y-51554166D01*
X131907200Y-51554166D02*
X131954819Y-51411309D01*
X131954819Y-51411309D02*
X131954819Y-51173214D01*
X131050057Y-52125595D02*
X131002438Y-52173214D01*
X131002438Y-52173214D02*
X130954819Y-52268452D01*
X130954819Y-52268452D02*
X130954819Y-52506547D01*
X130954819Y-52506547D02*
X131002438Y-52601785D01*
X131002438Y-52601785D02*
X131050057Y-52649404D01*
X131050057Y-52649404D02*
X131145295Y-52697023D01*
X131145295Y-52697023D02*
X131240533Y-52697023D01*
X131240533Y-52697023D02*
X131383390Y-52649404D01*
X131383390Y-52649404D02*
X131954819Y-52077976D01*
X131954819Y-52077976D02*
X131954819Y-52697023D01*
X131050057Y-53077976D02*
X131002438Y-53125595D01*
X131002438Y-53125595D02*
X130954819Y-53220833D01*
X130954819Y-53220833D02*
X130954819Y-53458928D01*
X130954819Y-53458928D02*
X131002438Y-53554166D01*
X131002438Y-53554166D02*
X131050057Y-53601785D01*
X131050057Y-53601785D02*
X131145295Y-53649404D01*
X131145295Y-53649404D02*
X131240533Y-53649404D01*
X131240533Y-53649404D02*
X131383390Y-53601785D01*
X131383390Y-53601785D02*
X131954819Y-53030357D01*
X131954819Y-53030357D02*
X131954819Y-53649404D01*
X52554166Y-42106069D02*
X52887499Y-41629878D01*
X53125594Y-42106069D02*
X53125594Y-41106069D01*
X53125594Y-41106069D02*
X52744642Y-41106069D01*
X52744642Y-41106069D02*
X52649404Y-41153688D01*
X52649404Y-41153688D02*
X52601785Y-41201307D01*
X52601785Y-41201307D02*
X52554166Y-41296545D01*
X52554166Y-41296545D02*
X52554166Y-41439402D01*
X52554166Y-41439402D02*
X52601785Y-41534640D01*
X52601785Y-41534640D02*
X52649404Y-41582259D01*
X52649404Y-41582259D02*
X52744642Y-41629878D01*
X52744642Y-41629878D02*
X53125594Y-41629878D01*
X51697023Y-41439402D02*
X51697023Y-42106069D01*
X51935118Y-41058450D02*
X52173213Y-41772735D01*
X52173213Y-41772735D02*
X51554166Y-41772735D01*
X48854819Y-52833333D02*
X48378628Y-52500000D01*
X48854819Y-52261905D02*
X47854819Y-52261905D01*
X47854819Y-52261905D02*
X47854819Y-52642857D01*
X47854819Y-52642857D02*
X47902438Y-52738095D01*
X47902438Y-52738095D02*
X47950057Y-52785714D01*
X47950057Y-52785714D02*
X48045295Y-52833333D01*
X48045295Y-52833333D02*
X48188152Y-52833333D01*
X48188152Y-52833333D02*
X48283390Y-52785714D01*
X48283390Y-52785714D02*
X48331009Y-52738095D01*
X48331009Y-52738095D02*
X48378628Y-52642857D01*
X48378628Y-52642857D02*
X48378628Y-52261905D01*
X48854819Y-53785714D02*
X48854819Y-53214286D01*
X48854819Y-53500000D02*
X47854819Y-53500000D01*
X47854819Y-53500000D02*
X47997676Y-53404762D01*
X47997676Y-53404762D02*
X48092914Y-53309524D01*
X48092914Y-53309524D02*
X48140533Y-53214286D01*
X293879819Y-108323214D02*
X292879819Y-108323214D01*
X292879819Y-108323214D02*
X292879819Y-108561309D01*
X292879819Y-108561309D02*
X292927438Y-108704166D01*
X292927438Y-108704166D02*
X293022676Y-108799404D01*
X293022676Y-108799404D02*
X293117914Y-108847023D01*
X293117914Y-108847023D02*
X293308390Y-108894642D01*
X293308390Y-108894642D02*
X293451247Y-108894642D01*
X293451247Y-108894642D02*
X293641723Y-108847023D01*
X293641723Y-108847023D02*
X293736961Y-108799404D01*
X293736961Y-108799404D02*
X293832200Y-108704166D01*
X293832200Y-108704166D02*
X293879819Y-108561309D01*
X293879819Y-108561309D02*
X293879819Y-108323214D01*
X292879819Y-109751785D02*
X292879819Y-109561309D01*
X292879819Y-109561309D02*
X292927438Y-109466071D01*
X292927438Y-109466071D02*
X292975057Y-109418452D01*
X292975057Y-109418452D02*
X293117914Y-109323214D01*
X293117914Y-109323214D02*
X293308390Y-109275595D01*
X293308390Y-109275595D02*
X293689342Y-109275595D01*
X293689342Y-109275595D02*
X293784580Y-109323214D01*
X293784580Y-109323214D02*
X293832200Y-109370833D01*
X293832200Y-109370833D02*
X293879819Y-109466071D01*
X293879819Y-109466071D02*
X293879819Y-109656547D01*
X293879819Y-109656547D02*
X293832200Y-109751785D01*
X293832200Y-109751785D02*
X293784580Y-109799404D01*
X293784580Y-109799404D02*
X293689342Y-109847023D01*
X293689342Y-109847023D02*
X293451247Y-109847023D01*
X293451247Y-109847023D02*
X293356009Y-109799404D01*
X293356009Y-109799404D02*
X293308390Y-109751785D01*
X293308390Y-109751785D02*
X293260771Y-109656547D01*
X293260771Y-109656547D02*
X293260771Y-109466071D01*
X293260771Y-109466071D02*
X293308390Y-109370833D01*
X293308390Y-109370833D02*
X293356009Y-109323214D01*
X293356009Y-109323214D02*
X293451247Y-109275595D01*
X292879819Y-110466071D02*
X292879819Y-110561309D01*
X292879819Y-110561309D02*
X292927438Y-110656547D01*
X292927438Y-110656547D02*
X292975057Y-110704166D01*
X292975057Y-110704166D02*
X293070295Y-110751785D01*
X293070295Y-110751785D02*
X293260771Y-110799404D01*
X293260771Y-110799404D02*
X293498866Y-110799404D01*
X293498866Y-110799404D02*
X293689342Y-110751785D01*
X293689342Y-110751785D02*
X293784580Y-110704166D01*
X293784580Y-110704166D02*
X293832200Y-110656547D01*
X293832200Y-110656547D02*
X293879819Y-110561309D01*
X293879819Y-110561309D02*
X293879819Y-110466071D01*
X293879819Y-110466071D02*
X293832200Y-110370833D01*
X293832200Y-110370833D02*
X293784580Y-110323214D01*
X293784580Y-110323214D02*
X293689342Y-110275595D01*
X293689342Y-110275595D02*
X293498866Y-110227976D01*
X293498866Y-110227976D02*
X293260771Y-110227976D01*
X293260771Y-110227976D02*
X293070295Y-110275595D01*
X293070295Y-110275595D02*
X292975057Y-110323214D01*
X292975057Y-110323214D02*
X292927438Y-110370833D01*
X292927438Y-110370833D02*
X292879819Y-110466071D01*
X98617319Y-108323214D02*
X97617319Y-108323214D01*
X97617319Y-108323214D02*
X97617319Y-108561309D01*
X97617319Y-108561309D02*
X97664938Y-108704166D01*
X97664938Y-108704166D02*
X97760176Y-108799404D01*
X97760176Y-108799404D02*
X97855414Y-108847023D01*
X97855414Y-108847023D02*
X98045890Y-108894642D01*
X98045890Y-108894642D02*
X98188747Y-108894642D01*
X98188747Y-108894642D02*
X98379223Y-108847023D01*
X98379223Y-108847023D02*
X98474461Y-108799404D01*
X98474461Y-108799404D02*
X98569700Y-108704166D01*
X98569700Y-108704166D02*
X98617319Y-108561309D01*
X98617319Y-108561309D02*
X98617319Y-108323214D01*
X97712557Y-109275595D02*
X97664938Y-109323214D01*
X97664938Y-109323214D02*
X97617319Y-109418452D01*
X97617319Y-109418452D02*
X97617319Y-109656547D01*
X97617319Y-109656547D02*
X97664938Y-109751785D01*
X97664938Y-109751785D02*
X97712557Y-109799404D01*
X97712557Y-109799404D02*
X97807795Y-109847023D01*
X97807795Y-109847023D02*
X97903033Y-109847023D01*
X97903033Y-109847023D02*
X98045890Y-109799404D01*
X98045890Y-109799404D02*
X98617319Y-109227976D01*
X98617319Y-109227976D02*
X98617319Y-109847023D01*
X97617319Y-110466071D02*
X97617319Y-110561309D01*
X97617319Y-110561309D02*
X97664938Y-110656547D01*
X97664938Y-110656547D02*
X97712557Y-110704166D01*
X97712557Y-110704166D02*
X97807795Y-110751785D01*
X97807795Y-110751785D02*
X97998271Y-110799404D01*
X97998271Y-110799404D02*
X98236366Y-110799404D01*
X98236366Y-110799404D02*
X98426842Y-110751785D01*
X98426842Y-110751785D02*
X98522080Y-110704166D01*
X98522080Y-110704166D02*
X98569700Y-110656547D01*
X98569700Y-110656547D02*
X98617319Y-110561309D01*
X98617319Y-110561309D02*
X98617319Y-110466071D01*
X98617319Y-110466071D02*
X98569700Y-110370833D01*
X98569700Y-110370833D02*
X98522080Y-110323214D01*
X98522080Y-110323214D02*
X98426842Y-110275595D01*
X98426842Y-110275595D02*
X98236366Y-110227976D01*
X98236366Y-110227976D02*
X97998271Y-110227976D01*
X97998271Y-110227976D02*
X97807795Y-110275595D01*
X97807795Y-110275595D02*
X97712557Y-110323214D01*
X97712557Y-110323214D02*
X97664938Y-110370833D01*
X97664938Y-110370833D02*
X97617319Y-110466071D01*
X331979819Y-89273214D02*
X330979819Y-89273214D01*
X330979819Y-89273214D02*
X330979819Y-89511309D01*
X330979819Y-89511309D02*
X331027438Y-89654166D01*
X331027438Y-89654166D02*
X331122676Y-89749404D01*
X331122676Y-89749404D02*
X331217914Y-89797023D01*
X331217914Y-89797023D02*
X331408390Y-89844642D01*
X331408390Y-89844642D02*
X331551247Y-89844642D01*
X331551247Y-89844642D02*
X331741723Y-89797023D01*
X331741723Y-89797023D02*
X331836961Y-89749404D01*
X331836961Y-89749404D02*
X331932200Y-89654166D01*
X331932200Y-89654166D02*
X331979819Y-89511309D01*
X331979819Y-89511309D02*
X331979819Y-89273214D01*
X330979819Y-90701785D02*
X330979819Y-90511309D01*
X330979819Y-90511309D02*
X331027438Y-90416071D01*
X331027438Y-90416071D02*
X331075057Y-90368452D01*
X331075057Y-90368452D02*
X331217914Y-90273214D01*
X331217914Y-90273214D02*
X331408390Y-90225595D01*
X331408390Y-90225595D02*
X331789342Y-90225595D01*
X331789342Y-90225595D02*
X331884580Y-90273214D01*
X331884580Y-90273214D02*
X331932200Y-90320833D01*
X331932200Y-90320833D02*
X331979819Y-90416071D01*
X331979819Y-90416071D02*
X331979819Y-90606547D01*
X331979819Y-90606547D02*
X331932200Y-90701785D01*
X331932200Y-90701785D02*
X331884580Y-90749404D01*
X331884580Y-90749404D02*
X331789342Y-90797023D01*
X331789342Y-90797023D02*
X331551247Y-90797023D01*
X331551247Y-90797023D02*
X331456009Y-90749404D01*
X331456009Y-90749404D02*
X331408390Y-90701785D01*
X331408390Y-90701785D02*
X331360771Y-90606547D01*
X331360771Y-90606547D02*
X331360771Y-90416071D01*
X331360771Y-90416071D02*
X331408390Y-90320833D01*
X331408390Y-90320833D02*
X331456009Y-90273214D01*
X331456009Y-90273214D02*
X331551247Y-90225595D01*
X331408390Y-91368452D02*
X331360771Y-91273214D01*
X331360771Y-91273214D02*
X331313152Y-91225595D01*
X331313152Y-91225595D02*
X331217914Y-91177976D01*
X331217914Y-91177976D02*
X331170295Y-91177976D01*
X331170295Y-91177976D02*
X331075057Y-91225595D01*
X331075057Y-91225595D02*
X331027438Y-91273214D01*
X331027438Y-91273214D02*
X330979819Y-91368452D01*
X330979819Y-91368452D02*
X330979819Y-91558928D01*
X330979819Y-91558928D02*
X331027438Y-91654166D01*
X331027438Y-91654166D02*
X331075057Y-91701785D01*
X331075057Y-91701785D02*
X331170295Y-91749404D01*
X331170295Y-91749404D02*
X331217914Y-91749404D01*
X331217914Y-91749404D02*
X331313152Y-91701785D01*
X331313152Y-91701785D02*
X331360771Y-91654166D01*
X331360771Y-91654166D02*
X331408390Y-91558928D01*
X331408390Y-91558928D02*
X331408390Y-91368452D01*
X331408390Y-91368452D02*
X331456009Y-91273214D01*
X331456009Y-91273214D02*
X331503628Y-91225595D01*
X331503628Y-91225595D02*
X331598866Y-91177976D01*
X331598866Y-91177976D02*
X331789342Y-91177976D01*
X331789342Y-91177976D02*
X331884580Y-91225595D01*
X331884580Y-91225595D02*
X331932200Y-91273214D01*
X331932200Y-91273214D02*
X331979819Y-91368452D01*
X331979819Y-91368452D02*
X331979819Y-91558928D01*
X331979819Y-91558928D02*
X331932200Y-91654166D01*
X331932200Y-91654166D02*
X331884580Y-91701785D01*
X331884580Y-91701785D02*
X331789342Y-91749404D01*
X331789342Y-91749404D02*
X331598866Y-91749404D01*
X331598866Y-91749404D02*
X331503628Y-91701785D01*
X331503628Y-91701785D02*
X331456009Y-91654166D01*
X331456009Y-91654166D02*
X331408390Y-91558928D01*
X331979819Y-51173214D02*
X330979819Y-51173214D01*
X330979819Y-51173214D02*
X330979819Y-51411309D01*
X330979819Y-51411309D02*
X331027438Y-51554166D01*
X331027438Y-51554166D02*
X331122676Y-51649404D01*
X331122676Y-51649404D02*
X331217914Y-51697023D01*
X331217914Y-51697023D02*
X331408390Y-51744642D01*
X331408390Y-51744642D02*
X331551247Y-51744642D01*
X331551247Y-51744642D02*
X331741723Y-51697023D01*
X331741723Y-51697023D02*
X331836961Y-51649404D01*
X331836961Y-51649404D02*
X331932200Y-51554166D01*
X331932200Y-51554166D02*
X331979819Y-51411309D01*
X331979819Y-51411309D02*
X331979819Y-51173214D01*
X330979819Y-52601785D02*
X330979819Y-52411309D01*
X330979819Y-52411309D02*
X331027438Y-52316071D01*
X331027438Y-52316071D02*
X331075057Y-52268452D01*
X331075057Y-52268452D02*
X331217914Y-52173214D01*
X331217914Y-52173214D02*
X331408390Y-52125595D01*
X331408390Y-52125595D02*
X331789342Y-52125595D01*
X331789342Y-52125595D02*
X331884580Y-52173214D01*
X331884580Y-52173214D02*
X331932200Y-52220833D01*
X331932200Y-52220833D02*
X331979819Y-52316071D01*
X331979819Y-52316071D02*
X331979819Y-52506547D01*
X331979819Y-52506547D02*
X331932200Y-52601785D01*
X331932200Y-52601785D02*
X331884580Y-52649404D01*
X331884580Y-52649404D02*
X331789342Y-52697023D01*
X331789342Y-52697023D02*
X331551247Y-52697023D01*
X331551247Y-52697023D02*
X331456009Y-52649404D01*
X331456009Y-52649404D02*
X331408390Y-52601785D01*
X331408390Y-52601785D02*
X331360771Y-52506547D01*
X331360771Y-52506547D02*
X331360771Y-52316071D01*
X331360771Y-52316071D02*
X331408390Y-52220833D01*
X331408390Y-52220833D02*
X331456009Y-52173214D01*
X331456009Y-52173214D02*
X331551247Y-52125595D01*
X330979819Y-53030357D02*
X330979819Y-53697023D01*
X330979819Y-53697023D02*
X331979819Y-53268452D01*
X198629819Y-32123214D02*
X197629819Y-32123214D01*
X197629819Y-32123214D02*
X197629819Y-32361309D01*
X197629819Y-32361309D02*
X197677438Y-32504166D01*
X197677438Y-32504166D02*
X197772676Y-32599404D01*
X197772676Y-32599404D02*
X197867914Y-32647023D01*
X197867914Y-32647023D02*
X198058390Y-32694642D01*
X198058390Y-32694642D02*
X198201247Y-32694642D01*
X198201247Y-32694642D02*
X198391723Y-32647023D01*
X198391723Y-32647023D02*
X198486961Y-32599404D01*
X198486961Y-32599404D02*
X198582200Y-32504166D01*
X198582200Y-32504166D02*
X198629819Y-32361309D01*
X198629819Y-32361309D02*
X198629819Y-32123214D01*
X197963152Y-33551785D02*
X198629819Y-33551785D01*
X197582200Y-33313690D02*
X198296485Y-33075595D01*
X198296485Y-33075595D02*
X198296485Y-33694642D01*
X197725057Y-34027976D02*
X197677438Y-34075595D01*
X197677438Y-34075595D02*
X197629819Y-34170833D01*
X197629819Y-34170833D02*
X197629819Y-34408928D01*
X197629819Y-34408928D02*
X197677438Y-34504166D01*
X197677438Y-34504166D02*
X197725057Y-34551785D01*
X197725057Y-34551785D02*
X197820295Y-34599404D01*
X197820295Y-34599404D02*
X197915533Y-34599404D01*
X197915533Y-34599404D02*
X198058390Y-34551785D01*
X198058390Y-34551785D02*
X198629819Y-33980357D01*
X198629819Y-33980357D02*
X198629819Y-34599404D01*
X90307200Y-62466667D02*
X90354819Y-62609524D01*
X90354819Y-62609524D02*
X90354819Y-62847619D01*
X90354819Y-62847619D02*
X90307200Y-62942857D01*
X90307200Y-62942857D02*
X90259580Y-62990476D01*
X90259580Y-62990476D02*
X90164342Y-63038095D01*
X90164342Y-63038095D02*
X90069104Y-63038095D01*
X90069104Y-63038095D02*
X89973866Y-62990476D01*
X89973866Y-62990476D02*
X89926247Y-62942857D01*
X89926247Y-62942857D02*
X89878628Y-62847619D01*
X89878628Y-62847619D02*
X89831009Y-62657143D01*
X89831009Y-62657143D02*
X89783390Y-62561905D01*
X89783390Y-62561905D02*
X89735771Y-62514286D01*
X89735771Y-62514286D02*
X89640533Y-62466667D01*
X89640533Y-62466667D02*
X89545295Y-62466667D01*
X89545295Y-62466667D02*
X89450057Y-62514286D01*
X89450057Y-62514286D02*
X89402438Y-62561905D01*
X89402438Y-62561905D02*
X89354819Y-62657143D01*
X89354819Y-62657143D02*
X89354819Y-62895238D01*
X89354819Y-62895238D02*
X89402438Y-63038095D01*
X89354819Y-63371429D02*
X90354819Y-63609524D01*
X90354819Y-63609524D02*
X89640533Y-63800000D01*
X89640533Y-63800000D02*
X90354819Y-63990476D01*
X90354819Y-63990476D02*
X89354819Y-64228572D01*
X90354819Y-65133333D02*
X90354819Y-64561905D01*
X90354819Y-64847619D02*
X89354819Y-64847619D01*
X89354819Y-64847619D02*
X89497676Y-64752381D01*
X89497676Y-64752381D02*
X89592914Y-64657143D01*
X89592914Y-64657143D02*
X89640533Y-64561905D01*
X141479819Y-32123214D02*
X140479819Y-32123214D01*
X140479819Y-32123214D02*
X140479819Y-32361309D01*
X140479819Y-32361309D02*
X140527438Y-32504166D01*
X140527438Y-32504166D02*
X140622676Y-32599404D01*
X140622676Y-32599404D02*
X140717914Y-32647023D01*
X140717914Y-32647023D02*
X140908390Y-32694642D01*
X140908390Y-32694642D02*
X141051247Y-32694642D01*
X141051247Y-32694642D02*
X141241723Y-32647023D01*
X141241723Y-32647023D02*
X141336961Y-32599404D01*
X141336961Y-32599404D02*
X141432200Y-32504166D01*
X141432200Y-32504166D02*
X141479819Y-32361309D01*
X141479819Y-32361309D02*
X141479819Y-32123214D01*
X140575057Y-33075595D02*
X140527438Y-33123214D01*
X140527438Y-33123214D02*
X140479819Y-33218452D01*
X140479819Y-33218452D02*
X140479819Y-33456547D01*
X140479819Y-33456547D02*
X140527438Y-33551785D01*
X140527438Y-33551785D02*
X140575057Y-33599404D01*
X140575057Y-33599404D02*
X140670295Y-33647023D01*
X140670295Y-33647023D02*
X140765533Y-33647023D01*
X140765533Y-33647023D02*
X140908390Y-33599404D01*
X140908390Y-33599404D02*
X141479819Y-33027976D01*
X141479819Y-33027976D02*
X141479819Y-33647023D01*
X141479819Y-34123214D02*
X141479819Y-34313690D01*
X141479819Y-34313690D02*
X141432200Y-34408928D01*
X141432200Y-34408928D02*
X141384580Y-34456547D01*
X141384580Y-34456547D02*
X141241723Y-34551785D01*
X141241723Y-34551785D02*
X141051247Y-34599404D01*
X141051247Y-34599404D02*
X140670295Y-34599404D01*
X140670295Y-34599404D02*
X140575057Y-34551785D01*
X140575057Y-34551785D02*
X140527438Y-34504166D01*
X140527438Y-34504166D02*
X140479819Y-34408928D01*
X140479819Y-34408928D02*
X140479819Y-34218452D01*
X140479819Y-34218452D02*
X140527438Y-34123214D01*
X140527438Y-34123214D02*
X140575057Y-34075595D01*
X140575057Y-34075595D02*
X140670295Y-34027976D01*
X140670295Y-34027976D02*
X140908390Y-34027976D01*
X140908390Y-34027976D02*
X141003628Y-34075595D01*
X141003628Y-34075595D02*
X141051247Y-34123214D01*
X141051247Y-34123214D02*
X141098866Y-34218452D01*
X141098866Y-34218452D02*
X141098866Y-34408928D01*
X141098866Y-34408928D02*
X141051247Y-34504166D01*
X141051247Y-34504166D02*
X141003628Y-34551785D01*
X141003628Y-34551785D02*
X140908390Y-34599404D01*
X274829819Y-32123214D02*
X273829819Y-32123214D01*
X273829819Y-32123214D02*
X273829819Y-32361309D01*
X273829819Y-32361309D02*
X273877438Y-32504166D01*
X273877438Y-32504166D02*
X273972676Y-32599404D01*
X273972676Y-32599404D02*
X274067914Y-32647023D01*
X274067914Y-32647023D02*
X274258390Y-32694642D01*
X274258390Y-32694642D02*
X274401247Y-32694642D01*
X274401247Y-32694642D02*
X274591723Y-32647023D01*
X274591723Y-32647023D02*
X274686961Y-32599404D01*
X274686961Y-32599404D02*
X274782200Y-32504166D01*
X274782200Y-32504166D02*
X274829819Y-32361309D01*
X274829819Y-32361309D02*
X274829819Y-32123214D01*
X273829819Y-33551785D02*
X273829819Y-33361309D01*
X273829819Y-33361309D02*
X273877438Y-33266071D01*
X273877438Y-33266071D02*
X273925057Y-33218452D01*
X273925057Y-33218452D02*
X274067914Y-33123214D01*
X274067914Y-33123214D02*
X274258390Y-33075595D01*
X274258390Y-33075595D02*
X274639342Y-33075595D01*
X274639342Y-33075595D02*
X274734580Y-33123214D01*
X274734580Y-33123214D02*
X274782200Y-33170833D01*
X274782200Y-33170833D02*
X274829819Y-33266071D01*
X274829819Y-33266071D02*
X274829819Y-33456547D01*
X274829819Y-33456547D02*
X274782200Y-33551785D01*
X274782200Y-33551785D02*
X274734580Y-33599404D01*
X274734580Y-33599404D02*
X274639342Y-33647023D01*
X274639342Y-33647023D02*
X274401247Y-33647023D01*
X274401247Y-33647023D02*
X274306009Y-33599404D01*
X274306009Y-33599404D02*
X274258390Y-33551785D01*
X274258390Y-33551785D02*
X274210771Y-33456547D01*
X274210771Y-33456547D02*
X274210771Y-33266071D01*
X274210771Y-33266071D02*
X274258390Y-33170833D01*
X274258390Y-33170833D02*
X274306009Y-33123214D01*
X274306009Y-33123214D02*
X274401247Y-33075595D01*
X274829819Y-34599404D02*
X274829819Y-34027976D01*
X274829819Y-34313690D02*
X273829819Y-34313690D01*
X273829819Y-34313690D02*
X273972676Y-34218452D01*
X273972676Y-34218452D02*
X274067914Y-34123214D01*
X274067914Y-34123214D02*
X274115533Y-34027976D01*
X174817319Y-70223214D02*
X173817319Y-70223214D01*
X173817319Y-70223214D02*
X173817319Y-70461309D01*
X173817319Y-70461309D02*
X173864938Y-70604166D01*
X173864938Y-70604166D02*
X173960176Y-70699404D01*
X173960176Y-70699404D02*
X174055414Y-70747023D01*
X174055414Y-70747023D02*
X174245890Y-70794642D01*
X174245890Y-70794642D02*
X174388747Y-70794642D01*
X174388747Y-70794642D02*
X174579223Y-70747023D01*
X174579223Y-70747023D02*
X174674461Y-70699404D01*
X174674461Y-70699404D02*
X174769700Y-70604166D01*
X174769700Y-70604166D02*
X174817319Y-70461309D01*
X174817319Y-70461309D02*
X174817319Y-70223214D01*
X173817319Y-71127976D02*
X173817319Y-71747023D01*
X173817319Y-71747023D02*
X174198271Y-71413690D01*
X174198271Y-71413690D02*
X174198271Y-71556547D01*
X174198271Y-71556547D02*
X174245890Y-71651785D01*
X174245890Y-71651785D02*
X174293509Y-71699404D01*
X174293509Y-71699404D02*
X174388747Y-71747023D01*
X174388747Y-71747023D02*
X174626842Y-71747023D01*
X174626842Y-71747023D02*
X174722080Y-71699404D01*
X174722080Y-71699404D02*
X174769700Y-71651785D01*
X174769700Y-71651785D02*
X174817319Y-71556547D01*
X174817319Y-71556547D02*
X174817319Y-71270833D01*
X174817319Y-71270833D02*
X174769700Y-71175595D01*
X174769700Y-71175595D02*
X174722080Y-71127976D01*
X173817319Y-72651785D02*
X173817319Y-72175595D01*
X173817319Y-72175595D02*
X174293509Y-72127976D01*
X174293509Y-72127976D02*
X174245890Y-72175595D01*
X174245890Y-72175595D02*
X174198271Y-72270833D01*
X174198271Y-72270833D02*
X174198271Y-72508928D01*
X174198271Y-72508928D02*
X174245890Y-72604166D01*
X174245890Y-72604166D02*
X174293509Y-72651785D01*
X174293509Y-72651785D02*
X174388747Y-72699404D01*
X174388747Y-72699404D02*
X174626842Y-72699404D01*
X174626842Y-72699404D02*
X174722080Y-72651785D01*
X174722080Y-72651785D02*
X174769700Y-72604166D01*
X174769700Y-72604166D02*
X174817319Y-72508928D01*
X174817319Y-72508928D02*
X174817319Y-72270833D01*
X174817319Y-72270833D02*
X174769700Y-72175595D01*
X174769700Y-72175595D02*
X174722080Y-72127976D01*
X46061069Y-46863095D02*
X46870592Y-46863095D01*
X46870592Y-46863095D02*
X46965830Y-46910714D01*
X46965830Y-46910714D02*
X47013450Y-46958333D01*
X47013450Y-46958333D02*
X47061069Y-47053571D01*
X47061069Y-47053571D02*
X47061069Y-47244047D01*
X47061069Y-47244047D02*
X47013450Y-47339285D01*
X47013450Y-47339285D02*
X46965830Y-47386904D01*
X46965830Y-47386904D02*
X46870592Y-47434523D01*
X46870592Y-47434523D02*
X46061069Y-47434523D01*
X46156307Y-47863095D02*
X46108688Y-47910714D01*
X46108688Y-47910714D02*
X46061069Y-48005952D01*
X46061069Y-48005952D02*
X46061069Y-48244047D01*
X46061069Y-48244047D02*
X46108688Y-48339285D01*
X46108688Y-48339285D02*
X46156307Y-48386904D01*
X46156307Y-48386904D02*
X46251545Y-48434523D01*
X46251545Y-48434523D02*
X46346783Y-48434523D01*
X46346783Y-48434523D02*
X46489640Y-48386904D01*
X46489640Y-48386904D02*
X47061069Y-47815476D01*
X47061069Y-47815476D02*
X47061069Y-48434523D01*
X50992319Y-108323214D02*
X49992319Y-108323214D01*
X49992319Y-108323214D02*
X49992319Y-108561309D01*
X49992319Y-108561309D02*
X50039938Y-108704166D01*
X50039938Y-108704166D02*
X50135176Y-108799404D01*
X50135176Y-108799404D02*
X50230414Y-108847023D01*
X50230414Y-108847023D02*
X50420890Y-108894642D01*
X50420890Y-108894642D02*
X50563747Y-108894642D01*
X50563747Y-108894642D02*
X50754223Y-108847023D01*
X50754223Y-108847023D02*
X50849461Y-108799404D01*
X50849461Y-108799404D02*
X50944700Y-108704166D01*
X50944700Y-108704166D02*
X50992319Y-108561309D01*
X50992319Y-108561309D02*
X50992319Y-108323214D01*
X50992319Y-109847023D02*
X50992319Y-109275595D01*
X50992319Y-109561309D02*
X49992319Y-109561309D01*
X49992319Y-109561309D02*
X50135176Y-109466071D01*
X50135176Y-109466071D02*
X50230414Y-109370833D01*
X50230414Y-109370833D02*
X50278033Y-109275595D01*
X49992319Y-110466071D02*
X49992319Y-110561309D01*
X49992319Y-110561309D02*
X50039938Y-110656547D01*
X50039938Y-110656547D02*
X50087557Y-110704166D01*
X50087557Y-110704166D02*
X50182795Y-110751785D01*
X50182795Y-110751785D02*
X50373271Y-110799404D01*
X50373271Y-110799404D02*
X50611366Y-110799404D01*
X50611366Y-110799404D02*
X50801842Y-110751785D01*
X50801842Y-110751785D02*
X50897080Y-110704166D01*
X50897080Y-110704166D02*
X50944700Y-110656547D01*
X50944700Y-110656547D02*
X50992319Y-110561309D01*
X50992319Y-110561309D02*
X50992319Y-110466071D01*
X50992319Y-110466071D02*
X50944700Y-110370833D01*
X50944700Y-110370833D02*
X50897080Y-110323214D01*
X50897080Y-110323214D02*
X50801842Y-110275595D01*
X50801842Y-110275595D02*
X50611366Y-110227976D01*
X50611366Y-110227976D02*
X50373271Y-110227976D01*
X50373271Y-110227976D02*
X50182795Y-110275595D01*
X50182795Y-110275595D02*
X50087557Y-110323214D01*
X50087557Y-110323214D02*
X50039938Y-110370833D01*
X50039938Y-110370833D02*
X49992319Y-110466071D01*
X189104819Y-51173214D02*
X188104819Y-51173214D01*
X188104819Y-51173214D02*
X188104819Y-51411309D01*
X188104819Y-51411309D02*
X188152438Y-51554166D01*
X188152438Y-51554166D02*
X188247676Y-51649404D01*
X188247676Y-51649404D02*
X188342914Y-51697023D01*
X188342914Y-51697023D02*
X188533390Y-51744642D01*
X188533390Y-51744642D02*
X188676247Y-51744642D01*
X188676247Y-51744642D02*
X188866723Y-51697023D01*
X188866723Y-51697023D02*
X188961961Y-51649404D01*
X188961961Y-51649404D02*
X189057200Y-51554166D01*
X189057200Y-51554166D02*
X189104819Y-51411309D01*
X189104819Y-51411309D02*
X189104819Y-51173214D01*
X188104819Y-52077976D02*
X188104819Y-52697023D01*
X188104819Y-52697023D02*
X188485771Y-52363690D01*
X188485771Y-52363690D02*
X188485771Y-52506547D01*
X188485771Y-52506547D02*
X188533390Y-52601785D01*
X188533390Y-52601785D02*
X188581009Y-52649404D01*
X188581009Y-52649404D02*
X188676247Y-52697023D01*
X188676247Y-52697023D02*
X188914342Y-52697023D01*
X188914342Y-52697023D02*
X189009580Y-52649404D01*
X189009580Y-52649404D02*
X189057200Y-52601785D01*
X189057200Y-52601785D02*
X189104819Y-52506547D01*
X189104819Y-52506547D02*
X189104819Y-52220833D01*
X189104819Y-52220833D02*
X189057200Y-52125595D01*
X189057200Y-52125595D02*
X189009580Y-52077976D01*
X188438152Y-53554166D02*
X189104819Y-53554166D01*
X188057200Y-53316071D02*
X188771485Y-53077976D01*
X188771485Y-53077976D02*
X188771485Y-53697023D01*
X160529819Y-32123214D02*
X159529819Y-32123214D01*
X159529819Y-32123214D02*
X159529819Y-32361309D01*
X159529819Y-32361309D02*
X159577438Y-32504166D01*
X159577438Y-32504166D02*
X159672676Y-32599404D01*
X159672676Y-32599404D02*
X159767914Y-32647023D01*
X159767914Y-32647023D02*
X159958390Y-32694642D01*
X159958390Y-32694642D02*
X160101247Y-32694642D01*
X160101247Y-32694642D02*
X160291723Y-32647023D01*
X160291723Y-32647023D02*
X160386961Y-32599404D01*
X160386961Y-32599404D02*
X160482200Y-32504166D01*
X160482200Y-32504166D02*
X160529819Y-32361309D01*
X160529819Y-32361309D02*
X160529819Y-32123214D01*
X159529819Y-33027976D02*
X159529819Y-33647023D01*
X159529819Y-33647023D02*
X159910771Y-33313690D01*
X159910771Y-33313690D02*
X159910771Y-33456547D01*
X159910771Y-33456547D02*
X159958390Y-33551785D01*
X159958390Y-33551785D02*
X160006009Y-33599404D01*
X160006009Y-33599404D02*
X160101247Y-33647023D01*
X160101247Y-33647023D02*
X160339342Y-33647023D01*
X160339342Y-33647023D02*
X160434580Y-33599404D01*
X160434580Y-33599404D02*
X160482200Y-33551785D01*
X160482200Y-33551785D02*
X160529819Y-33456547D01*
X160529819Y-33456547D02*
X160529819Y-33170833D01*
X160529819Y-33170833D02*
X160482200Y-33075595D01*
X160482200Y-33075595D02*
X160434580Y-33027976D01*
X159529819Y-33980357D02*
X159529819Y-34599404D01*
X159529819Y-34599404D02*
X159910771Y-34266071D01*
X159910771Y-34266071D02*
X159910771Y-34408928D01*
X159910771Y-34408928D02*
X159958390Y-34504166D01*
X159958390Y-34504166D02*
X160006009Y-34551785D01*
X160006009Y-34551785D02*
X160101247Y-34599404D01*
X160101247Y-34599404D02*
X160339342Y-34599404D01*
X160339342Y-34599404D02*
X160434580Y-34551785D01*
X160434580Y-34551785D02*
X160482200Y-34504166D01*
X160482200Y-34504166D02*
X160529819Y-34408928D01*
X160529819Y-34408928D02*
X160529819Y-34123214D01*
X160529819Y-34123214D02*
X160482200Y-34027976D01*
X160482200Y-34027976D02*
X160434580Y-33980357D01*
X260542319Y-89273214D02*
X259542319Y-89273214D01*
X259542319Y-89273214D02*
X259542319Y-89511309D01*
X259542319Y-89511309D02*
X259589938Y-89654166D01*
X259589938Y-89654166D02*
X259685176Y-89749404D01*
X259685176Y-89749404D02*
X259780414Y-89797023D01*
X259780414Y-89797023D02*
X259970890Y-89844642D01*
X259970890Y-89844642D02*
X260113747Y-89844642D01*
X260113747Y-89844642D02*
X260304223Y-89797023D01*
X260304223Y-89797023D02*
X260399461Y-89749404D01*
X260399461Y-89749404D02*
X260494700Y-89654166D01*
X260494700Y-89654166D02*
X260542319Y-89511309D01*
X260542319Y-89511309D02*
X260542319Y-89273214D01*
X259542319Y-90749404D02*
X259542319Y-90273214D01*
X259542319Y-90273214D02*
X260018509Y-90225595D01*
X260018509Y-90225595D02*
X259970890Y-90273214D01*
X259970890Y-90273214D02*
X259923271Y-90368452D01*
X259923271Y-90368452D02*
X259923271Y-90606547D01*
X259923271Y-90606547D02*
X259970890Y-90701785D01*
X259970890Y-90701785D02*
X260018509Y-90749404D01*
X260018509Y-90749404D02*
X260113747Y-90797023D01*
X260113747Y-90797023D02*
X260351842Y-90797023D01*
X260351842Y-90797023D02*
X260447080Y-90749404D01*
X260447080Y-90749404D02*
X260494700Y-90701785D01*
X260494700Y-90701785D02*
X260542319Y-90606547D01*
X260542319Y-90606547D02*
X260542319Y-90368452D01*
X260542319Y-90368452D02*
X260494700Y-90273214D01*
X260494700Y-90273214D02*
X260447080Y-90225595D01*
X259542319Y-91701785D02*
X259542319Y-91225595D01*
X259542319Y-91225595D02*
X260018509Y-91177976D01*
X260018509Y-91177976D02*
X259970890Y-91225595D01*
X259970890Y-91225595D02*
X259923271Y-91320833D01*
X259923271Y-91320833D02*
X259923271Y-91558928D01*
X259923271Y-91558928D02*
X259970890Y-91654166D01*
X259970890Y-91654166D02*
X260018509Y-91701785D01*
X260018509Y-91701785D02*
X260113747Y-91749404D01*
X260113747Y-91749404D02*
X260351842Y-91749404D01*
X260351842Y-91749404D02*
X260447080Y-91701785D01*
X260447080Y-91701785D02*
X260494700Y-91654166D01*
X260494700Y-91654166D02*
X260542319Y-91558928D01*
X260542319Y-91558928D02*
X260542319Y-91320833D01*
X260542319Y-91320833D02*
X260494700Y-91225595D01*
X260494700Y-91225595D02*
X260447080Y-91177976D01*
X62898569Y-70699405D02*
X61898569Y-70699405D01*
X61898569Y-70699405D02*
X61898569Y-70937500D01*
X61898569Y-70937500D02*
X61946188Y-71080357D01*
X61946188Y-71080357D02*
X62041426Y-71175595D01*
X62041426Y-71175595D02*
X62136664Y-71223214D01*
X62136664Y-71223214D02*
X62327140Y-71270833D01*
X62327140Y-71270833D02*
X62469997Y-71270833D01*
X62469997Y-71270833D02*
X62660473Y-71223214D01*
X62660473Y-71223214D02*
X62755711Y-71175595D01*
X62755711Y-71175595D02*
X62850950Y-71080357D01*
X62850950Y-71080357D02*
X62898569Y-70937500D01*
X62898569Y-70937500D02*
X62898569Y-70699405D01*
X62327140Y-71842262D02*
X62279521Y-71747024D01*
X62279521Y-71747024D02*
X62231902Y-71699405D01*
X62231902Y-71699405D02*
X62136664Y-71651786D01*
X62136664Y-71651786D02*
X62089045Y-71651786D01*
X62089045Y-71651786D02*
X61993807Y-71699405D01*
X61993807Y-71699405D02*
X61946188Y-71747024D01*
X61946188Y-71747024D02*
X61898569Y-71842262D01*
X61898569Y-71842262D02*
X61898569Y-72032738D01*
X61898569Y-72032738D02*
X61946188Y-72127976D01*
X61946188Y-72127976D02*
X61993807Y-72175595D01*
X61993807Y-72175595D02*
X62089045Y-72223214D01*
X62089045Y-72223214D02*
X62136664Y-72223214D01*
X62136664Y-72223214D02*
X62231902Y-72175595D01*
X62231902Y-72175595D02*
X62279521Y-72127976D01*
X62279521Y-72127976D02*
X62327140Y-72032738D01*
X62327140Y-72032738D02*
X62327140Y-71842262D01*
X62327140Y-71842262D02*
X62374759Y-71747024D01*
X62374759Y-71747024D02*
X62422378Y-71699405D01*
X62422378Y-71699405D02*
X62517616Y-71651786D01*
X62517616Y-71651786D02*
X62708092Y-71651786D01*
X62708092Y-71651786D02*
X62803330Y-71699405D01*
X62803330Y-71699405D02*
X62850950Y-71747024D01*
X62850950Y-71747024D02*
X62898569Y-71842262D01*
X62898569Y-71842262D02*
X62898569Y-72032738D01*
X62898569Y-72032738D02*
X62850950Y-72127976D01*
X62850950Y-72127976D02*
X62803330Y-72175595D01*
X62803330Y-72175595D02*
X62708092Y-72223214D01*
X62708092Y-72223214D02*
X62517616Y-72223214D01*
X62517616Y-72223214D02*
X62422378Y-72175595D01*
X62422378Y-72175595D02*
X62374759Y-72127976D01*
X62374759Y-72127976D02*
X62327140Y-72032738D01*
X312929819Y-51173214D02*
X311929819Y-51173214D01*
X311929819Y-51173214D02*
X311929819Y-51411309D01*
X311929819Y-51411309D02*
X311977438Y-51554166D01*
X311977438Y-51554166D02*
X312072676Y-51649404D01*
X312072676Y-51649404D02*
X312167914Y-51697023D01*
X312167914Y-51697023D02*
X312358390Y-51744642D01*
X312358390Y-51744642D02*
X312501247Y-51744642D01*
X312501247Y-51744642D02*
X312691723Y-51697023D01*
X312691723Y-51697023D02*
X312786961Y-51649404D01*
X312786961Y-51649404D02*
X312882200Y-51554166D01*
X312882200Y-51554166D02*
X312929819Y-51411309D01*
X312929819Y-51411309D02*
X312929819Y-51173214D01*
X311929819Y-52601785D02*
X311929819Y-52411309D01*
X311929819Y-52411309D02*
X311977438Y-52316071D01*
X311977438Y-52316071D02*
X312025057Y-52268452D01*
X312025057Y-52268452D02*
X312167914Y-52173214D01*
X312167914Y-52173214D02*
X312358390Y-52125595D01*
X312358390Y-52125595D02*
X312739342Y-52125595D01*
X312739342Y-52125595D02*
X312834580Y-52173214D01*
X312834580Y-52173214D02*
X312882200Y-52220833D01*
X312882200Y-52220833D02*
X312929819Y-52316071D01*
X312929819Y-52316071D02*
X312929819Y-52506547D01*
X312929819Y-52506547D02*
X312882200Y-52601785D01*
X312882200Y-52601785D02*
X312834580Y-52649404D01*
X312834580Y-52649404D02*
X312739342Y-52697023D01*
X312739342Y-52697023D02*
X312501247Y-52697023D01*
X312501247Y-52697023D02*
X312406009Y-52649404D01*
X312406009Y-52649404D02*
X312358390Y-52601785D01*
X312358390Y-52601785D02*
X312310771Y-52506547D01*
X312310771Y-52506547D02*
X312310771Y-52316071D01*
X312310771Y-52316071D02*
X312358390Y-52220833D01*
X312358390Y-52220833D02*
X312406009Y-52173214D01*
X312406009Y-52173214D02*
X312501247Y-52125595D01*
X312025057Y-53077976D02*
X311977438Y-53125595D01*
X311977438Y-53125595D02*
X311929819Y-53220833D01*
X311929819Y-53220833D02*
X311929819Y-53458928D01*
X311929819Y-53458928D02*
X311977438Y-53554166D01*
X311977438Y-53554166D02*
X312025057Y-53601785D01*
X312025057Y-53601785D02*
X312120295Y-53649404D01*
X312120295Y-53649404D02*
X312215533Y-53649404D01*
X312215533Y-53649404D02*
X312358390Y-53601785D01*
X312358390Y-53601785D02*
X312929819Y-53030357D01*
X312929819Y-53030357D02*
X312929819Y-53649404D01*
X227204819Y-51173214D02*
X226204819Y-51173214D01*
X226204819Y-51173214D02*
X226204819Y-51411309D01*
X226204819Y-51411309D02*
X226252438Y-51554166D01*
X226252438Y-51554166D02*
X226347676Y-51649404D01*
X226347676Y-51649404D02*
X226442914Y-51697023D01*
X226442914Y-51697023D02*
X226633390Y-51744642D01*
X226633390Y-51744642D02*
X226776247Y-51744642D01*
X226776247Y-51744642D02*
X226966723Y-51697023D01*
X226966723Y-51697023D02*
X227061961Y-51649404D01*
X227061961Y-51649404D02*
X227157200Y-51554166D01*
X227157200Y-51554166D02*
X227204819Y-51411309D01*
X227204819Y-51411309D02*
X227204819Y-51173214D01*
X226538152Y-52601785D02*
X227204819Y-52601785D01*
X226157200Y-52363690D02*
X226871485Y-52125595D01*
X226871485Y-52125595D02*
X226871485Y-52744642D01*
X226204819Y-53030357D02*
X226204819Y-53649404D01*
X226204819Y-53649404D02*
X226585771Y-53316071D01*
X226585771Y-53316071D02*
X226585771Y-53458928D01*
X226585771Y-53458928D02*
X226633390Y-53554166D01*
X226633390Y-53554166D02*
X226681009Y-53601785D01*
X226681009Y-53601785D02*
X226776247Y-53649404D01*
X226776247Y-53649404D02*
X227014342Y-53649404D01*
X227014342Y-53649404D02*
X227109580Y-53601785D01*
X227109580Y-53601785D02*
X227157200Y-53554166D01*
X227157200Y-53554166D02*
X227204819Y-53458928D01*
X227204819Y-53458928D02*
X227204819Y-53173214D01*
X227204819Y-53173214D02*
X227157200Y-53077976D01*
X227157200Y-53077976D02*
X227109580Y-53030357D01*
X312904819Y-33585714D02*
X311904819Y-33585714D01*
X311904819Y-33585714D02*
X311904819Y-33823809D01*
X311904819Y-33823809D02*
X311952438Y-33966666D01*
X311952438Y-33966666D02*
X312047676Y-34061904D01*
X312047676Y-34061904D02*
X312142914Y-34109523D01*
X312142914Y-34109523D02*
X312333390Y-34157142D01*
X312333390Y-34157142D02*
X312476247Y-34157142D01*
X312476247Y-34157142D02*
X312666723Y-34109523D01*
X312666723Y-34109523D02*
X312761961Y-34061904D01*
X312761961Y-34061904D02*
X312857200Y-33966666D01*
X312857200Y-33966666D02*
X312904819Y-33823809D01*
X312904819Y-33823809D02*
X312904819Y-33585714D01*
X311904819Y-35014285D02*
X311904819Y-34823809D01*
X311904819Y-34823809D02*
X311952438Y-34728571D01*
X311952438Y-34728571D02*
X312000057Y-34680952D01*
X312000057Y-34680952D02*
X312142914Y-34585714D01*
X312142914Y-34585714D02*
X312333390Y-34538095D01*
X312333390Y-34538095D02*
X312714342Y-34538095D01*
X312714342Y-34538095D02*
X312809580Y-34585714D01*
X312809580Y-34585714D02*
X312857200Y-34633333D01*
X312857200Y-34633333D02*
X312904819Y-34728571D01*
X312904819Y-34728571D02*
X312904819Y-34919047D01*
X312904819Y-34919047D02*
X312857200Y-35014285D01*
X312857200Y-35014285D02*
X312809580Y-35061904D01*
X312809580Y-35061904D02*
X312714342Y-35109523D01*
X312714342Y-35109523D02*
X312476247Y-35109523D01*
X312476247Y-35109523D02*
X312381009Y-35061904D01*
X312381009Y-35061904D02*
X312333390Y-35014285D01*
X312333390Y-35014285D02*
X312285771Y-34919047D01*
X312285771Y-34919047D02*
X312285771Y-34728571D01*
X312285771Y-34728571D02*
X312333390Y-34633333D01*
X312333390Y-34633333D02*
X312381009Y-34585714D01*
X312381009Y-34585714D02*
X312476247Y-34538095D01*
X311904819Y-35966666D02*
X311904819Y-35776190D01*
X311904819Y-35776190D02*
X311952438Y-35680952D01*
X311952438Y-35680952D02*
X312000057Y-35633333D01*
X312000057Y-35633333D02*
X312142914Y-35538095D01*
X312142914Y-35538095D02*
X312333390Y-35490476D01*
X312333390Y-35490476D02*
X312714342Y-35490476D01*
X312714342Y-35490476D02*
X312809580Y-35538095D01*
X312809580Y-35538095D02*
X312857200Y-35585714D01*
X312857200Y-35585714D02*
X312904819Y-35680952D01*
X312904819Y-35680952D02*
X312904819Y-35871428D01*
X312904819Y-35871428D02*
X312857200Y-35966666D01*
X312857200Y-35966666D02*
X312809580Y-36014285D01*
X312809580Y-36014285D02*
X312714342Y-36061904D01*
X312714342Y-36061904D02*
X312476247Y-36061904D01*
X312476247Y-36061904D02*
X312381009Y-36014285D01*
X312381009Y-36014285D02*
X312333390Y-35966666D01*
X312333390Y-35966666D02*
X312285771Y-35871428D01*
X312285771Y-35871428D02*
X312285771Y-35680952D01*
X312285771Y-35680952D02*
X312333390Y-35585714D01*
X312333390Y-35585714D02*
X312381009Y-35538095D01*
X312381009Y-35538095D02*
X312476247Y-35490476D01*
X165292319Y-89273214D02*
X164292319Y-89273214D01*
X164292319Y-89273214D02*
X164292319Y-89511309D01*
X164292319Y-89511309D02*
X164339938Y-89654166D01*
X164339938Y-89654166D02*
X164435176Y-89749404D01*
X164435176Y-89749404D02*
X164530414Y-89797023D01*
X164530414Y-89797023D02*
X164720890Y-89844642D01*
X164720890Y-89844642D02*
X164863747Y-89844642D01*
X164863747Y-89844642D02*
X165054223Y-89797023D01*
X165054223Y-89797023D02*
X165149461Y-89749404D01*
X165149461Y-89749404D02*
X165244700Y-89654166D01*
X165244700Y-89654166D02*
X165292319Y-89511309D01*
X165292319Y-89511309D02*
X165292319Y-89273214D01*
X164292319Y-90177976D02*
X164292319Y-90797023D01*
X164292319Y-90797023D02*
X164673271Y-90463690D01*
X164673271Y-90463690D02*
X164673271Y-90606547D01*
X164673271Y-90606547D02*
X164720890Y-90701785D01*
X164720890Y-90701785D02*
X164768509Y-90749404D01*
X164768509Y-90749404D02*
X164863747Y-90797023D01*
X164863747Y-90797023D02*
X165101842Y-90797023D01*
X165101842Y-90797023D02*
X165197080Y-90749404D01*
X165197080Y-90749404D02*
X165244700Y-90701785D01*
X165244700Y-90701785D02*
X165292319Y-90606547D01*
X165292319Y-90606547D02*
X165292319Y-90320833D01*
X165292319Y-90320833D02*
X165244700Y-90225595D01*
X165244700Y-90225595D02*
X165197080Y-90177976D01*
X164387557Y-91177976D02*
X164339938Y-91225595D01*
X164339938Y-91225595D02*
X164292319Y-91320833D01*
X164292319Y-91320833D02*
X164292319Y-91558928D01*
X164292319Y-91558928D02*
X164339938Y-91654166D01*
X164339938Y-91654166D02*
X164387557Y-91701785D01*
X164387557Y-91701785D02*
X164482795Y-91749404D01*
X164482795Y-91749404D02*
X164578033Y-91749404D01*
X164578033Y-91749404D02*
X164720890Y-91701785D01*
X164720890Y-91701785D02*
X165292319Y-91130357D01*
X165292319Y-91130357D02*
X165292319Y-91749404D01*
X349166666Y-42559580D02*
X349214285Y-42607200D01*
X349214285Y-42607200D02*
X349357142Y-42654819D01*
X349357142Y-42654819D02*
X349452380Y-42654819D01*
X349452380Y-42654819D02*
X349595237Y-42607200D01*
X349595237Y-42607200D02*
X349690475Y-42511961D01*
X349690475Y-42511961D02*
X349738094Y-42416723D01*
X349738094Y-42416723D02*
X349785713Y-42226247D01*
X349785713Y-42226247D02*
X349785713Y-42083390D01*
X349785713Y-42083390D02*
X349738094Y-41892914D01*
X349738094Y-41892914D02*
X349690475Y-41797676D01*
X349690475Y-41797676D02*
X349595237Y-41702438D01*
X349595237Y-41702438D02*
X349452380Y-41654819D01*
X349452380Y-41654819D02*
X349357142Y-41654819D01*
X349357142Y-41654819D02*
X349214285Y-41702438D01*
X349214285Y-41702438D02*
X349166666Y-41750057D01*
X348690475Y-42654819D02*
X348499999Y-42654819D01*
X348499999Y-42654819D02*
X348404761Y-42607200D01*
X348404761Y-42607200D02*
X348357142Y-42559580D01*
X348357142Y-42559580D02*
X348261904Y-42416723D01*
X348261904Y-42416723D02*
X348214285Y-42226247D01*
X348214285Y-42226247D02*
X348214285Y-41845295D01*
X348214285Y-41845295D02*
X348261904Y-41750057D01*
X348261904Y-41750057D02*
X348309523Y-41702438D01*
X348309523Y-41702438D02*
X348404761Y-41654819D01*
X348404761Y-41654819D02*
X348595237Y-41654819D01*
X348595237Y-41654819D02*
X348690475Y-41702438D01*
X348690475Y-41702438D02*
X348738094Y-41750057D01*
X348738094Y-41750057D02*
X348785713Y-41845295D01*
X348785713Y-41845295D02*
X348785713Y-42083390D01*
X348785713Y-42083390D02*
X348738094Y-42178628D01*
X348738094Y-42178628D02*
X348690475Y-42226247D01*
X348690475Y-42226247D02*
X348595237Y-42273866D01*
X348595237Y-42273866D02*
X348404761Y-42273866D01*
X348404761Y-42273866D02*
X348309523Y-42226247D01*
X348309523Y-42226247D02*
X348261904Y-42178628D01*
X348261904Y-42178628D02*
X348214285Y-42083390D01*
X217679819Y-32123214D02*
X216679819Y-32123214D01*
X216679819Y-32123214D02*
X216679819Y-32361309D01*
X216679819Y-32361309D02*
X216727438Y-32504166D01*
X216727438Y-32504166D02*
X216822676Y-32599404D01*
X216822676Y-32599404D02*
X216917914Y-32647023D01*
X216917914Y-32647023D02*
X217108390Y-32694642D01*
X217108390Y-32694642D02*
X217251247Y-32694642D01*
X217251247Y-32694642D02*
X217441723Y-32647023D01*
X217441723Y-32647023D02*
X217536961Y-32599404D01*
X217536961Y-32599404D02*
X217632200Y-32504166D01*
X217632200Y-32504166D02*
X217679819Y-32361309D01*
X217679819Y-32361309D02*
X217679819Y-32123214D01*
X217013152Y-33551785D02*
X217679819Y-33551785D01*
X216632200Y-33313690D02*
X217346485Y-33075595D01*
X217346485Y-33075595D02*
X217346485Y-33694642D01*
X216679819Y-33980357D02*
X216679819Y-34647023D01*
X216679819Y-34647023D02*
X217679819Y-34218452D01*
X74804819Y-108323214D02*
X73804819Y-108323214D01*
X73804819Y-108323214D02*
X73804819Y-108561309D01*
X73804819Y-108561309D02*
X73852438Y-108704166D01*
X73852438Y-108704166D02*
X73947676Y-108799404D01*
X73947676Y-108799404D02*
X74042914Y-108847023D01*
X74042914Y-108847023D02*
X74233390Y-108894642D01*
X74233390Y-108894642D02*
X74376247Y-108894642D01*
X74376247Y-108894642D02*
X74566723Y-108847023D01*
X74566723Y-108847023D02*
X74661961Y-108799404D01*
X74661961Y-108799404D02*
X74757200Y-108704166D01*
X74757200Y-108704166D02*
X74804819Y-108561309D01*
X74804819Y-108561309D02*
X74804819Y-108323214D01*
X74804819Y-109847023D02*
X74804819Y-109275595D01*
X74804819Y-109561309D02*
X73804819Y-109561309D01*
X73804819Y-109561309D02*
X73947676Y-109466071D01*
X73947676Y-109466071D02*
X74042914Y-109370833D01*
X74042914Y-109370833D02*
X74090533Y-109275595D01*
X73804819Y-110751785D02*
X73804819Y-110275595D01*
X73804819Y-110275595D02*
X74281009Y-110227976D01*
X74281009Y-110227976D02*
X74233390Y-110275595D01*
X74233390Y-110275595D02*
X74185771Y-110370833D01*
X74185771Y-110370833D02*
X74185771Y-110608928D01*
X74185771Y-110608928D02*
X74233390Y-110704166D01*
X74233390Y-110704166D02*
X74281009Y-110751785D01*
X74281009Y-110751785D02*
X74376247Y-110799404D01*
X74376247Y-110799404D02*
X74614342Y-110799404D01*
X74614342Y-110799404D02*
X74709580Y-110751785D01*
X74709580Y-110751785D02*
X74757200Y-110704166D01*
X74757200Y-110704166D02*
X74804819Y-110608928D01*
X74804819Y-110608928D02*
X74804819Y-110370833D01*
X74804819Y-110370833D02*
X74757200Y-110275595D01*
X74757200Y-110275595D02*
X74709580Y-110227976D01*
X236729819Y-108323214D02*
X235729819Y-108323214D01*
X235729819Y-108323214D02*
X235729819Y-108561309D01*
X235729819Y-108561309D02*
X235777438Y-108704166D01*
X235777438Y-108704166D02*
X235872676Y-108799404D01*
X235872676Y-108799404D02*
X235967914Y-108847023D01*
X235967914Y-108847023D02*
X236158390Y-108894642D01*
X236158390Y-108894642D02*
X236301247Y-108894642D01*
X236301247Y-108894642D02*
X236491723Y-108847023D01*
X236491723Y-108847023D02*
X236586961Y-108799404D01*
X236586961Y-108799404D02*
X236682200Y-108704166D01*
X236682200Y-108704166D02*
X236729819Y-108561309D01*
X236729819Y-108561309D02*
X236729819Y-108323214D01*
X236063152Y-109751785D02*
X236729819Y-109751785D01*
X235682200Y-109513690D02*
X236396485Y-109275595D01*
X236396485Y-109275595D02*
X236396485Y-109894642D01*
X235729819Y-110704166D02*
X235729819Y-110513690D01*
X235729819Y-110513690D02*
X235777438Y-110418452D01*
X235777438Y-110418452D02*
X235825057Y-110370833D01*
X235825057Y-110370833D02*
X235967914Y-110275595D01*
X235967914Y-110275595D02*
X236158390Y-110227976D01*
X236158390Y-110227976D02*
X236539342Y-110227976D01*
X236539342Y-110227976D02*
X236634580Y-110275595D01*
X236634580Y-110275595D02*
X236682200Y-110323214D01*
X236682200Y-110323214D02*
X236729819Y-110418452D01*
X236729819Y-110418452D02*
X236729819Y-110608928D01*
X236729819Y-110608928D02*
X236682200Y-110704166D01*
X236682200Y-110704166D02*
X236634580Y-110751785D01*
X236634580Y-110751785D02*
X236539342Y-110799404D01*
X236539342Y-110799404D02*
X236301247Y-110799404D01*
X236301247Y-110799404D02*
X236206009Y-110751785D01*
X236206009Y-110751785D02*
X236158390Y-110704166D01*
X236158390Y-110704166D02*
X236110771Y-110608928D01*
X236110771Y-110608928D02*
X236110771Y-110418452D01*
X236110771Y-110418452D02*
X236158390Y-110323214D01*
X236158390Y-110323214D02*
X236206009Y-110275595D01*
X236206009Y-110275595D02*
X236301247Y-110227976D01*
X312929819Y-108323214D02*
X311929819Y-108323214D01*
X311929819Y-108323214D02*
X311929819Y-108561309D01*
X311929819Y-108561309D02*
X311977438Y-108704166D01*
X311977438Y-108704166D02*
X312072676Y-108799404D01*
X312072676Y-108799404D02*
X312167914Y-108847023D01*
X312167914Y-108847023D02*
X312358390Y-108894642D01*
X312358390Y-108894642D02*
X312501247Y-108894642D01*
X312501247Y-108894642D02*
X312691723Y-108847023D01*
X312691723Y-108847023D02*
X312786961Y-108799404D01*
X312786961Y-108799404D02*
X312882200Y-108704166D01*
X312882200Y-108704166D02*
X312929819Y-108561309D01*
X312929819Y-108561309D02*
X312929819Y-108323214D01*
X311929819Y-109751785D02*
X311929819Y-109561309D01*
X311929819Y-109561309D02*
X311977438Y-109466071D01*
X311977438Y-109466071D02*
X312025057Y-109418452D01*
X312025057Y-109418452D02*
X312167914Y-109323214D01*
X312167914Y-109323214D02*
X312358390Y-109275595D01*
X312358390Y-109275595D02*
X312739342Y-109275595D01*
X312739342Y-109275595D02*
X312834580Y-109323214D01*
X312834580Y-109323214D02*
X312882200Y-109370833D01*
X312882200Y-109370833D02*
X312929819Y-109466071D01*
X312929819Y-109466071D02*
X312929819Y-109656547D01*
X312929819Y-109656547D02*
X312882200Y-109751785D01*
X312882200Y-109751785D02*
X312834580Y-109799404D01*
X312834580Y-109799404D02*
X312739342Y-109847023D01*
X312739342Y-109847023D02*
X312501247Y-109847023D01*
X312501247Y-109847023D02*
X312406009Y-109799404D01*
X312406009Y-109799404D02*
X312358390Y-109751785D01*
X312358390Y-109751785D02*
X312310771Y-109656547D01*
X312310771Y-109656547D02*
X312310771Y-109466071D01*
X312310771Y-109466071D02*
X312358390Y-109370833D01*
X312358390Y-109370833D02*
X312406009Y-109323214D01*
X312406009Y-109323214D02*
X312501247Y-109275595D01*
X311929819Y-110751785D02*
X311929819Y-110275595D01*
X311929819Y-110275595D02*
X312406009Y-110227976D01*
X312406009Y-110227976D02*
X312358390Y-110275595D01*
X312358390Y-110275595D02*
X312310771Y-110370833D01*
X312310771Y-110370833D02*
X312310771Y-110608928D01*
X312310771Y-110608928D02*
X312358390Y-110704166D01*
X312358390Y-110704166D02*
X312406009Y-110751785D01*
X312406009Y-110751785D02*
X312501247Y-110799404D01*
X312501247Y-110799404D02*
X312739342Y-110799404D01*
X312739342Y-110799404D02*
X312834580Y-110751785D01*
X312834580Y-110751785D02*
X312882200Y-110704166D01*
X312882200Y-110704166D02*
X312929819Y-110608928D01*
X312929819Y-110608928D02*
X312929819Y-110370833D01*
X312929819Y-110370833D02*
X312882200Y-110275595D01*
X312882200Y-110275595D02*
X312834580Y-110227976D01*
X236729819Y-32123214D02*
X235729819Y-32123214D01*
X235729819Y-32123214D02*
X235729819Y-32361309D01*
X235729819Y-32361309D02*
X235777438Y-32504166D01*
X235777438Y-32504166D02*
X235872676Y-32599404D01*
X235872676Y-32599404D02*
X235967914Y-32647023D01*
X235967914Y-32647023D02*
X236158390Y-32694642D01*
X236158390Y-32694642D02*
X236301247Y-32694642D01*
X236301247Y-32694642D02*
X236491723Y-32647023D01*
X236491723Y-32647023D02*
X236586961Y-32599404D01*
X236586961Y-32599404D02*
X236682200Y-32504166D01*
X236682200Y-32504166D02*
X236729819Y-32361309D01*
X236729819Y-32361309D02*
X236729819Y-32123214D01*
X235729819Y-33599404D02*
X235729819Y-33123214D01*
X235729819Y-33123214D02*
X236206009Y-33075595D01*
X236206009Y-33075595D02*
X236158390Y-33123214D01*
X236158390Y-33123214D02*
X236110771Y-33218452D01*
X236110771Y-33218452D02*
X236110771Y-33456547D01*
X236110771Y-33456547D02*
X236158390Y-33551785D01*
X236158390Y-33551785D02*
X236206009Y-33599404D01*
X236206009Y-33599404D02*
X236301247Y-33647023D01*
X236301247Y-33647023D02*
X236539342Y-33647023D01*
X236539342Y-33647023D02*
X236634580Y-33599404D01*
X236634580Y-33599404D02*
X236682200Y-33551785D01*
X236682200Y-33551785D02*
X236729819Y-33456547D01*
X236729819Y-33456547D02*
X236729819Y-33218452D01*
X236729819Y-33218452D02*
X236682200Y-33123214D01*
X236682200Y-33123214D02*
X236634580Y-33075595D01*
X235825057Y-34027976D02*
X235777438Y-34075595D01*
X235777438Y-34075595D02*
X235729819Y-34170833D01*
X235729819Y-34170833D02*
X235729819Y-34408928D01*
X235729819Y-34408928D02*
X235777438Y-34504166D01*
X235777438Y-34504166D02*
X235825057Y-34551785D01*
X235825057Y-34551785D02*
X235920295Y-34599404D01*
X235920295Y-34599404D02*
X236015533Y-34599404D01*
X236015533Y-34599404D02*
X236158390Y-34551785D01*
X236158390Y-34551785D02*
X236729819Y-33980357D01*
X236729819Y-33980357D02*
X236729819Y-34599404D01*
X33054819Y-108861905D02*
X32054819Y-108861905D01*
X32054819Y-108861905D02*
X32054819Y-109100000D01*
X32054819Y-109100000D02*
X32102438Y-109242857D01*
X32102438Y-109242857D02*
X32197676Y-109338095D01*
X32197676Y-109338095D02*
X32292914Y-109385714D01*
X32292914Y-109385714D02*
X32483390Y-109433333D01*
X32483390Y-109433333D02*
X32626247Y-109433333D01*
X32626247Y-109433333D02*
X32816723Y-109385714D01*
X32816723Y-109385714D02*
X32911961Y-109338095D01*
X32911961Y-109338095D02*
X33007200Y-109242857D01*
X33007200Y-109242857D02*
X33054819Y-109100000D01*
X33054819Y-109100000D02*
X33054819Y-108861905D01*
X32054819Y-110338095D02*
X32054819Y-109861905D01*
X32054819Y-109861905D02*
X32531009Y-109814286D01*
X32531009Y-109814286D02*
X32483390Y-109861905D01*
X32483390Y-109861905D02*
X32435771Y-109957143D01*
X32435771Y-109957143D02*
X32435771Y-110195238D01*
X32435771Y-110195238D02*
X32483390Y-110290476D01*
X32483390Y-110290476D02*
X32531009Y-110338095D01*
X32531009Y-110338095D02*
X32626247Y-110385714D01*
X32626247Y-110385714D02*
X32864342Y-110385714D01*
X32864342Y-110385714D02*
X32959580Y-110338095D01*
X32959580Y-110338095D02*
X33007200Y-110290476D01*
X33007200Y-110290476D02*
X33054819Y-110195238D01*
X33054819Y-110195238D02*
X33054819Y-109957143D01*
X33054819Y-109957143D02*
X33007200Y-109861905D01*
X33007200Y-109861905D02*
X32959580Y-109814286D01*
X33154819Y-89761905D02*
X32154819Y-89761905D01*
X32154819Y-89761905D02*
X32154819Y-90000000D01*
X32154819Y-90000000D02*
X32202438Y-90142857D01*
X32202438Y-90142857D02*
X32297676Y-90238095D01*
X32297676Y-90238095D02*
X32392914Y-90285714D01*
X32392914Y-90285714D02*
X32583390Y-90333333D01*
X32583390Y-90333333D02*
X32726247Y-90333333D01*
X32726247Y-90333333D02*
X32916723Y-90285714D01*
X32916723Y-90285714D02*
X33011961Y-90238095D01*
X33011961Y-90238095D02*
X33107200Y-90142857D01*
X33107200Y-90142857D02*
X33154819Y-90000000D01*
X33154819Y-90000000D02*
X33154819Y-89761905D01*
X32488152Y-91190476D02*
X33154819Y-91190476D01*
X32107200Y-90952381D02*
X32821485Y-90714286D01*
X32821485Y-90714286D02*
X32821485Y-91333333D01*
X41713690Y-65678628D02*
X41713690Y-66154819D01*
X42047023Y-65154819D02*
X41713690Y-65678628D01*
X41713690Y-65678628D02*
X41380357Y-65154819D01*
X40523214Y-66154819D02*
X41094642Y-66154819D01*
X40808928Y-66154819D02*
X40808928Y-65154819D01*
X40808928Y-65154819D02*
X40904166Y-65297676D01*
X40904166Y-65297676D02*
X40999404Y-65392914D01*
X40999404Y-65392914D02*
X41094642Y-65440533D01*
X89092319Y-89273214D02*
X88092319Y-89273214D01*
X88092319Y-89273214D02*
X88092319Y-89511309D01*
X88092319Y-89511309D02*
X88139938Y-89654166D01*
X88139938Y-89654166D02*
X88235176Y-89749404D01*
X88235176Y-89749404D02*
X88330414Y-89797023D01*
X88330414Y-89797023D02*
X88520890Y-89844642D01*
X88520890Y-89844642D02*
X88663747Y-89844642D01*
X88663747Y-89844642D02*
X88854223Y-89797023D01*
X88854223Y-89797023D02*
X88949461Y-89749404D01*
X88949461Y-89749404D02*
X89044700Y-89654166D01*
X89044700Y-89654166D02*
X89092319Y-89511309D01*
X89092319Y-89511309D02*
X89092319Y-89273214D01*
X89092319Y-90797023D02*
X89092319Y-90225595D01*
X89092319Y-90511309D02*
X88092319Y-90511309D01*
X88092319Y-90511309D02*
X88235176Y-90416071D01*
X88235176Y-90416071D02*
X88330414Y-90320833D01*
X88330414Y-90320833D02*
X88378033Y-90225595D01*
X88425652Y-91654166D02*
X89092319Y-91654166D01*
X88044700Y-91416071D02*
X88758985Y-91177976D01*
X88758985Y-91177976D02*
X88758985Y-91797023D01*
X84329819Y-32123214D02*
X83329819Y-32123214D01*
X83329819Y-32123214D02*
X83329819Y-32361309D01*
X83329819Y-32361309D02*
X83377438Y-32504166D01*
X83377438Y-32504166D02*
X83472676Y-32599404D01*
X83472676Y-32599404D02*
X83567914Y-32647023D01*
X83567914Y-32647023D02*
X83758390Y-32694642D01*
X83758390Y-32694642D02*
X83901247Y-32694642D01*
X83901247Y-32694642D02*
X84091723Y-32647023D01*
X84091723Y-32647023D02*
X84186961Y-32599404D01*
X84186961Y-32599404D02*
X84282200Y-32504166D01*
X84282200Y-32504166D02*
X84329819Y-32361309D01*
X84329819Y-32361309D02*
X84329819Y-32123214D01*
X84329819Y-33647023D02*
X84329819Y-33075595D01*
X84329819Y-33361309D02*
X83329819Y-33361309D01*
X83329819Y-33361309D02*
X83472676Y-33266071D01*
X83472676Y-33266071D02*
X83567914Y-33170833D01*
X83567914Y-33170833D02*
X83615533Y-33075595D01*
X83329819Y-34504166D02*
X83329819Y-34313690D01*
X83329819Y-34313690D02*
X83377438Y-34218452D01*
X83377438Y-34218452D02*
X83425057Y-34170833D01*
X83425057Y-34170833D02*
X83567914Y-34075595D01*
X83567914Y-34075595D02*
X83758390Y-34027976D01*
X83758390Y-34027976D02*
X84139342Y-34027976D01*
X84139342Y-34027976D02*
X84234580Y-34075595D01*
X84234580Y-34075595D02*
X84282200Y-34123214D01*
X84282200Y-34123214D02*
X84329819Y-34218452D01*
X84329819Y-34218452D02*
X84329819Y-34408928D01*
X84329819Y-34408928D02*
X84282200Y-34504166D01*
X84282200Y-34504166D02*
X84234580Y-34551785D01*
X84234580Y-34551785D02*
X84139342Y-34599404D01*
X84139342Y-34599404D02*
X83901247Y-34599404D01*
X83901247Y-34599404D02*
X83806009Y-34551785D01*
X83806009Y-34551785D02*
X83758390Y-34504166D01*
X83758390Y-34504166D02*
X83710771Y-34408928D01*
X83710771Y-34408928D02*
X83710771Y-34218452D01*
X83710771Y-34218452D02*
X83758390Y-34123214D01*
X83758390Y-34123214D02*
X83806009Y-34075595D01*
X83806009Y-34075595D02*
X83901247Y-34027976D01*
X222442319Y-89273214D02*
X221442319Y-89273214D01*
X221442319Y-89273214D02*
X221442319Y-89511309D01*
X221442319Y-89511309D02*
X221489938Y-89654166D01*
X221489938Y-89654166D02*
X221585176Y-89749404D01*
X221585176Y-89749404D02*
X221680414Y-89797023D01*
X221680414Y-89797023D02*
X221870890Y-89844642D01*
X221870890Y-89844642D02*
X222013747Y-89844642D01*
X222013747Y-89844642D02*
X222204223Y-89797023D01*
X222204223Y-89797023D02*
X222299461Y-89749404D01*
X222299461Y-89749404D02*
X222394700Y-89654166D01*
X222394700Y-89654166D02*
X222442319Y-89511309D01*
X222442319Y-89511309D02*
X222442319Y-89273214D01*
X221775652Y-90701785D02*
X222442319Y-90701785D01*
X221394700Y-90463690D02*
X222108985Y-90225595D01*
X222108985Y-90225595D02*
X222108985Y-90844642D01*
X221442319Y-91701785D02*
X221442319Y-91225595D01*
X221442319Y-91225595D02*
X221918509Y-91177976D01*
X221918509Y-91177976D02*
X221870890Y-91225595D01*
X221870890Y-91225595D02*
X221823271Y-91320833D01*
X221823271Y-91320833D02*
X221823271Y-91558928D01*
X221823271Y-91558928D02*
X221870890Y-91654166D01*
X221870890Y-91654166D02*
X221918509Y-91701785D01*
X221918509Y-91701785D02*
X222013747Y-91749404D01*
X222013747Y-91749404D02*
X222251842Y-91749404D01*
X222251842Y-91749404D02*
X222347080Y-91701785D01*
X222347080Y-91701785D02*
X222394700Y-91654166D01*
X222394700Y-91654166D02*
X222442319Y-91558928D01*
X222442319Y-91558928D02*
X222442319Y-91320833D01*
X222442319Y-91320833D02*
X222394700Y-91225595D01*
X222394700Y-91225595D02*
X222347080Y-91177976D01*
X112904819Y-51173214D02*
X111904819Y-51173214D01*
X111904819Y-51173214D02*
X111904819Y-51411309D01*
X111904819Y-51411309D02*
X111952438Y-51554166D01*
X111952438Y-51554166D02*
X112047676Y-51649404D01*
X112047676Y-51649404D02*
X112142914Y-51697023D01*
X112142914Y-51697023D02*
X112333390Y-51744642D01*
X112333390Y-51744642D02*
X112476247Y-51744642D01*
X112476247Y-51744642D02*
X112666723Y-51697023D01*
X112666723Y-51697023D02*
X112761961Y-51649404D01*
X112761961Y-51649404D02*
X112857200Y-51554166D01*
X112857200Y-51554166D02*
X112904819Y-51411309D01*
X112904819Y-51411309D02*
X112904819Y-51173214D01*
X112904819Y-52697023D02*
X112904819Y-52125595D01*
X112904819Y-52411309D02*
X111904819Y-52411309D01*
X111904819Y-52411309D02*
X112047676Y-52316071D01*
X112047676Y-52316071D02*
X112142914Y-52220833D01*
X112142914Y-52220833D02*
X112190533Y-52125595D01*
X111904819Y-53030357D02*
X111904819Y-53697023D01*
X111904819Y-53697023D02*
X112904819Y-53268452D01*
X122429819Y-32123214D02*
X121429819Y-32123214D01*
X121429819Y-32123214D02*
X121429819Y-32361309D01*
X121429819Y-32361309D02*
X121477438Y-32504166D01*
X121477438Y-32504166D02*
X121572676Y-32599404D01*
X121572676Y-32599404D02*
X121667914Y-32647023D01*
X121667914Y-32647023D02*
X121858390Y-32694642D01*
X121858390Y-32694642D02*
X122001247Y-32694642D01*
X122001247Y-32694642D02*
X122191723Y-32647023D01*
X122191723Y-32647023D02*
X122286961Y-32599404D01*
X122286961Y-32599404D02*
X122382200Y-32504166D01*
X122382200Y-32504166D02*
X122429819Y-32361309D01*
X122429819Y-32361309D02*
X122429819Y-32123214D01*
X121525057Y-33075595D02*
X121477438Y-33123214D01*
X121477438Y-33123214D02*
X121429819Y-33218452D01*
X121429819Y-33218452D02*
X121429819Y-33456547D01*
X121429819Y-33456547D02*
X121477438Y-33551785D01*
X121477438Y-33551785D02*
X121525057Y-33599404D01*
X121525057Y-33599404D02*
X121620295Y-33647023D01*
X121620295Y-33647023D02*
X121715533Y-33647023D01*
X121715533Y-33647023D02*
X121858390Y-33599404D01*
X121858390Y-33599404D02*
X122429819Y-33027976D01*
X122429819Y-33027976D02*
X122429819Y-33647023D01*
X121429819Y-34551785D02*
X121429819Y-34075595D01*
X121429819Y-34075595D02*
X121906009Y-34027976D01*
X121906009Y-34027976D02*
X121858390Y-34075595D01*
X121858390Y-34075595D02*
X121810771Y-34170833D01*
X121810771Y-34170833D02*
X121810771Y-34408928D01*
X121810771Y-34408928D02*
X121858390Y-34504166D01*
X121858390Y-34504166D02*
X121906009Y-34551785D01*
X121906009Y-34551785D02*
X122001247Y-34599404D01*
X122001247Y-34599404D02*
X122239342Y-34599404D01*
X122239342Y-34599404D02*
X122334580Y-34551785D01*
X122334580Y-34551785D02*
X122382200Y-34504166D01*
X122382200Y-34504166D02*
X122429819Y-34408928D01*
X122429819Y-34408928D02*
X122429819Y-34170833D01*
X122429819Y-34170833D02*
X122382200Y-34075595D01*
X122382200Y-34075595D02*
X122334580Y-34027976D01*
X45429166Y-60959580D02*
X45476785Y-61007200D01*
X45476785Y-61007200D02*
X45619642Y-61054819D01*
X45619642Y-61054819D02*
X45714880Y-61054819D01*
X45714880Y-61054819D02*
X45857737Y-61007200D01*
X45857737Y-61007200D02*
X45952975Y-60911961D01*
X45952975Y-60911961D02*
X46000594Y-60816723D01*
X46000594Y-60816723D02*
X46048213Y-60626247D01*
X46048213Y-60626247D02*
X46048213Y-60483390D01*
X46048213Y-60483390D02*
X46000594Y-60292914D01*
X46000594Y-60292914D02*
X45952975Y-60197676D01*
X45952975Y-60197676D02*
X45857737Y-60102438D01*
X45857737Y-60102438D02*
X45714880Y-60054819D01*
X45714880Y-60054819D02*
X45619642Y-60054819D01*
X45619642Y-60054819D02*
X45476785Y-60102438D01*
X45476785Y-60102438D02*
X45429166Y-60150057D01*
X45048213Y-60150057D02*
X45000594Y-60102438D01*
X45000594Y-60102438D02*
X44905356Y-60054819D01*
X44905356Y-60054819D02*
X44667261Y-60054819D01*
X44667261Y-60054819D02*
X44572023Y-60102438D01*
X44572023Y-60102438D02*
X44524404Y-60150057D01*
X44524404Y-60150057D02*
X44476785Y-60245295D01*
X44476785Y-60245295D02*
X44476785Y-60340533D01*
X44476785Y-60340533D02*
X44524404Y-60483390D01*
X44524404Y-60483390D02*
X45095832Y-61054819D01*
X45095832Y-61054819D02*
X44476785Y-61054819D01*
X47663589Y-69272112D02*
X47663589Y-69339456D01*
X47663589Y-69339456D02*
X47730933Y-69474143D01*
X47730933Y-69474143D02*
X47798276Y-69541486D01*
X47798276Y-69541486D02*
X47932963Y-69608830D01*
X47932963Y-69608830D02*
X48067650Y-69608830D01*
X48067650Y-69608830D02*
X48168665Y-69575158D01*
X48168665Y-69575158D02*
X48337024Y-69474143D01*
X48337024Y-69474143D02*
X48438039Y-69373128D01*
X48438039Y-69373128D02*
X48539055Y-69204769D01*
X48539055Y-69204769D02*
X48572726Y-69103754D01*
X48572726Y-69103754D02*
X48572726Y-68969067D01*
X48572726Y-68969067D02*
X48505383Y-68834380D01*
X48505383Y-68834380D02*
X48438039Y-68767036D01*
X48438039Y-68767036D02*
X48303352Y-68699693D01*
X48303352Y-68699693D02*
X48236009Y-68699693D01*
X47461559Y-68261960D02*
X46990154Y-68733364D01*
X47899291Y-68160945D02*
X47562574Y-68834380D01*
X47562574Y-68834380D02*
X47124841Y-68396647D01*
X65279819Y-32123214D02*
X64279819Y-32123214D01*
X64279819Y-32123214D02*
X64279819Y-32361309D01*
X64279819Y-32361309D02*
X64327438Y-32504166D01*
X64327438Y-32504166D02*
X64422676Y-32599404D01*
X64422676Y-32599404D02*
X64517914Y-32647023D01*
X64517914Y-32647023D02*
X64708390Y-32694642D01*
X64708390Y-32694642D02*
X64851247Y-32694642D01*
X64851247Y-32694642D02*
X65041723Y-32647023D01*
X65041723Y-32647023D02*
X65136961Y-32599404D01*
X65136961Y-32599404D02*
X65232200Y-32504166D01*
X65232200Y-32504166D02*
X65279819Y-32361309D01*
X65279819Y-32361309D02*
X65279819Y-32123214D01*
X65279819Y-33647023D02*
X65279819Y-33075595D01*
X65279819Y-33361309D02*
X64279819Y-33361309D01*
X64279819Y-33361309D02*
X64422676Y-33266071D01*
X64422676Y-33266071D02*
X64517914Y-33170833D01*
X64517914Y-33170833D02*
X64565533Y-33075595D01*
X65279819Y-34599404D02*
X65279819Y-34027976D01*
X65279819Y-34313690D02*
X64279819Y-34313690D01*
X64279819Y-34313690D02*
X64422676Y-34218452D01*
X64422676Y-34218452D02*
X64517914Y-34123214D01*
X64517914Y-34123214D02*
X64565533Y-34027976D01*
X74804819Y-51649405D02*
X73804819Y-51649405D01*
X73804819Y-51649405D02*
X73804819Y-51887500D01*
X73804819Y-51887500D02*
X73852438Y-52030357D01*
X73852438Y-52030357D02*
X73947676Y-52125595D01*
X73947676Y-52125595D02*
X74042914Y-52173214D01*
X74042914Y-52173214D02*
X74233390Y-52220833D01*
X74233390Y-52220833D02*
X74376247Y-52220833D01*
X74376247Y-52220833D02*
X74566723Y-52173214D01*
X74566723Y-52173214D02*
X74661961Y-52125595D01*
X74661961Y-52125595D02*
X74757200Y-52030357D01*
X74757200Y-52030357D02*
X74804819Y-51887500D01*
X74804819Y-51887500D02*
X74804819Y-51649405D01*
X73804819Y-52554167D02*
X73804819Y-53220833D01*
X73804819Y-53220833D02*
X74804819Y-52792262D01*
X55754819Y-51649405D02*
X54754819Y-51649405D01*
X54754819Y-51649405D02*
X54754819Y-51887500D01*
X54754819Y-51887500D02*
X54802438Y-52030357D01*
X54802438Y-52030357D02*
X54897676Y-52125595D01*
X54897676Y-52125595D02*
X54992914Y-52173214D01*
X54992914Y-52173214D02*
X55183390Y-52220833D01*
X55183390Y-52220833D02*
X55326247Y-52220833D01*
X55326247Y-52220833D02*
X55516723Y-52173214D01*
X55516723Y-52173214D02*
X55611961Y-52125595D01*
X55611961Y-52125595D02*
X55707200Y-52030357D01*
X55707200Y-52030357D02*
X55754819Y-51887500D01*
X55754819Y-51887500D02*
X55754819Y-51649405D01*
X54850057Y-52601786D02*
X54802438Y-52649405D01*
X54802438Y-52649405D02*
X54754819Y-52744643D01*
X54754819Y-52744643D02*
X54754819Y-52982738D01*
X54754819Y-52982738D02*
X54802438Y-53077976D01*
X54802438Y-53077976D02*
X54850057Y-53125595D01*
X54850057Y-53125595D02*
X54945295Y-53173214D01*
X54945295Y-53173214D02*
X55040533Y-53173214D01*
X55040533Y-53173214D02*
X55183390Y-53125595D01*
X55183390Y-53125595D02*
X55754819Y-52554167D01*
X55754819Y-52554167D02*
X55754819Y-53173214D01*
X241492319Y-89273214D02*
X240492319Y-89273214D01*
X240492319Y-89273214D02*
X240492319Y-89511309D01*
X240492319Y-89511309D02*
X240539938Y-89654166D01*
X240539938Y-89654166D02*
X240635176Y-89749404D01*
X240635176Y-89749404D02*
X240730414Y-89797023D01*
X240730414Y-89797023D02*
X240920890Y-89844642D01*
X240920890Y-89844642D02*
X241063747Y-89844642D01*
X241063747Y-89844642D02*
X241254223Y-89797023D01*
X241254223Y-89797023D02*
X241349461Y-89749404D01*
X241349461Y-89749404D02*
X241444700Y-89654166D01*
X241444700Y-89654166D02*
X241492319Y-89511309D01*
X241492319Y-89511309D02*
X241492319Y-89273214D01*
X240492319Y-90749404D02*
X240492319Y-90273214D01*
X240492319Y-90273214D02*
X240968509Y-90225595D01*
X240968509Y-90225595D02*
X240920890Y-90273214D01*
X240920890Y-90273214D02*
X240873271Y-90368452D01*
X240873271Y-90368452D02*
X240873271Y-90606547D01*
X240873271Y-90606547D02*
X240920890Y-90701785D01*
X240920890Y-90701785D02*
X240968509Y-90749404D01*
X240968509Y-90749404D02*
X241063747Y-90797023D01*
X241063747Y-90797023D02*
X241301842Y-90797023D01*
X241301842Y-90797023D02*
X241397080Y-90749404D01*
X241397080Y-90749404D02*
X241444700Y-90701785D01*
X241444700Y-90701785D02*
X241492319Y-90606547D01*
X241492319Y-90606547D02*
X241492319Y-90368452D01*
X241492319Y-90368452D02*
X241444700Y-90273214D01*
X241444700Y-90273214D02*
X241397080Y-90225595D01*
X240492319Y-91416071D02*
X240492319Y-91511309D01*
X240492319Y-91511309D02*
X240539938Y-91606547D01*
X240539938Y-91606547D02*
X240587557Y-91654166D01*
X240587557Y-91654166D02*
X240682795Y-91701785D01*
X240682795Y-91701785D02*
X240873271Y-91749404D01*
X240873271Y-91749404D02*
X241111366Y-91749404D01*
X241111366Y-91749404D02*
X241301842Y-91701785D01*
X241301842Y-91701785D02*
X241397080Y-91654166D01*
X241397080Y-91654166D02*
X241444700Y-91606547D01*
X241444700Y-91606547D02*
X241492319Y-91511309D01*
X241492319Y-91511309D02*
X241492319Y-91416071D01*
X241492319Y-91416071D02*
X241444700Y-91320833D01*
X241444700Y-91320833D02*
X241397080Y-91273214D01*
X241397080Y-91273214D02*
X241301842Y-91225595D01*
X241301842Y-91225595D02*
X241111366Y-91177976D01*
X241111366Y-91177976D02*
X240873271Y-91177976D01*
X240873271Y-91177976D02*
X240682795Y-91225595D01*
X240682795Y-91225595D02*
X240587557Y-91273214D01*
X240587557Y-91273214D02*
X240539938Y-91320833D01*
X240539938Y-91320833D02*
X240492319Y-91416071D01*
X58136069Y-32599405D02*
X57136069Y-32599405D01*
X57136069Y-32599405D02*
X57136069Y-32837500D01*
X57136069Y-32837500D02*
X57183688Y-32980357D01*
X57183688Y-32980357D02*
X57278926Y-33075595D01*
X57278926Y-33075595D02*
X57374164Y-33123214D01*
X57374164Y-33123214D02*
X57564640Y-33170833D01*
X57564640Y-33170833D02*
X57707497Y-33170833D01*
X57707497Y-33170833D02*
X57897973Y-33123214D01*
X57897973Y-33123214D02*
X57993211Y-33075595D01*
X57993211Y-33075595D02*
X58088450Y-32980357D01*
X58088450Y-32980357D02*
X58136069Y-32837500D01*
X58136069Y-32837500D02*
X58136069Y-32599405D01*
X57136069Y-34027976D02*
X57136069Y-33837500D01*
X57136069Y-33837500D02*
X57183688Y-33742262D01*
X57183688Y-33742262D02*
X57231307Y-33694643D01*
X57231307Y-33694643D02*
X57374164Y-33599405D01*
X57374164Y-33599405D02*
X57564640Y-33551786D01*
X57564640Y-33551786D02*
X57945592Y-33551786D01*
X57945592Y-33551786D02*
X58040830Y-33599405D01*
X58040830Y-33599405D02*
X58088450Y-33647024D01*
X58088450Y-33647024D02*
X58136069Y-33742262D01*
X58136069Y-33742262D02*
X58136069Y-33932738D01*
X58136069Y-33932738D02*
X58088450Y-34027976D01*
X58088450Y-34027976D02*
X58040830Y-34075595D01*
X58040830Y-34075595D02*
X57945592Y-34123214D01*
X57945592Y-34123214D02*
X57707497Y-34123214D01*
X57707497Y-34123214D02*
X57612259Y-34075595D01*
X57612259Y-34075595D02*
X57564640Y-34027976D01*
X57564640Y-34027976D02*
X57517021Y-33932738D01*
X57517021Y-33932738D02*
X57517021Y-33742262D01*
X57517021Y-33742262D02*
X57564640Y-33647024D01*
X57564640Y-33647024D02*
X57612259Y-33599405D01*
X57612259Y-33599405D02*
X57707497Y-33551786D01*
X151004819Y-51173214D02*
X150004819Y-51173214D01*
X150004819Y-51173214D02*
X150004819Y-51411309D01*
X150004819Y-51411309D02*
X150052438Y-51554166D01*
X150052438Y-51554166D02*
X150147676Y-51649404D01*
X150147676Y-51649404D02*
X150242914Y-51697023D01*
X150242914Y-51697023D02*
X150433390Y-51744642D01*
X150433390Y-51744642D02*
X150576247Y-51744642D01*
X150576247Y-51744642D02*
X150766723Y-51697023D01*
X150766723Y-51697023D02*
X150861961Y-51649404D01*
X150861961Y-51649404D02*
X150957200Y-51554166D01*
X150957200Y-51554166D02*
X151004819Y-51411309D01*
X151004819Y-51411309D02*
X151004819Y-51173214D01*
X150100057Y-52125595D02*
X150052438Y-52173214D01*
X150052438Y-52173214D02*
X150004819Y-52268452D01*
X150004819Y-52268452D02*
X150004819Y-52506547D01*
X150004819Y-52506547D02*
X150052438Y-52601785D01*
X150052438Y-52601785D02*
X150100057Y-52649404D01*
X150100057Y-52649404D02*
X150195295Y-52697023D01*
X150195295Y-52697023D02*
X150290533Y-52697023D01*
X150290533Y-52697023D02*
X150433390Y-52649404D01*
X150433390Y-52649404D02*
X151004819Y-52077976D01*
X151004819Y-52077976D02*
X151004819Y-52697023D01*
X150004819Y-53554166D02*
X150004819Y-53363690D01*
X150004819Y-53363690D02*
X150052438Y-53268452D01*
X150052438Y-53268452D02*
X150100057Y-53220833D01*
X150100057Y-53220833D02*
X150242914Y-53125595D01*
X150242914Y-53125595D02*
X150433390Y-53077976D01*
X150433390Y-53077976D02*
X150814342Y-53077976D01*
X150814342Y-53077976D02*
X150909580Y-53125595D01*
X150909580Y-53125595D02*
X150957200Y-53173214D01*
X150957200Y-53173214D02*
X151004819Y-53268452D01*
X151004819Y-53268452D02*
X151004819Y-53458928D01*
X151004819Y-53458928D02*
X150957200Y-53554166D01*
X150957200Y-53554166D02*
X150909580Y-53601785D01*
X150909580Y-53601785D02*
X150814342Y-53649404D01*
X150814342Y-53649404D02*
X150576247Y-53649404D01*
X150576247Y-53649404D02*
X150481009Y-53601785D01*
X150481009Y-53601785D02*
X150433390Y-53554166D01*
X150433390Y-53554166D02*
X150385771Y-53458928D01*
X150385771Y-53458928D02*
X150385771Y-53268452D01*
X150385771Y-53268452D02*
X150433390Y-53173214D01*
X150433390Y-53173214D02*
X150481009Y-53125595D01*
X150481009Y-53125595D02*
X150576247Y-53077976D01*
X184342319Y-89273214D02*
X183342319Y-89273214D01*
X183342319Y-89273214D02*
X183342319Y-89511309D01*
X183342319Y-89511309D02*
X183389938Y-89654166D01*
X183389938Y-89654166D02*
X183485176Y-89749404D01*
X183485176Y-89749404D02*
X183580414Y-89797023D01*
X183580414Y-89797023D02*
X183770890Y-89844642D01*
X183770890Y-89844642D02*
X183913747Y-89844642D01*
X183913747Y-89844642D02*
X184104223Y-89797023D01*
X184104223Y-89797023D02*
X184199461Y-89749404D01*
X184199461Y-89749404D02*
X184294700Y-89654166D01*
X184294700Y-89654166D02*
X184342319Y-89511309D01*
X184342319Y-89511309D02*
X184342319Y-89273214D01*
X183342319Y-90177976D02*
X183342319Y-90797023D01*
X183342319Y-90797023D02*
X183723271Y-90463690D01*
X183723271Y-90463690D02*
X183723271Y-90606547D01*
X183723271Y-90606547D02*
X183770890Y-90701785D01*
X183770890Y-90701785D02*
X183818509Y-90749404D01*
X183818509Y-90749404D02*
X183913747Y-90797023D01*
X183913747Y-90797023D02*
X184151842Y-90797023D01*
X184151842Y-90797023D02*
X184247080Y-90749404D01*
X184247080Y-90749404D02*
X184294700Y-90701785D01*
X184294700Y-90701785D02*
X184342319Y-90606547D01*
X184342319Y-90606547D02*
X184342319Y-90320833D01*
X184342319Y-90320833D02*
X184294700Y-90225595D01*
X184294700Y-90225595D02*
X184247080Y-90177976D01*
X183342319Y-91654166D02*
X183342319Y-91463690D01*
X183342319Y-91463690D02*
X183389938Y-91368452D01*
X183389938Y-91368452D02*
X183437557Y-91320833D01*
X183437557Y-91320833D02*
X183580414Y-91225595D01*
X183580414Y-91225595D02*
X183770890Y-91177976D01*
X183770890Y-91177976D02*
X184151842Y-91177976D01*
X184151842Y-91177976D02*
X184247080Y-91225595D01*
X184247080Y-91225595D02*
X184294700Y-91273214D01*
X184294700Y-91273214D02*
X184342319Y-91368452D01*
X184342319Y-91368452D02*
X184342319Y-91558928D01*
X184342319Y-91558928D02*
X184294700Y-91654166D01*
X184294700Y-91654166D02*
X184247080Y-91701785D01*
X184247080Y-91701785D02*
X184151842Y-91749404D01*
X184151842Y-91749404D02*
X183913747Y-91749404D01*
X183913747Y-91749404D02*
X183818509Y-91701785D01*
X183818509Y-91701785D02*
X183770890Y-91654166D01*
X183770890Y-91654166D02*
X183723271Y-91558928D01*
X183723271Y-91558928D02*
X183723271Y-91368452D01*
X183723271Y-91368452D02*
X183770890Y-91273214D01*
X183770890Y-91273214D02*
X183818509Y-91225595D01*
X183818509Y-91225595D02*
X183913747Y-91177976D01*
X217679819Y-108323214D02*
X216679819Y-108323214D01*
X216679819Y-108323214D02*
X216679819Y-108561309D01*
X216679819Y-108561309D02*
X216727438Y-108704166D01*
X216727438Y-108704166D02*
X216822676Y-108799404D01*
X216822676Y-108799404D02*
X216917914Y-108847023D01*
X216917914Y-108847023D02*
X217108390Y-108894642D01*
X217108390Y-108894642D02*
X217251247Y-108894642D01*
X217251247Y-108894642D02*
X217441723Y-108847023D01*
X217441723Y-108847023D02*
X217536961Y-108799404D01*
X217536961Y-108799404D02*
X217632200Y-108704166D01*
X217632200Y-108704166D02*
X217679819Y-108561309D01*
X217679819Y-108561309D02*
X217679819Y-108323214D01*
X217013152Y-109751785D02*
X217679819Y-109751785D01*
X216632200Y-109513690D02*
X217346485Y-109275595D01*
X217346485Y-109275595D02*
X217346485Y-109894642D01*
X217679819Y-110799404D02*
X217679819Y-110227976D01*
X217679819Y-110513690D02*
X216679819Y-110513690D01*
X216679819Y-110513690D02*
X216822676Y-110418452D01*
X216822676Y-110418452D02*
X216917914Y-110323214D01*
X216917914Y-110323214D02*
X216965533Y-110227976D01*
X270067319Y-70223214D02*
X269067319Y-70223214D01*
X269067319Y-70223214D02*
X269067319Y-70461309D01*
X269067319Y-70461309D02*
X269114938Y-70604166D01*
X269114938Y-70604166D02*
X269210176Y-70699404D01*
X269210176Y-70699404D02*
X269305414Y-70747023D01*
X269305414Y-70747023D02*
X269495890Y-70794642D01*
X269495890Y-70794642D02*
X269638747Y-70794642D01*
X269638747Y-70794642D02*
X269829223Y-70747023D01*
X269829223Y-70747023D02*
X269924461Y-70699404D01*
X269924461Y-70699404D02*
X270019700Y-70604166D01*
X270019700Y-70604166D02*
X270067319Y-70461309D01*
X270067319Y-70461309D02*
X270067319Y-70223214D01*
X269067319Y-71699404D02*
X269067319Y-71223214D01*
X269067319Y-71223214D02*
X269543509Y-71175595D01*
X269543509Y-71175595D02*
X269495890Y-71223214D01*
X269495890Y-71223214D02*
X269448271Y-71318452D01*
X269448271Y-71318452D02*
X269448271Y-71556547D01*
X269448271Y-71556547D02*
X269495890Y-71651785D01*
X269495890Y-71651785D02*
X269543509Y-71699404D01*
X269543509Y-71699404D02*
X269638747Y-71747023D01*
X269638747Y-71747023D02*
X269876842Y-71747023D01*
X269876842Y-71747023D02*
X269972080Y-71699404D01*
X269972080Y-71699404D02*
X270019700Y-71651785D01*
X270019700Y-71651785D02*
X270067319Y-71556547D01*
X270067319Y-71556547D02*
X270067319Y-71318452D01*
X270067319Y-71318452D02*
X270019700Y-71223214D01*
X270019700Y-71223214D02*
X269972080Y-71175595D01*
X270067319Y-72223214D02*
X270067319Y-72413690D01*
X270067319Y-72413690D02*
X270019700Y-72508928D01*
X270019700Y-72508928D02*
X269972080Y-72556547D01*
X269972080Y-72556547D02*
X269829223Y-72651785D01*
X269829223Y-72651785D02*
X269638747Y-72699404D01*
X269638747Y-72699404D02*
X269257795Y-72699404D01*
X269257795Y-72699404D02*
X269162557Y-72651785D01*
X269162557Y-72651785D02*
X269114938Y-72604166D01*
X269114938Y-72604166D02*
X269067319Y-72508928D01*
X269067319Y-72508928D02*
X269067319Y-72318452D01*
X269067319Y-72318452D02*
X269114938Y-72223214D01*
X269114938Y-72223214D02*
X269162557Y-72175595D01*
X269162557Y-72175595D02*
X269257795Y-72127976D01*
X269257795Y-72127976D02*
X269495890Y-72127976D01*
X269495890Y-72127976D02*
X269591128Y-72175595D01*
X269591128Y-72175595D02*
X269638747Y-72223214D01*
X269638747Y-72223214D02*
X269686366Y-72318452D01*
X269686366Y-72318452D02*
X269686366Y-72508928D01*
X269686366Y-72508928D02*
X269638747Y-72604166D01*
X269638747Y-72604166D02*
X269591128Y-72651785D01*
X269591128Y-72651785D02*
X269495890Y-72699404D01*
X340685416Y-35003569D02*
X341018749Y-34527378D01*
X341256844Y-35003569D02*
X341256844Y-34003569D01*
X341256844Y-34003569D02*
X340875892Y-34003569D01*
X340875892Y-34003569D02*
X340780654Y-34051188D01*
X340780654Y-34051188D02*
X340733035Y-34098807D01*
X340733035Y-34098807D02*
X340685416Y-34194045D01*
X340685416Y-34194045D02*
X340685416Y-34336902D01*
X340685416Y-34336902D02*
X340733035Y-34432140D01*
X340733035Y-34432140D02*
X340780654Y-34479759D01*
X340780654Y-34479759D02*
X340875892Y-34527378D01*
X340875892Y-34527378D02*
X341256844Y-34527378D01*
X339828273Y-34003569D02*
X340018749Y-34003569D01*
X340018749Y-34003569D02*
X340113987Y-34051188D01*
X340113987Y-34051188D02*
X340161606Y-34098807D01*
X340161606Y-34098807D02*
X340256844Y-34241664D01*
X340256844Y-34241664D02*
X340304463Y-34432140D01*
X340304463Y-34432140D02*
X340304463Y-34813092D01*
X340304463Y-34813092D02*
X340256844Y-34908330D01*
X340256844Y-34908330D02*
X340209225Y-34955950D01*
X340209225Y-34955950D02*
X340113987Y-35003569D01*
X340113987Y-35003569D02*
X339923511Y-35003569D01*
X339923511Y-35003569D02*
X339828273Y-34955950D01*
X339828273Y-34955950D02*
X339780654Y-34908330D01*
X339780654Y-34908330D02*
X339733035Y-34813092D01*
X339733035Y-34813092D02*
X339733035Y-34574997D01*
X339733035Y-34574997D02*
X339780654Y-34479759D01*
X339780654Y-34479759D02*
X339828273Y-34432140D01*
X339828273Y-34432140D02*
X339923511Y-34384521D01*
X339923511Y-34384521D02*
X340113987Y-34384521D01*
X340113987Y-34384521D02*
X340209225Y-34432140D01*
X340209225Y-34432140D02*
X340256844Y-34479759D01*
X340256844Y-34479759D02*
X340304463Y-34574997D01*
X193867319Y-70223214D02*
X192867319Y-70223214D01*
X192867319Y-70223214D02*
X192867319Y-70461309D01*
X192867319Y-70461309D02*
X192914938Y-70604166D01*
X192914938Y-70604166D02*
X193010176Y-70699404D01*
X193010176Y-70699404D02*
X193105414Y-70747023D01*
X193105414Y-70747023D02*
X193295890Y-70794642D01*
X193295890Y-70794642D02*
X193438747Y-70794642D01*
X193438747Y-70794642D02*
X193629223Y-70747023D01*
X193629223Y-70747023D02*
X193724461Y-70699404D01*
X193724461Y-70699404D02*
X193819700Y-70604166D01*
X193819700Y-70604166D02*
X193867319Y-70461309D01*
X193867319Y-70461309D02*
X193867319Y-70223214D01*
X192867319Y-71127976D02*
X192867319Y-71747023D01*
X192867319Y-71747023D02*
X193248271Y-71413690D01*
X193248271Y-71413690D02*
X193248271Y-71556547D01*
X193248271Y-71556547D02*
X193295890Y-71651785D01*
X193295890Y-71651785D02*
X193343509Y-71699404D01*
X193343509Y-71699404D02*
X193438747Y-71747023D01*
X193438747Y-71747023D02*
X193676842Y-71747023D01*
X193676842Y-71747023D02*
X193772080Y-71699404D01*
X193772080Y-71699404D02*
X193819700Y-71651785D01*
X193819700Y-71651785D02*
X193867319Y-71556547D01*
X193867319Y-71556547D02*
X193867319Y-71270833D01*
X193867319Y-71270833D02*
X193819700Y-71175595D01*
X193819700Y-71175595D02*
X193772080Y-71127976D01*
X193867319Y-72223214D02*
X193867319Y-72413690D01*
X193867319Y-72413690D02*
X193819700Y-72508928D01*
X193819700Y-72508928D02*
X193772080Y-72556547D01*
X193772080Y-72556547D02*
X193629223Y-72651785D01*
X193629223Y-72651785D02*
X193438747Y-72699404D01*
X193438747Y-72699404D02*
X193057795Y-72699404D01*
X193057795Y-72699404D02*
X192962557Y-72651785D01*
X192962557Y-72651785D02*
X192914938Y-72604166D01*
X192914938Y-72604166D02*
X192867319Y-72508928D01*
X192867319Y-72508928D02*
X192867319Y-72318452D01*
X192867319Y-72318452D02*
X192914938Y-72223214D01*
X192914938Y-72223214D02*
X192962557Y-72175595D01*
X192962557Y-72175595D02*
X193057795Y-72127976D01*
X193057795Y-72127976D02*
X193295890Y-72127976D01*
X193295890Y-72127976D02*
X193391128Y-72175595D01*
X193391128Y-72175595D02*
X193438747Y-72223214D01*
X193438747Y-72223214D02*
X193486366Y-72318452D01*
X193486366Y-72318452D02*
X193486366Y-72508928D01*
X193486366Y-72508928D02*
X193438747Y-72604166D01*
X193438747Y-72604166D02*
X193391128Y-72651785D01*
X193391128Y-72651785D02*
X193295890Y-72699404D01*
X203392319Y-89273214D02*
X202392319Y-89273214D01*
X202392319Y-89273214D02*
X202392319Y-89511309D01*
X202392319Y-89511309D02*
X202439938Y-89654166D01*
X202439938Y-89654166D02*
X202535176Y-89749404D01*
X202535176Y-89749404D02*
X202630414Y-89797023D01*
X202630414Y-89797023D02*
X202820890Y-89844642D01*
X202820890Y-89844642D02*
X202963747Y-89844642D01*
X202963747Y-89844642D02*
X203154223Y-89797023D01*
X203154223Y-89797023D02*
X203249461Y-89749404D01*
X203249461Y-89749404D02*
X203344700Y-89654166D01*
X203344700Y-89654166D02*
X203392319Y-89511309D01*
X203392319Y-89511309D02*
X203392319Y-89273214D01*
X202725652Y-90701785D02*
X203392319Y-90701785D01*
X202344700Y-90463690D02*
X203058985Y-90225595D01*
X203058985Y-90225595D02*
X203058985Y-90844642D01*
X202392319Y-91416071D02*
X202392319Y-91511309D01*
X202392319Y-91511309D02*
X202439938Y-91606547D01*
X202439938Y-91606547D02*
X202487557Y-91654166D01*
X202487557Y-91654166D02*
X202582795Y-91701785D01*
X202582795Y-91701785D02*
X202773271Y-91749404D01*
X202773271Y-91749404D02*
X203011366Y-91749404D01*
X203011366Y-91749404D02*
X203201842Y-91701785D01*
X203201842Y-91701785D02*
X203297080Y-91654166D01*
X203297080Y-91654166D02*
X203344700Y-91606547D01*
X203344700Y-91606547D02*
X203392319Y-91511309D01*
X203392319Y-91511309D02*
X203392319Y-91416071D01*
X203392319Y-91416071D02*
X203344700Y-91320833D01*
X203344700Y-91320833D02*
X203297080Y-91273214D01*
X203297080Y-91273214D02*
X203201842Y-91225595D01*
X203201842Y-91225595D02*
X203011366Y-91177976D01*
X203011366Y-91177976D02*
X202773271Y-91177976D01*
X202773271Y-91177976D02*
X202582795Y-91225595D01*
X202582795Y-91225595D02*
X202487557Y-91273214D01*
X202487557Y-91273214D02*
X202439938Y-91320833D01*
X202439938Y-91320833D02*
X202392319Y-91416071D01*
D12*
%TO.C,D28*%
X146787500Y-88877500D02*
X146787500Y-91537500D01*
X146787500Y-88877500D02*
X148487500Y-88877500D01*
X148487500Y-88877500D02*
X148487500Y-91537500D01*
%TO.C,D38*%
X208700000Y-50777500D02*
X208700000Y-53437500D01*
X208700000Y-50777500D02*
X210400000Y-50777500D01*
X210400000Y-50777500D02*
X210400000Y-53437500D01*
%TO.C,R3*%
X46859879Y-37720000D02*
X47195121Y-37720000D01*
X46859879Y-38480000D02*
X47195121Y-38480000D01*
%TO.C,D63*%
X313475000Y-69827500D02*
X313475000Y-72487500D01*
X313475000Y-69827500D02*
X315175000Y-69827500D01*
X315175000Y-69827500D02*
X315175000Y-72487500D01*
%TO.C,D57*%
X256325000Y-31727500D02*
X256325000Y-34387500D01*
X256325000Y-31727500D02*
X258025000Y-31727500D01*
X258025000Y-31727500D02*
X258025000Y-34387500D01*
%TO.C,D64*%
X313475000Y-88877500D02*
X313475000Y-91537500D01*
X313475000Y-88877500D02*
X315175000Y-88877500D01*
X315175000Y-88877500D02*
X315175000Y-91537500D01*
%TO.C,R5*%
X350211371Y-30576250D02*
X349876129Y-30576250D01*
X350211371Y-31336250D02*
X349876129Y-31336250D01*
%TO.C,R9*%
X335326371Y-44863750D02*
X334991129Y-44863750D01*
X335326371Y-45623750D02*
X334991129Y-45623750D01*
%TO.C,D44*%
X213462500Y-69827500D02*
X213462500Y-72487500D01*
X213462500Y-69827500D02*
X215162500Y-69827500D01*
X215162500Y-69827500D02*
X215162500Y-72487500D01*
%TO.C,D12*%
X94400000Y-50777500D02*
X94400000Y-53437500D01*
X94400000Y-50777500D02*
X96100000Y-50777500D01*
X96100000Y-50777500D02*
X96100000Y-53437500D01*
%TO.C,D21*%
X103925000Y-31727500D02*
X103925000Y-34387500D01*
X103925000Y-31727500D02*
X105625000Y-31727500D01*
X105625000Y-31727500D02*
X105625000Y-34387500D01*
%TO.C,D37*%
X180125000Y-31727500D02*
X180125000Y-34387500D01*
X180125000Y-31727500D02*
X181825000Y-31727500D01*
X181825000Y-31727500D02*
X181825000Y-34387500D01*
%TO.C,D24*%
X127737500Y-88877500D02*
X127737500Y-91537500D01*
X127737500Y-88877500D02*
X129437500Y-88877500D01*
X129437500Y-88877500D02*
X129437500Y-91537500D01*
%TO.C,J1*%
X45020000Y-26015000D02*
X45020000Y-27720000D01*
X45020000Y-31650000D02*
X45020000Y-29730000D01*
X54180000Y-26015000D02*
X45020000Y-26015000D01*
X54180000Y-27720000D02*
X54180000Y-26015000D01*
X54180000Y-29730000D02*
X54180000Y-31650000D01*
%TO.C,R8*%
X335588629Y-30576250D02*
X335923871Y-30576250D01*
X335588629Y-31336250D02*
X335923871Y-31336250D01*
D13*
%TO.C,SW72*%
X75483000Y-62164500D02*
X76067000Y-61580500D01*
X75483000Y-62969000D02*
X75483000Y-62164500D01*
X75483000Y-65484500D02*
X75483000Y-64731000D01*
X75483000Y-65484500D02*
X76118000Y-66119500D01*
X76626000Y-62453000D02*
X76626000Y-65247000D01*
X76626000Y-65247000D02*
X79674000Y-65247000D01*
X77081000Y-61183000D02*
X79219000Y-61183000D01*
X79219000Y-66450000D02*
X77081000Y-66450000D01*
X79674000Y-62453000D02*
X76626000Y-62453000D01*
X79674000Y-65247000D02*
X79674000Y-62453000D01*
X80750000Y-62242000D02*
X80088500Y-61580500D01*
X80750000Y-62969000D02*
X80750000Y-62242000D01*
X80750000Y-65489500D02*
X80120000Y-66119500D01*
X80750000Y-65489500D02*
X80750000Y-64731000D01*
X79066000Y-63850000D02*
G75*
G02*
X77234000Y-63850000I-916000J0D01*
G01*
X77234000Y-63850000D02*
G75*
G02*
X79066000Y-63850000I916000J0D01*
G01*
D12*
%TO.C,D31*%
X156312500Y-69827500D02*
X156312500Y-72487500D01*
X156312500Y-69827500D02*
X158012500Y-69827500D01*
X158012500Y-69827500D02*
X158012500Y-72487500D01*
%TO.C,D23*%
X118212500Y-69827500D02*
X118212500Y-72487500D01*
X118212500Y-69827500D02*
X119912500Y-69827500D01*
X119912500Y-69827500D02*
X119912500Y-72487500D01*
%TO.C,R2*%
X50320000Y-53165121D02*
X50320000Y-52829879D01*
X51080000Y-53165121D02*
X51080000Y-52829879D01*
%TO.C,D58*%
X284900000Y-50777500D02*
X284900000Y-53437500D01*
X284900000Y-50777500D02*
X286600000Y-50777500D01*
X286600000Y-50777500D02*
X286600000Y-53437500D01*
%TO.C,D30*%
X170600000Y-50777500D02*
X170600000Y-53437500D01*
X170600000Y-50777500D02*
X172300000Y-50777500D01*
X172300000Y-50777500D02*
X172300000Y-53437500D01*
%TO.C,D51*%
X256325000Y-107927500D02*
X256325000Y-110587500D01*
X256325000Y-107927500D02*
X258025000Y-107927500D01*
X258025000Y-107927500D02*
X258025000Y-110587500D01*
%TO.C,10k1*%
X73467621Y-61620000D02*
X73132379Y-61620000D01*
X73467621Y-62380000D02*
X73132379Y-62380000D01*
%TO.C,D18*%
X99162500Y-69827500D02*
X99162500Y-72487500D01*
X99162500Y-69827500D02*
X100862500Y-69827500D01*
X100862500Y-69827500D02*
X100862500Y-72487500D01*
%TO.C,D3*%
X30106250Y-69827500D02*
X30106250Y-72487500D01*
X30106250Y-69827500D02*
X31806250Y-69827500D01*
X31806250Y-69827500D02*
X31806250Y-72487500D01*
%TO.C,R7*%
X340686371Y-40101250D02*
X340351129Y-40101250D01*
X340686371Y-40861250D02*
X340351129Y-40861250D01*
%TO.C,D54*%
X251562500Y-69827500D02*
X251562500Y-72487500D01*
X251562500Y-69827500D02*
X253262500Y-69827500D01*
X253262500Y-69827500D02*
X253262500Y-72487500D01*
%TO.C,D9*%
X70550000Y-87590000D02*
X70550000Y-90250000D01*
X70550000Y-87590000D02*
X72250000Y-87590000D01*
X72250000Y-87590000D02*
X72250000Y-90250000D01*
%TO.C,D49*%
X232512500Y-69827500D02*
X232512500Y-72487500D01*
X232512500Y-69827500D02*
X234212500Y-69827500D01*
X234212500Y-69827500D02*
X234212500Y-72487500D01*
%TO.C,D69*%
X332525000Y-107927500D02*
X332525000Y-110587500D01*
X332525000Y-107927500D02*
X334225000Y-107927500D01*
X334225000Y-107927500D02*
X334225000Y-110587500D01*
%TO.C,D27*%
X137262500Y-69827500D02*
X137262500Y-72487500D01*
X137262500Y-69827500D02*
X138962500Y-69827500D01*
X138962500Y-69827500D02*
X138962500Y-72487500D01*
%TO.C,D56*%
X275375000Y-107927500D02*
X275375000Y-110587500D01*
X275375000Y-107927500D02*
X277075000Y-107927500D01*
X277075000Y-107927500D02*
X277075000Y-110587500D01*
%TO.C,R10*%
X73267621Y-64320000D02*
X72932379Y-64320000D01*
X73267621Y-65080000D02*
X72932379Y-65080000D01*
%TO.C,D19*%
X108687500Y-88877500D02*
X108687500Y-91537500D01*
X108687500Y-88877500D02*
X110387500Y-88877500D01*
X110387500Y-88877500D02*
X110387500Y-91537500D01*
%TO.C,U1*%
X47542119Y-64293750D02*
X47948705Y-64700336D01*
X47948705Y-63887164D02*
X47542119Y-64293750D01*
X54362164Y-71113795D02*
X54768750Y-71520381D01*
X54768750Y-57067119D02*
X54362164Y-57473705D01*
X54768750Y-71520381D02*
X55175336Y-71113795D01*
X55175336Y-57473705D02*
X54768750Y-57067119D01*
X61588795Y-64700336D02*
X61995381Y-64293750D01*
X61995381Y-64293750D02*
X61588795Y-63887164D01*
X54485907Y-71661803D02*
X54005075Y-72142635D01*
X53913151Y-71569879D01*
X54485907Y-71661803D01*
G36*
X54485907Y-71661803D02*
G01*
X54005075Y-72142635D01*
X53913151Y-71569879D01*
X54485907Y-71661803D01*
G37*
%TO.C,D1*%
X30106250Y-31727500D02*
X30106250Y-34387500D01*
X30106250Y-31727500D02*
X31806250Y-31727500D01*
X31806250Y-31727500D02*
X31806250Y-34387500D01*
%TO.C,D53*%
X265850000Y-50777500D02*
X265850000Y-53437500D01*
X265850000Y-50777500D02*
X267550000Y-50777500D01*
X267550000Y-50777500D02*
X267550000Y-53437500D01*
%TO.C,D48*%
X246800000Y-50777500D02*
X246800000Y-53437500D01*
X246800000Y-50777500D02*
X248500000Y-50777500D01*
X248500000Y-50777500D02*
X248500000Y-53437500D01*
%TO.C,D13*%
X80112500Y-69827500D02*
X80112500Y-72487500D01*
X80112500Y-69827500D02*
X81812500Y-69827500D01*
X81812500Y-69827500D02*
X81812500Y-72487500D01*
%TO.C,D22*%
X132500000Y-50777500D02*
X132500000Y-53437500D01*
X132500000Y-50777500D02*
X134200000Y-50777500D01*
X134200000Y-50777500D02*
X134200000Y-53437500D01*
%TO.C,R4*%
X52219879Y-40101250D02*
X52555121Y-40101250D01*
X52219879Y-40861250D02*
X52555121Y-40861250D01*
%TO.C,R1*%
X49020000Y-52829879D02*
X49020000Y-53165121D01*
X49780000Y-52829879D02*
X49780000Y-53165121D01*
%TO.C,D60*%
X294425000Y-107927500D02*
X294425000Y-110587500D01*
X294425000Y-107927500D02*
X296125000Y-107927500D01*
X296125000Y-107927500D02*
X296125000Y-110587500D01*
%TO.C,D20*%
X99162500Y-107927500D02*
X99162500Y-110587500D01*
X99162500Y-107927500D02*
X100862500Y-107927500D01*
X100862500Y-107927500D02*
X100862500Y-110587500D01*
%TO.C,D68*%
X332525000Y-88877500D02*
X332525000Y-91537500D01*
X332525000Y-88877500D02*
X334225000Y-88877500D01*
X334225000Y-88877500D02*
X334225000Y-91537500D01*
%TO.C,D67*%
X332525000Y-50777500D02*
X332525000Y-53437500D01*
X332525000Y-50777500D02*
X334225000Y-50777500D01*
X334225000Y-50777500D02*
X334225000Y-53437500D01*
%TO.C,D42*%
X199175000Y-31727500D02*
X199175000Y-34387500D01*
X199175000Y-31727500D02*
X200875000Y-31727500D01*
X200875000Y-31727500D02*
X200875000Y-34387500D01*
D13*
%TO.C,SW1*%
X83288000Y-62210500D02*
X83288000Y-62969000D01*
X83288000Y-62210500D02*
X83918000Y-61580500D01*
X83288000Y-64731000D02*
X83288000Y-65458000D01*
X83288000Y-65458000D02*
X83949500Y-66119500D01*
X84364000Y-62453000D02*
X84364000Y-65247000D01*
X84364000Y-65247000D02*
X87412000Y-65247000D01*
X84819000Y-61250000D02*
X86957000Y-61250000D01*
X86957000Y-66517000D02*
X84819000Y-66517000D01*
X87412000Y-62453000D02*
X84364000Y-62453000D01*
X87412000Y-65247000D02*
X87412000Y-62453000D01*
X88555000Y-62215500D02*
X87920000Y-61580500D01*
X88555000Y-62215500D02*
X88555000Y-62969000D01*
X88555000Y-64731000D02*
X88555000Y-65535500D01*
X88555000Y-65535500D02*
X87971000Y-66119500D01*
X86804000Y-63850000D02*
G75*
G02*
X84972000Y-63850000I-916000J0D01*
G01*
X84972000Y-63850000D02*
G75*
G02*
X86804000Y-63850000I916000J0D01*
G01*
D12*
%TO.C,D29*%
X142025000Y-31727500D02*
X142025000Y-34387500D01*
X142025000Y-31727500D02*
X143725000Y-31727500D01*
X143725000Y-31727500D02*
X143725000Y-34387500D01*
%TO.C,D61*%
X275375000Y-31727500D02*
X275375000Y-34387500D01*
X275375000Y-31727500D02*
X277075000Y-31727500D01*
X277075000Y-31727500D02*
X277075000Y-34387500D01*
%TO.C,D35*%
X175362500Y-69827500D02*
X175362500Y-72487500D01*
X175362500Y-69827500D02*
X177062500Y-69827500D01*
X177062500Y-69827500D02*
X177062500Y-72487500D01*
%TO.C,U2*%
X47446250Y-45565000D02*
X47446250Y-49685000D01*
X47446250Y-49685000D02*
X47541250Y-49685000D01*
X47541250Y-45565000D02*
X47446250Y-45565000D01*
X52471250Y-49685000D02*
X52566250Y-49685000D01*
X52566250Y-45565000D02*
X52471250Y-45565000D01*
X52566250Y-49685000D02*
X52566250Y-45565000D01*
X47536250Y-45025000D02*
X47206250Y-45265000D01*
X47206250Y-44785000D01*
X47536250Y-45025000D01*
G36*
X47536250Y-45025000D02*
G01*
X47206250Y-45265000D01*
X47206250Y-44785000D01*
X47536250Y-45025000D01*
G37*
%TO.C,D10*%
X51537500Y-107927500D02*
X51537500Y-110587500D01*
X51537500Y-107927500D02*
X53237500Y-107927500D01*
X53237500Y-107927500D02*
X53237500Y-110587500D01*
%TO.C,D34*%
X189650000Y-50777500D02*
X189650000Y-53437500D01*
X189650000Y-50777500D02*
X191350000Y-50777500D01*
X191350000Y-50777500D02*
X191350000Y-53437500D01*
%TO.C,D33*%
X161075000Y-31727500D02*
X161075000Y-34387500D01*
X161075000Y-31727500D02*
X162775000Y-31727500D01*
X162775000Y-31727500D02*
X162775000Y-34387500D01*
%TO.C,D55*%
X261087500Y-88877500D02*
X261087500Y-91537500D01*
X261087500Y-88877500D02*
X262787500Y-88877500D01*
X262787500Y-88877500D02*
X262787500Y-91537500D01*
%TO.C,D8*%
X63443750Y-69827500D02*
X63443750Y-72487500D01*
X63443750Y-69827500D02*
X65143750Y-69827500D01*
X65143750Y-69827500D02*
X65143750Y-72487500D01*
%TO.C,D62*%
X313475000Y-50777500D02*
X313475000Y-53437500D01*
X313475000Y-50777500D02*
X315175000Y-50777500D01*
X315175000Y-50777500D02*
X315175000Y-53437500D01*
%TO.C,D43*%
X227750000Y-50777500D02*
X227750000Y-53437500D01*
X227750000Y-50777500D02*
X229450000Y-50777500D01*
X229450000Y-50777500D02*
X229450000Y-53437500D01*
%TO.C,D66*%
X313450000Y-33190000D02*
X313450000Y-35850000D01*
X313450000Y-33190000D02*
X315150000Y-33190000D01*
X315150000Y-33190000D02*
X315150000Y-35850000D01*
%TO.C,D32*%
X165837500Y-88877500D02*
X165837500Y-91537500D01*
X165837500Y-88877500D02*
X167537500Y-88877500D01*
X167537500Y-88877500D02*
X167537500Y-91537500D01*
%TO.C,D47*%
X218225000Y-31727500D02*
X218225000Y-34387500D01*
X218225000Y-31727500D02*
X219925000Y-31727500D01*
X219925000Y-31727500D02*
X219925000Y-34387500D01*
%TO.C,D15*%
X75350000Y-107927500D02*
X75350000Y-110587500D01*
X75350000Y-107927500D02*
X77050000Y-107927500D01*
X77050000Y-107927500D02*
X77050000Y-110587500D01*
%TO.C,D46*%
X237275000Y-107927500D02*
X237275000Y-110587500D01*
X237275000Y-107927500D02*
X238975000Y-107927500D01*
X238975000Y-107927500D02*
X238975000Y-110587500D01*
%TO.C,D65*%
X313475000Y-107927500D02*
X313475000Y-110587500D01*
X313475000Y-107927500D02*
X315175000Y-107927500D01*
X315175000Y-107927500D02*
X315175000Y-110587500D01*
%TO.C,D52*%
X237275000Y-31727500D02*
X237275000Y-34387500D01*
X237275000Y-31727500D02*
X238975000Y-31727500D01*
X238975000Y-31727500D02*
X238975000Y-34387500D01*
%TO.C,D5*%
X30106250Y-107927500D02*
X30106250Y-110587500D01*
X30106250Y-107927500D02*
X31806250Y-107927500D01*
X31806250Y-107927500D02*
X31806250Y-110587500D01*
%TO.C,D4*%
X30106250Y-88877500D02*
X30106250Y-91537500D01*
X30106250Y-88877500D02*
X31806250Y-88877500D01*
X31806250Y-88877500D02*
X31806250Y-91537500D01*
%TO.C,Y1*%
X43997500Y-60227500D02*
X43997500Y-64847500D01*
X43997500Y-64847500D02*
X38477500Y-64847500D01*
%TO.C,D14*%
X89637500Y-88877500D02*
X89637500Y-91537500D01*
X89637500Y-88877500D02*
X91337500Y-88877500D01*
X91337500Y-88877500D02*
X91337500Y-91537500D01*
%TO.C,D16*%
X84875000Y-31727500D02*
X84875000Y-34387500D01*
X84875000Y-31727500D02*
X86575000Y-31727500D01*
X86575000Y-31727500D02*
X86575000Y-34387500D01*
%TO.C,D45*%
X222987500Y-88877500D02*
X222987500Y-91537500D01*
X222987500Y-88877500D02*
X224687500Y-88877500D01*
X224687500Y-88877500D02*
X224687500Y-91537500D01*
%TO.C,D17*%
X113450000Y-50777500D02*
X113450000Y-53437500D01*
X113450000Y-50777500D02*
X115150000Y-50777500D01*
X115150000Y-50777500D02*
X115150000Y-53437500D01*
%TO.C,D25*%
X122975000Y-31727500D02*
X122975000Y-34387500D01*
X122975000Y-31727500D02*
X124675000Y-31727500D01*
X124675000Y-31727500D02*
X124675000Y-34387500D01*
%TO.C,D11*%
X65825000Y-31727500D02*
X65825000Y-34387500D01*
X65825000Y-31727500D02*
X67525000Y-31727500D01*
X67525000Y-31727500D02*
X67525000Y-34387500D01*
%TO.C,D7*%
X75350000Y-50777500D02*
X75350000Y-53437500D01*
X75350000Y-50777500D02*
X77050000Y-50777500D01*
X77050000Y-50777500D02*
X77050000Y-53437500D01*
%TO.C,D2*%
X56300000Y-50777500D02*
X56300000Y-53437500D01*
X56300000Y-50777500D02*
X58000000Y-50777500D01*
X58000000Y-50777500D02*
X58000000Y-53437500D01*
%TO.C,D50*%
X242037500Y-88877500D02*
X242037500Y-91537500D01*
X242037500Y-88877500D02*
X243737500Y-88877500D01*
X243737500Y-88877500D02*
X243737500Y-91537500D01*
%TO.C,D6*%
X58681250Y-31727500D02*
X58681250Y-34387500D01*
X58681250Y-31727500D02*
X60381250Y-31727500D01*
X60381250Y-31727500D02*
X60381250Y-34387500D01*
%TO.C,D26*%
X151550000Y-50777500D02*
X151550000Y-53437500D01*
X151550000Y-50777500D02*
X153250000Y-50777500D01*
X153250000Y-50777500D02*
X153250000Y-53437500D01*
%TO.C,D36*%
X184887500Y-88877500D02*
X184887500Y-91537500D01*
X184887500Y-88877500D02*
X186587500Y-88877500D01*
X186587500Y-88877500D02*
X186587500Y-91537500D01*
%TO.C,D41*%
X218225000Y-107927500D02*
X218225000Y-110587500D01*
X218225000Y-107927500D02*
X219925000Y-107927500D01*
X219925000Y-107927500D02*
X219925000Y-110587500D01*
%TO.C,D59*%
X270612500Y-69827500D02*
X270612500Y-72487500D01*
X270612500Y-69827500D02*
X272312500Y-69827500D01*
X272312500Y-69827500D02*
X272312500Y-72487500D01*
%TO.C,R6*%
X340686371Y-35338750D02*
X340351129Y-35338750D01*
X340686371Y-36098750D02*
X340351129Y-36098750D01*
%TO.C,D39*%
X194412500Y-69827500D02*
X194412500Y-72487500D01*
X194412500Y-69827500D02*
X196112500Y-69827500D01*
X196112500Y-69827500D02*
X196112500Y-72487500D01*
%TO.C,D40*%
X203937500Y-88877500D02*
X203937500Y-91537500D01*
X203937500Y-88877500D02*
X205637500Y-88877500D01*
X205637500Y-88877500D02*
X205637500Y-91537500D01*
%TD*%
M02*
