M48
; DRILL file {KiCad 9.0.5} date 2026-04-22T14:57:25-0500
; FORMAT={-:-/ absolute / metric / decimal}
; #@! TF.CreationDate,2026-04-22T14:57:25-05:00
; #@! TF.GenerationSoftware,Kicad,Pcbnew,9.0.5
; #@! TF.FileFunction,NonPlated,1,2,NPTH
FMAT,2
METRIC
; #@! TA.AperFunction,NonPlated,NPTH,ComponentDrill
T1C0.650
; #@! TA.AperFunction,NonPlated,NPTH,ComponentDrill
T2C1.750
; #@! TA.AperFunction,NonPlated,NPTH,ComponentDrill
T3C2.200
; #@! TA.AperFunction,NonPlated,NPTH,ComponentDrill
T4C3.048
; #@! TA.AperFunction,NonPlated,NPTH,ComponentDrill
T5C3.988
; #@! TA.AperFunction,NonPlated,NPTH,ComponentDrill
T6C4.000
%
G90
G05
T1
X46.71Y-32.405
X52.49Y-32.405
T2
X33.02Y-38.1
X35.401Y-114.3
X37.782Y-57.15
X40.164Y-76.2
X43.18Y-38.1
X44.926Y-95.25
X45.561Y-114.3
X47.942Y-57.15
X50.324Y-76.2
X52.07Y-38.1
X55.086Y-95.25
X59.214Y-114.3
X61.595Y-57.15
X62.23Y-38.1
X66.358Y-76.2
X69.374Y-114.3
X71.12Y-38.1
X71.755Y-57.15
X75.882Y-95.25
X76.517Y-76.2
X80.645Y-57.15
X81.28Y-38.1
X83.026Y-114.3
X85.407Y-76.2
X86.042Y-95.25
X90.17Y-38.1
X90.805Y-57.15
X93.186Y-114.3
X94.932Y-95.25
X95.567Y-76.2
X99.695Y-57.15
X100.33Y-38.1
X104.457Y-76.2
X105.093Y-95.25
X109.22Y-38.1
X109.855Y-57.15
X113.983Y-95.25
X114.617Y-76.2
X118.745Y-57.15
X119.38Y-38.1
X123.507Y-76.2
X124.142Y-95.25
X128.27Y-38.1
X128.905Y-57.15
X133.032Y-95.25
X133.667Y-76.2
X137.795Y-57.15
X138.43Y-38.1
X142.558Y-76.2
X143.192Y-95.25
X147.32Y-38.1
X147.955Y-57.15
X152.082Y-95.25
X152.718Y-76.2
X154.464Y-114.3
X156.845Y-57.15
X157.48Y-38.1
X161.607Y-76.2
X162.243Y-95.25
X164.624Y-114.3
X166.37Y-38.1
X167.005Y-57.15
X171.132Y-95.25
X171.767Y-76.2
X175.895Y-57.15
X176.53Y-38.1
X180.657Y-76.2
X181.292Y-95.25
X185.42Y-38.1
X186.055Y-57.15
X190.183Y-95.25
X190.817Y-76.2
X194.945Y-57.15
X195.58Y-38.1
X199.707Y-76.2
X200.343Y-95.25
X204.47Y-38.1
X205.105Y-57.15
X209.232Y-95.25
X209.867Y-76.2
X213.995Y-57.15
X214.63Y-38.1
X218.757Y-76.2
X219.392Y-95.25
X223.52Y-38.1
X223.52Y-114.3
X224.155Y-57.15
X228.282Y-95.25
X228.917Y-76.2
X233.045Y-57.15
X233.68Y-38.1
X233.68Y-114.3
X237.807Y-76.2
X238.442Y-95.25
X242.57Y-38.1
X242.57Y-114.3
X243.205Y-57.15
X247.332Y-95.25
X247.968Y-76.2
X252.095Y-57.15
X252.73Y-38.1
X252.73Y-114.3
X256.858Y-76.2
X257.493Y-95.25
X261.62Y-38.1
X261.62Y-114.3
X262.255Y-57.15
X267.017Y-76.2
X271.145Y-57.15
X271.78Y-38.1
X271.78Y-114.3
X280.67Y-114.3
X281.305Y-57.15
X283.051Y-95.25
X287.814Y-76.2
X290.195Y-38.1
X290.83Y-114.3
X293.211Y-95.25
X294.957Y-57.15
X297.974Y-76.2
X299.72Y-114.3
X300.355Y-38.1
X305.118Y-57.15
X309.88Y-114.3
X318.77Y-38.1
X318.77Y-57.15
X318.77Y-76.2
X318.77Y-95.25
X318.77Y-114.3
X328.93Y-38.1
X328.93Y-57.15
X328.93Y-76.2
X328.93Y-95.25
X328.93Y-114.3
X337.82Y-95.25
X337.82Y-114.3
X347.98Y-95.25
X347.98Y-114.3
T3
X69.6Y-97.0
X121.2Y-118.8
X133.5Y-65.7
X198.8Y-118.8
X266.3Y-98.5
X288.8Y-55.9
T4
X38.068Y-88.265
X61.944Y-88.265
X109.544Y-107.315
X209.544Y-107.315
X276.193Y-88.265
X280.956Y-69.215
X283.337Y-31.115
X300.069Y-88.265
X304.832Y-69.215
X307.213Y-31.115
T5
X38.068Y-103.475
X61.944Y-103.475
X109.544Y-122.525
X209.544Y-122.525
X276.193Y-103.475
X280.956Y-84.425
X283.337Y-46.325
X300.069Y-103.475
X304.832Y-84.425
X307.213Y-46.325
T6
X38.1Y-38.1
X40.481Y-114.3
X42.862Y-57.15
X45.244Y-76.2
X50.006Y-95.25
X57.15Y-38.1
X64.294Y-114.3
X66.675Y-57.15
X71.438Y-76.2
X76.2Y-38.1
X80.962Y-95.25
X85.725Y-57.15
X88.106Y-114.3
X90.487Y-76.2
X95.25Y-38.1
X100.012Y-95.25
X104.775Y-57.15
X109.537Y-76.2
X114.3Y-38.1
X119.062Y-95.25
X123.825Y-57.15
X128.588Y-76.2
X133.35Y-38.1
X138.112Y-95.25
X142.875Y-57.15
X147.637Y-76.2
X152.4Y-38.1
X157.162Y-95.25
X159.544Y-114.3
X161.925Y-57.15
X166.688Y-76.2
X171.45Y-38.1
X176.213Y-95.25
X180.975Y-57.15
X185.737Y-76.2
X190.5Y-38.1
X195.262Y-95.25
X200.025Y-57.15
X204.787Y-76.2
X209.55Y-38.1
X214.312Y-95.25
X219.075Y-57.15
X223.837Y-76.2
X228.6Y-38.1
X228.6Y-114.3
X233.362Y-95.25
X238.125Y-57.15
X242.887Y-76.2
X247.65Y-38.1
X247.65Y-114.3
X252.412Y-95.25
X257.175Y-57.15
X261.938Y-76.2
X266.7Y-38.1
X266.7Y-114.3
X276.225Y-57.15
X285.75Y-114.3
X288.131Y-95.25
X292.894Y-76.2
X295.275Y-38.1
X300.037Y-57.15
X304.8Y-114.3
X323.85Y-38.1
X323.85Y-57.15
X323.85Y-76.2
X323.85Y-95.25
X323.85Y-114.3
X342.9Y-95.25
X342.9Y-114.3
M30
