%TF.GenerationSoftware,KiCad,Pcbnew,9.0.5*%
%TF.CreationDate,2026-04-20T12:41:25-05:00*%
%TF.ProjectId,Keyboard,4b657962-6f61-4726-942e-6b696361645f,v1.0*%
%TF.SameCoordinates,Original*%
%TF.FileFunction,Soldermask,Bot*%
%TF.FilePolarity,Negative*%
%FSLAX46Y46*%
G04 Gerber Fmt 4.6, Leading zero omitted, Abs format (unit mm)*
G04 Created by KiCad (PCBNEW 9.0.5) date 2026-04-20 12:41:25*
%MOMM*%
%LPD*%
G01*
G04 APERTURE LIST*
G04 Aperture macros list*
%AMRoundRect*
0 Rectangle with rounded corners*
0 $1 Rounding radius*
0 $2 $3 $4 $5 $6 $7 $8 $9 X,Y pos of 4 corners*
0 Add a 4 corners polygon primitive as box body*
4,1,4,$2,$3,$4,$5,$6,$7,$8,$9,$2,$3,0*
0 Add four circle primitives for the rounded corners*
1,1,$1+$1,$2,$3*
1,1,$1+$1,$4,$5*
1,1,$1+$1,$6,$7*
1,1,$1+$1,$8,$9*
0 Add four rect primitives between the rounded corners*
20,1,$1+$1,$2,$3,$4,$5,0*
20,1,$1+$1,$4,$5,$6,$7,0*
20,1,$1+$1,$6,$7,$8,$9,0*
20,1,$1+$1,$8,$9,$2,$3,0*%
G04 Aperture macros list end*
%ADD10C,1.750000*%
%ADD11C,4.000000*%
%ADD12C,2.500000*%
%ADD13C,2.200000*%
%ADD14C,3.048000*%
%ADD15C,3.987800*%
%ADD16R,2.000000X2.000000*%
%ADD17C,2.000000*%
%ADD18C,3.200000*%
%ADD19C,1.600000*%
%ADD20RoundRect,0.075000X0.097227X0.203293X-0.203293X-0.097227X-0.097227X-0.203293X0.203293X0.097227X0*%
%ADD21RoundRect,0.125000X-0.125000X0.125000X-0.125000X-0.125000X0.125000X-0.125000X0.125000X0.125000X0*%
%ADD22RoundRect,0.160000X-0.197500X-0.160000X0.197500X-0.160000X0.197500X0.160000X-0.197500X0.160000X0*%
%ADD23RoundRect,0.075000X-0.203293X0.097227X0.097227X-0.203293X0.203293X-0.097227X-0.097227X0.203293X0*%
%ADD24RoundRect,0.160000X0.197500X0.160000X-0.197500X0.160000X-0.197500X-0.160000X0.197500X-0.160000X0*%
%ADD25RoundRect,0.075000X-0.212500X-0.075000X0.212500X-0.075000X0.212500X0.075000X-0.212500X0.075000X0*%
%ADD26C,0.650000*%
%ADD27R,0.600000X1.240000*%
%ADD28R,0.300000X1.240000*%
%ADD29O,1.000000X1.800000*%
%ADD30O,1.000000X2.100000*%
%ADD31R,1.100000X1.500000*%
%ADD32R,0.800000X1.300000*%
%ADD33RoundRect,0.075000X0.075000X-0.212500X0.075000X0.212500X-0.075000X0.212500X-0.075000X-0.212500X0*%
%ADD34RoundRect,0.160000X0.160000X-0.197500X0.160000X0.197500X-0.160000X0.197500X-0.160000X-0.197500X0*%
%ADD35RoundRect,0.137500X-0.327037X-0.521491X0.521491X0.327037X0.327037X0.521491X-0.521491X-0.327037X0*%
%ADD36RoundRect,0.137500X0.327037X-0.521491X0.521491X-0.327037X-0.327037X0.521491X-0.521491X0.327037X0*%
%ADD37RoundRect,0.160000X-0.160000X0.197500X-0.160000X-0.197500X0.160000X-0.197500X0.160000X0.197500X0*%
%ADD38RoundRect,0.150000X-0.150000X0.825000X-0.150000X-0.825000X0.150000X-0.825000X0.150000X0.825000X0*%
%ADD39RoundRect,0.250000X0.800000X0.650000X-0.800000X0.650000X-0.800000X-0.650000X0.800000X-0.650000X0*%
%ADD40RoundRect,0.075000X0.212500X0.075000X-0.212500X0.075000X-0.212500X-0.075000X0.212500X-0.075000X0*%
G04 APERTURE END LIST*
D10*
%TO.C,SW41*%
X209232500Y-95250000D03*
D11*
X214312500Y-95250000D03*
D10*
X219392500Y-95250000D03*
D12*
X210502500Y-92710000D03*
X216852500Y-90170000D03*
%TD*%
D10*
%TO.C,SW7*%
X62230000Y-38100000D03*
D11*
X57150000Y-38100000D03*
D10*
X52070000Y-38100000D03*
D12*
X60960000Y-40640000D03*
X54610000Y-43180000D03*
%TD*%
D10*
%TO.C,SW18*%
X99695000Y-57150000D03*
D11*
X104775000Y-57150000D03*
D10*
X109855000Y-57150000D03*
D12*
X100965000Y-54610000D03*
X107315000Y-52070000D03*
%TD*%
D10*
%TO.C,SW8*%
X61595000Y-57150000D03*
D11*
X66675000Y-57150000D03*
D10*
X71755000Y-57150000D03*
D12*
X62865000Y-54610000D03*
X69215000Y-52070000D03*
%TD*%
D13*
%TO.C,M.2*%
X266300000Y-98500000D03*
%TD*%
D10*
%TO.C,SW51*%
X247332500Y-95250000D03*
D11*
X252412500Y-95250000D03*
D10*
X257492500Y-95250000D03*
D12*
X248602500Y-92710000D03*
X254952500Y-90170000D03*
%TD*%
D10*
%TO.C,SW27*%
X137795000Y-57150000D03*
D11*
X142875000Y-57150000D03*
D10*
X147955000Y-57150000D03*
D12*
X139065000Y-54610000D03*
X145415000Y-52070000D03*
%TD*%
D10*
%TO.C,SW12*%
X71120000Y-38100000D03*
D11*
X76200000Y-38100000D03*
D10*
X81280000Y-38100000D03*
D12*
X72390000Y-35560000D03*
X78740000Y-33020000D03*
%TD*%
D10*
%TO.C,SW52*%
X261620000Y-114300000D03*
D11*
X266700000Y-114300000D03*
D10*
X271780000Y-114300000D03*
D12*
X262890000Y-111760000D03*
X269240000Y-109220000D03*
%TD*%
D10*
%TO.C,SW4*%
X40163750Y-76200000D03*
D11*
X45243750Y-76200000D03*
D10*
X50323750Y-76200000D03*
D12*
X41433750Y-73660000D03*
X47783750Y-71120000D03*
%TD*%
D10*
%TO.C,SW33*%
X171132500Y-95250000D03*
D11*
X176212500Y-95250000D03*
D10*
X181292500Y-95250000D03*
D12*
X172402500Y-92710000D03*
X178752500Y-90170000D03*
%TD*%
D10*
%TO.C,SW9*%
X66357500Y-76200000D03*
D11*
X71437500Y-76200000D03*
D10*
X76517500Y-76200000D03*
D12*
X67627500Y-73660000D03*
X73977500Y-71120000D03*
%TD*%
D10*
%TO.C,SW70*%
X337820000Y-114300000D03*
D11*
X342900000Y-114300000D03*
D10*
X347980000Y-114300000D03*
D12*
X339090000Y-111760000D03*
X345440000Y-109220000D03*
%TD*%
D10*
%TO.C,SW35*%
X175895000Y-57150000D03*
D11*
X180975000Y-57150000D03*
D10*
X186055000Y-57150000D03*
D12*
X177165000Y-54610000D03*
X183515000Y-52070000D03*
%TD*%
D10*
%TO.C,SW28*%
X142557500Y-76200000D03*
D11*
X147637500Y-76200000D03*
D10*
X152717500Y-76200000D03*
D12*
X143827500Y-73660000D03*
X150177500Y-71120000D03*
%TD*%
D10*
%TO.C,SW29*%
X152082500Y-95250000D03*
D11*
X157162500Y-95250000D03*
D10*
X162242500Y-95250000D03*
D12*
X153352500Y-92710000D03*
X159702500Y-90170000D03*
%TD*%
D10*
%TO.C,SW26*%
X128270000Y-38100000D03*
D11*
X133350000Y-38100000D03*
D10*
X138430000Y-38100000D03*
D12*
X129540000Y-35560000D03*
X135890000Y-33020000D03*
%TD*%
D10*
%TO.C,SW6*%
X35401250Y-114300000D03*
D11*
X40481250Y-114300000D03*
D10*
X45561250Y-114300000D03*
D12*
X36671250Y-111760000D03*
X43021250Y-109220000D03*
%TD*%
D10*
%TO.C,SW19*%
X104457500Y-76200000D03*
D11*
X109537500Y-76200000D03*
D10*
X114617500Y-76200000D03*
D12*
X105727500Y-73660000D03*
X112077500Y-71120000D03*
%TD*%
D10*
%TO.C,SW54*%
X252095000Y-57150000D03*
D11*
X257175000Y-57150000D03*
D10*
X262255000Y-57150000D03*
D12*
X253365000Y-54610000D03*
X259715000Y-52070000D03*
%TD*%
D10*
%TO.C,SW63*%
X294957500Y-57150000D03*
D11*
X300037500Y-57150000D03*
D10*
X305117500Y-57150000D03*
D12*
X296227500Y-54610000D03*
X302577500Y-52070000D03*
%TD*%
D10*
%TO.C,SW25*%
X133032500Y-95250000D03*
D11*
X138112500Y-95250000D03*
D10*
X143192500Y-95250000D03*
D12*
X134302500Y-92710000D03*
X140652500Y-90170000D03*
%TD*%
D10*
%TO.C,SW34*%
X166370000Y-38100000D03*
D11*
X171450000Y-38100000D03*
D10*
X176530000Y-38100000D03*
D12*
X167640000Y-35560000D03*
X173990000Y-33020000D03*
%TD*%
D10*
%TO.C,SW57*%
X280670000Y-114300000D03*
D11*
X285750000Y-114300000D03*
D10*
X290830000Y-114300000D03*
D12*
X281940000Y-111760000D03*
X288290000Y-109220000D03*
%TD*%
D10*
%TO.C,SW23*%
X118745000Y-57150000D03*
D11*
X123825000Y-57150000D03*
D10*
X128905000Y-57150000D03*
D12*
X120015000Y-54610000D03*
X126365000Y-52070000D03*
%TD*%
D13*
%TO.C,M.2*%
X69600000Y-97000000D03*
%TD*%
D10*
%TO.C,SW5*%
X44926250Y-95250000D03*
D11*
X50006250Y-95250000D03*
D10*
X55086250Y-95250000D03*
D12*
X46196250Y-92710000D03*
X52546250Y-90170000D03*
%TD*%
D10*
%TO.C,SW43*%
X204470000Y-38100000D03*
D11*
X209550000Y-38100000D03*
D10*
X214630000Y-38100000D03*
D12*
X205740000Y-35560000D03*
X212090000Y-33020000D03*
%TD*%
D10*
%TO.C,SW15*%
X94932500Y-95250000D03*
D11*
X100012500Y-95250000D03*
D10*
X105092500Y-95250000D03*
D12*
X96202500Y-92710000D03*
X102552500Y-90170000D03*
%TD*%
D13*
%TO.C,M.2*%
X288800000Y-55900000D03*
%TD*%
D10*
%TO.C,SW67*%
X318770000Y-38100000D03*
D11*
X323850000Y-38100000D03*
D10*
X328930000Y-38100000D03*
D12*
X320040000Y-35560000D03*
X326390000Y-33020000D03*
%TD*%
D10*
%TO.C,SW46*%
X228282500Y-95250000D03*
D11*
X233362500Y-95250000D03*
D10*
X238442500Y-95250000D03*
D12*
X229552500Y-92710000D03*
X235902500Y-90170000D03*
%TD*%
D10*
%TO.C,SW16*%
X83026250Y-114300000D03*
D11*
X88106250Y-114300000D03*
D10*
X93186250Y-114300000D03*
D12*
X84296250Y-111760000D03*
X90646250Y-109220000D03*
%TD*%
D10*
%TO.C,SW36*%
X180657500Y-76200000D03*
D11*
X185737500Y-76200000D03*
D10*
X190817500Y-76200000D03*
D12*
X181927500Y-73660000D03*
X188277500Y-71120000D03*
%TD*%
D10*
%TO.C,SW2*%
X43180000Y-38100000D03*
D11*
X38100000Y-38100000D03*
D10*
X33020000Y-38100000D03*
D12*
X41910000Y-40640000D03*
X35560000Y-43180000D03*
%TD*%
D10*
%TO.C,SW49*%
X233045000Y-57150000D03*
D11*
X238125000Y-57150000D03*
D10*
X243205000Y-57150000D03*
D12*
X234315000Y-54610000D03*
X240665000Y-52070000D03*
%TD*%
D10*
%TO.C,SW65*%
X318770000Y-95250000D03*
D11*
X323850000Y-95250000D03*
D10*
X328930000Y-95250000D03*
D12*
X320040000Y-92710000D03*
X326390000Y-90170000D03*
%TD*%
D10*
%TO.C,SW68*%
X318770000Y-57150000D03*
D11*
X323850000Y-57150000D03*
D10*
X328930000Y-57150000D03*
D12*
X320040000Y-54610000D03*
X326390000Y-52070000D03*
%TD*%
D10*
%TO.C,SW40*%
X199707500Y-76200000D03*
D11*
X204787500Y-76200000D03*
D10*
X209867500Y-76200000D03*
D12*
X200977500Y-73660000D03*
X207327500Y-71120000D03*
%TD*%
D10*
%TO.C,SW24*%
X123507500Y-76200000D03*
D11*
X128587500Y-76200000D03*
D10*
X133667500Y-76200000D03*
D12*
X124777500Y-73660000D03*
X131127500Y-71120000D03*
%TD*%
D14*
%TO.C,REF\u002A\u002A*%
X38068250Y-88265000D03*
D15*
X38068250Y-103475000D03*
D14*
X61944250Y-88265000D03*
D15*
X61944250Y-103475000D03*
%TD*%
D10*
%TO.C,SW32*%
X161607500Y-76200000D03*
D11*
X166687500Y-76200000D03*
D10*
X171767500Y-76200000D03*
D12*
X162877500Y-73660000D03*
X169227500Y-71120000D03*
%TD*%
D13*
%TO.C,M.2*%
X121200000Y-118800000D03*
%TD*%
D10*
%TO.C,SW64*%
X318770000Y-76200000D03*
D11*
X323850000Y-76200000D03*
D10*
X328930000Y-76200000D03*
D12*
X320040000Y-73660000D03*
X326390000Y-71120000D03*
%TD*%
D10*
%TO.C,SW3*%
X37782500Y-57150000D03*
D11*
X42862500Y-57150000D03*
D10*
X47942500Y-57150000D03*
D12*
X39052500Y-54610000D03*
X45402500Y-52070000D03*
%TD*%
D10*
%TO.C,SW11*%
X59213750Y-114300000D03*
D11*
X64293750Y-114300000D03*
D10*
X69373750Y-114300000D03*
D12*
X60483750Y-111760000D03*
X66833750Y-109220000D03*
%TD*%
D10*
%TO.C,SW42*%
X223520000Y-114300000D03*
D11*
X228600000Y-114300000D03*
D10*
X233680000Y-114300000D03*
D12*
X224790000Y-111760000D03*
X231140000Y-109220000D03*
%TD*%
D10*
%TO.C,SW38*%
X185420000Y-38100000D03*
D11*
X190500000Y-38100000D03*
D10*
X195580000Y-38100000D03*
D12*
X186690000Y-35560000D03*
X193040000Y-33020000D03*
%TD*%
D10*
%TO.C,SW31*%
X156845000Y-57150000D03*
D11*
X161925000Y-57150000D03*
D10*
X167005000Y-57150000D03*
D12*
X158115000Y-54610000D03*
X164465000Y-52070000D03*
%TD*%
D10*
%TO.C,SW53*%
X242570000Y-38100000D03*
D11*
X247650000Y-38100000D03*
D10*
X252730000Y-38100000D03*
D12*
X243840000Y-35560000D03*
X250190000Y-33020000D03*
%TD*%
D10*
%TO.C,SW30*%
X147320000Y-38100000D03*
D11*
X152400000Y-38100000D03*
D10*
X157480000Y-38100000D03*
D12*
X148590000Y-35560000D03*
X154940000Y-33020000D03*
%TD*%
D10*
%TO.C,SW56*%
X283051250Y-95250000D03*
D11*
X288131250Y-95250000D03*
D10*
X293211250Y-95250000D03*
D12*
X284321250Y-92710000D03*
X290671250Y-90170000D03*
%TD*%
D10*
%TO.C,SW13*%
X80645000Y-57150000D03*
D11*
X85725000Y-57150000D03*
D10*
X90805000Y-57150000D03*
D12*
X81915000Y-54610000D03*
X88265000Y-52070000D03*
%TD*%
D10*
%TO.C,SW60*%
X287813750Y-76200000D03*
D11*
X292893750Y-76200000D03*
D10*
X297973750Y-76200000D03*
D12*
X289083750Y-73660000D03*
X295433750Y-71120000D03*
%TD*%
D13*
%TO.C,M.2*%
X133500000Y-65700000D03*
%TD*%
D10*
%TO.C,SW58*%
X261620000Y-38100000D03*
D11*
X266700000Y-38100000D03*
D10*
X271780000Y-38100000D03*
D12*
X262890000Y-35560000D03*
X269240000Y-33020000D03*
%TD*%
D10*
%TO.C,SW59*%
X271145000Y-57150000D03*
D11*
X276225000Y-57150000D03*
D10*
X281305000Y-57150000D03*
D12*
X272415000Y-54610000D03*
X278765000Y-52070000D03*
%TD*%
D16*
%TO.C,SW71*%
X335543750Y-35481250D03*
D17*
X335543750Y-40481250D03*
X335543750Y-37981250D03*
D18*
X343043750Y-32381250D03*
X343043750Y-43581250D03*
D17*
X350043750Y-40481250D03*
X350043750Y-35481250D03*
%TD*%
D10*
%TO.C,SW50*%
X237807500Y-76200000D03*
D11*
X242887500Y-76200000D03*
D10*
X247967500Y-76200000D03*
D12*
X239077500Y-73660000D03*
X245427500Y-71120000D03*
%TD*%
D10*
%TO.C,SW14*%
X85407500Y-76200000D03*
D11*
X90487500Y-76200000D03*
D10*
X95567500Y-76200000D03*
D12*
X86677500Y-73660000D03*
X93027500Y-71120000D03*
%TD*%
D10*
%TO.C,SW39*%
X194945000Y-57150000D03*
D11*
X200025000Y-57150000D03*
D10*
X205105000Y-57150000D03*
D12*
X196215000Y-54610000D03*
X202565000Y-52070000D03*
%TD*%
D10*
%TO.C,SW17*%
X90170000Y-38100000D03*
D11*
X95250000Y-38100000D03*
D10*
X100330000Y-38100000D03*
D12*
X91440000Y-35560000D03*
X97790000Y-33020000D03*
%TD*%
D10*
%TO.C,SW61*%
X299720000Y-114300000D03*
D11*
X304800000Y-114300000D03*
D10*
X309880000Y-114300000D03*
D12*
X300990000Y-111760000D03*
X307340000Y-109220000D03*
%TD*%
D13*
%TO.C,M.2*%
X198800000Y-118800000D03*
%TD*%
D10*
%TO.C,SW45*%
X218757500Y-76200000D03*
D11*
X223837500Y-76200000D03*
D10*
X228917500Y-76200000D03*
D12*
X220027500Y-73660000D03*
X226377500Y-71120000D03*
%TD*%
D10*
%TO.C,SW55*%
X256857500Y-76200000D03*
D11*
X261937500Y-76200000D03*
D10*
X267017500Y-76200000D03*
D12*
X258127500Y-73660000D03*
X264477500Y-71120000D03*
%TD*%
D10*
%TO.C,SW37*%
X190182500Y-95250000D03*
D11*
X195262500Y-95250000D03*
D10*
X200342500Y-95250000D03*
D12*
X191452500Y-92710000D03*
X197802500Y-90170000D03*
%TD*%
D10*
%TO.C,SW44*%
X213995000Y-57150000D03*
D11*
X219075000Y-57150000D03*
D10*
X224155000Y-57150000D03*
D12*
X215265000Y-54610000D03*
X221615000Y-52070000D03*
%TD*%
D10*
%TO.C,SW22*%
X109220000Y-38100000D03*
D11*
X114300000Y-38100000D03*
D10*
X119380000Y-38100000D03*
D12*
X110490000Y-35560000D03*
X116840000Y-33020000D03*
%TD*%
D10*
%TO.C,SW20*%
X113982500Y-95250000D03*
D11*
X119062500Y-95250000D03*
D10*
X124142500Y-95250000D03*
D12*
X115252500Y-92710000D03*
X121602500Y-90170000D03*
%TD*%
D10*
%TO.C,SW10*%
X75882500Y-95250000D03*
D11*
X80962500Y-95250000D03*
D10*
X86042500Y-95250000D03*
D12*
X77152500Y-92710000D03*
X83502500Y-90170000D03*
%TD*%
D10*
%TO.C,SW48*%
X223520000Y-38100000D03*
D11*
X228600000Y-38100000D03*
D10*
X233680000Y-38100000D03*
D12*
X224790000Y-35560000D03*
X231140000Y-33020000D03*
%TD*%
D10*
%TO.C,SW21*%
X154463750Y-114300000D03*
D11*
X159543750Y-114300000D03*
D10*
X164623750Y-114300000D03*
D12*
X155733750Y-111760000D03*
X162083750Y-109220000D03*
%TD*%
D10*
%TO.C,SW69*%
X337820000Y-95250000D03*
D11*
X342900000Y-95250000D03*
D10*
X347980000Y-95250000D03*
D12*
X339090000Y-92710000D03*
X345440000Y-90170000D03*
%TD*%
D19*
%TO.C,J2*%
X339100000Y-49200000D03*
X341640000Y-49200000D03*
X344180000Y-49200000D03*
X346720000Y-49200000D03*
%TD*%
D10*
%TO.C,SW62*%
X290195000Y-38100000D03*
D11*
X295275000Y-38100000D03*
D10*
X300355000Y-38100000D03*
D12*
X291465000Y-35560000D03*
X297815000Y-33020000D03*
%TD*%
D14*
%TO.C,REF\u002A\u002A*%
X109543750Y-107315000D03*
D15*
X109543750Y-122525000D03*
D14*
X209543750Y-107315000D03*
D15*
X209543750Y-122525000D03*
%TD*%
D14*
%TO.C,REF\u002A\u002A*%
X283337000Y-31115000D03*
D15*
X283337000Y-46325000D03*
D14*
X307213000Y-31115000D03*
D15*
X307213000Y-46325000D03*
%TD*%
D14*
%TO.C,REF\u002A\u002A*%
X280955750Y-69215000D03*
D15*
X280955750Y-84425000D03*
D14*
X304831750Y-69215000D03*
D15*
X304831750Y-84425000D03*
%TD*%
D14*
%TO.C,REF\u002A\u002A*%
X276193250Y-88265000D03*
D15*
X276193250Y-103475000D03*
D14*
X300069250Y-88265000D03*
D15*
X300069250Y-103475000D03*
%TD*%
D10*
%TO.C,SW66*%
X318770000Y-114300000D03*
D11*
X323850000Y-114300000D03*
D10*
X328930000Y-114300000D03*
D12*
X320040000Y-111760000D03*
X326390000Y-109220000D03*
%TD*%
D10*
%TO.C,SW47*%
X242570000Y-114300000D03*
D11*
X247650000Y-114300000D03*
D10*
X252730000Y-114300000D03*
D12*
X243840000Y-111760000D03*
X250190000Y-109220000D03*
%TD*%
D20*
%TO.C,C1*%
X58238649Y-71261351D03*
X57761351Y-71738649D03*
%TD*%
D21*
%TO.C,D28*%
X147637500Y-89387500D03*
X147637500Y-91587500D03*
%TD*%
%TO.C,D38*%
X209550000Y-51287500D03*
X209550000Y-53487500D03*
%TD*%
D22*
%TO.C,R3*%
X46430000Y-38100000D03*
X47625000Y-38100000D03*
%TD*%
D21*
%TO.C,D63*%
X314325000Y-70337500D03*
X314325000Y-72537500D03*
%TD*%
%TO.C,D57*%
X257175000Y-32237500D03*
X257175000Y-34437500D03*
%TD*%
%TO.C,D64*%
X314325000Y-89387500D03*
X314325000Y-91587500D03*
%TD*%
D23*
%TO.C,C7*%
X57261351Y-56261351D03*
X57738649Y-56738649D03*
%TD*%
D24*
%TO.C,R5*%
X350641250Y-30956250D03*
X349446250Y-30956250D03*
%TD*%
D25*
%TO.C,C8*%
X347662500Y-44000000D03*
X348337500Y-44000000D03*
%TD*%
D24*
%TO.C,R9*%
X335756250Y-45243750D03*
X334561250Y-45243750D03*
%TD*%
D21*
%TO.C,D44*%
X214312500Y-70337500D03*
X214312500Y-72537500D03*
%TD*%
%TO.C,D12*%
X95250000Y-51287500D03*
X95250000Y-53487500D03*
%TD*%
%TO.C,D21*%
X104775000Y-32237500D03*
X104775000Y-34437500D03*
%TD*%
%TO.C,D37*%
X180975000Y-32237500D03*
X180975000Y-34437500D03*
%TD*%
%TO.C,D24*%
X128587500Y-89387500D03*
X128587500Y-91587500D03*
%TD*%
D26*
%TO.C,J1*%
X46710000Y-32405000D03*
X52490000Y-32405000D03*
D27*
X46400000Y-33525000D03*
X47200000Y-33525000D03*
D28*
X48350000Y-33525000D03*
X49350000Y-33525000D03*
X49850000Y-33525000D03*
X50850000Y-33525000D03*
D27*
X52000000Y-33525000D03*
X52800000Y-33525000D03*
X52800000Y-33525000D03*
X52000000Y-33525000D03*
D28*
X51350000Y-33525000D03*
X50350000Y-33525000D03*
X48850000Y-33525000D03*
X47850000Y-33525000D03*
D27*
X47200000Y-33525000D03*
X46400000Y-33525000D03*
D29*
X45280000Y-28725000D03*
D30*
X45280000Y-32925000D03*
D29*
X53920000Y-28725000D03*
D30*
X53920000Y-32925000D03*
%TD*%
D20*
%TO.C,C6*%
X48238649Y-60261351D03*
X47761351Y-60738649D03*
%TD*%
D22*
%TO.C,R8*%
X335158750Y-30956250D03*
X336353750Y-30956250D03*
%TD*%
D31*
%TO.C,SW72*%
X80000000Y-67100000D03*
X80000000Y-60600000D03*
X76300000Y-67100000D03*
X76300000Y-60600000D03*
D32*
X80844000Y-63850000D03*
X75456000Y-63850000D03*
%TD*%
D21*
%TO.C,D31*%
X157162500Y-70337500D03*
X157162500Y-72537500D03*
%TD*%
%TO.C,D23*%
X119062500Y-70337500D03*
X119062500Y-72537500D03*
%TD*%
D33*
%TO.C,C3*%
X37500000Y-62475000D03*
X37500000Y-61800000D03*
%TD*%
D34*
%TO.C,R2*%
X50700000Y-53595000D03*
X50700000Y-52400000D03*
%TD*%
D21*
%TO.C,D58*%
X285750000Y-51287500D03*
X285750000Y-53487500D03*
%TD*%
%TO.C,D30*%
X171450000Y-51287500D03*
X171450000Y-53487500D03*
%TD*%
%TO.C,D51*%
X257175000Y-108437500D03*
X257175000Y-110637500D03*
%TD*%
D23*
%TO.C,C5*%
X50517677Y-70517677D03*
X50994975Y-70994975D03*
%TD*%
D24*
%TO.C,10k1*%
X73897500Y-62000000D03*
X72702500Y-62000000D03*
%TD*%
D21*
%TO.C,D18*%
X100012500Y-70337500D03*
X100012500Y-72537500D03*
%TD*%
%TO.C,D3*%
X30956250Y-70337500D03*
X30956250Y-72537500D03*
%TD*%
D24*
%TO.C,R7*%
X341116250Y-40481250D03*
X339921250Y-40481250D03*
%TD*%
D21*
%TO.C,D54*%
X252412500Y-70337500D03*
X252412500Y-72537500D03*
%TD*%
%TO.C,D9*%
X71400000Y-88100000D03*
X71400000Y-90300000D03*
%TD*%
%TO.C,D49*%
X233362500Y-70337500D03*
X233362500Y-72537500D03*
%TD*%
%TO.C,D69*%
X333375000Y-108437500D03*
X333375000Y-110637500D03*
%TD*%
%TO.C,D27*%
X138112500Y-70337500D03*
X138112500Y-72537500D03*
%TD*%
%TO.C,D56*%
X276225000Y-108437500D03*
X276225000Y-110637500D03*
%TD*%
D24*
%TO.C,R10*%
X73697500Y-64700000D03*
X72502500Y-64700000D03*
%TD*%
D21*
%TO.C,D19*%
X109537500Y-89387500D03*
X109537500Y-91587500D03*
%TD*%
D35*
%TO.C,U1*%
X53593185Y-71126169D03*
X53027500Y-70560484D03*
X52461814Y-69994798D03*
X51896129Y-69429113D03*
X51330443Y-68863428D03*
X50764758Y-68297742D03*
X50199072Y-67732057D03*
X49633387Y-67166371D03*
X49067702Y-66600686D03*
X48502016Y-66035000D03*
X47936331Y-65469315D03*
D36*
X47936331Y-63118185D03*
X48502016Y-62552500D03*
X49067702Y-61986814D03*
X49633387Y-61421129D03*
X50199072Y-60855443D03*
X50764758Y-60289758D03*
X51330443Y-59724072D03*
X51896129Y-59158387D03*
X52461814Y-58592702D03*
X53027500Y-58027016D03*
X53593185Y-57461331D03*
D35*
X55944315Y-57461331D03*
X56510000Y-58027016D03*
X57075686Y-58592702D03*
X57641371Y-59158387D03*
X58207057Y-59724072D03*
X58772742Y-60289758D03*
X59338428Y-60855443D03*
X59904113Y-61421129D03*
X60469798Y-61986814D03*
X61035484Y-62552500D03*
X61601169Y-63118185D03*
D36*
X61601169Y-65469315D03*
X61035484Y-66035000D03*
X60469798Y-66600686D03*
X59904113Y-67166371D03*
X59338428Y-67732057D03*
X58772742Y-68297742D03*
X58207057Y-68863428D03*
X57641371Y-69429113D03*
X57075686Y-69994798D03*
X56510000Y-70560484D03*
X55944315Y-71126169D03*
%TD*%
D21*
%TO.C,D1*%
X30956250Y-32237500D03*
X30956250Y-34437500D03*
%TD*%
%TO.C,D53*%
X266700000Y-51287500D03*
X266700000Y-53487500D03*
%TD*%
%TO.C,D48*%
X247650000Y-51287500D03*
X247650000Y-53487500D03*
%TD*%
%TO.C,D13*%
X80962500Y-70337500D03*
X80962500Y-72537500D03*
%TD*%
%TO.C,D22*%
X133350000Y-51287500D03*
X133350000Y-53487500D03*
%TD*%
D22*
%TO.C,R4*%
X51790000Y-40481250D03*
X52985000Y-40481250D03*
%TD*%
D37*
%TO.C,R1*%
X49400000Y-52400000D03*
X49400000Y-53595000D03*
%TD*%
D21*
%TO.C,D60*%
X295275000Y-108437500D03*
X295275000Y-110637500D03*
%TD*%
%TO.C,D20*%
X100012500Y-108437500D03*
X100012500Y-110637500D03*
%TD*%
%TO.C,D68*%
X333375000Y-89387500D03*
X333375000Y-91587500D03*
%TD*%
%TO.C,D67*%
X333375000Y-51287500D03*
X333375000Y-53487500D03*
%TD*%
%TO.C,D42*%
X200025000Y-32237500D03*
X200025000Y-34437500D03*
%TD*%
D31*
%TO.C,SW1*%
X84038000Y-60600000D03*
X84038000Y-67100000D03*
X87738000Y-60600000D03*
X87738000Y-67100000D03*
D32*
X83194000Y-63850000D03*
X88582000Y-63850000D03*
%TD*%
D21*
%TO.C,D29*%
X142875000Y-32237500D03*
X142875000Y-34437500D03*
%TD*%
%TO.C,D61*%
X276225000Y-32237500D03*
X276225000Y-34437500D03*
%TD*%
%TO.C,D35*%
X176212500Y-70337500D03*
X176212500Y-72537500D03*
%TD*%
D38*
%TO.C,U2*%
X48101250Y-45150000D03*
X49371250Y-45150000D03*
X50641250Y-45150000D03*
X51911250Y-45150000D03*
X51911250Y-50100000D03*
X50641250Y-50100000D03*
X49371250Y-50100000D03*
X48101250Y-50100000D03*
%TD*%
D21*
%TO.C,D10*%
X52387500Y-108437500D03*
X52387500Y-110637500D03*
%TD*%
%TO.C,D34*%
X190500000Y-51287500D03*
X190500000Y-53487500D03*
%TD*%
%TO.C,D33*%
X161925000Y-32237500D03*
X161925000Y-34437500D03*
%TD*%
%TO.C,D55*%
X261937500Y-89387500D03*
X261937500Y-91587500D03*
%TD*%
%TO.C,D8*%
X64293750Y-70337500D03*
X64293750Y-72537500D03*
%TD*%
%TO.C,D62*%
X314325000Y-51287500D03*
X314325000Y-53487500D03*
%TD*%
%TO.C,D43*%
X228600000Y-51287500D03*
X228600000Y-53487500D03*
%TD*%
%TO.C,D66*%
X314300000Y-33700000D03*
X314300000Y-35900000D03*
%TD*%
%TO.C,D32*%
X166687500Y-89387500D03*
X166687500Y-91587500D03*
%TD*%
D25*
%TO.C,C9*%
X348662500Y-43000000D03*
X349337500Y-43000000D03*
%TD*%
D21*
%TO.C,D47*%
X219075000Y-32237500D03*
X219075000Y-34437500D03*
%TD*%
%TO.C,D15*%
X76200000Y-108437500D03*
X76200000Y-110637500D03*
%TD*%
%TO.C,D46*%
X238125000Y-108437500D03*
X238125000Y-110637500D03*
%TD*%
%TO.C,D65*%
X314325000Y-108437500D03*
X314325000Y-110637500D03*
%TD*%
%TO.C,D52*%
X238125000Y-32237500D03*
X238125000Y-34437500D03*
%TD*%
%TO.C,D5*%
X30956250Y-108437500D03*
X30956250Y-110637500D03*
%TD*%
%TO.C,D4*%
X30956250Y-89387500D03*
X30956250Y-91587500D03*
%TD*%
D39*
%TO.C,Y1*%
X42687500Y-63687500D03*
X39787500Y-63687500D03*
X39787500Y-61387500D03*
X42687500Y-61387500D03*
%TD*%
D21*
%TO.C,D14*%
X90487500Y-89387500D03*
X90487500Y-91587500D03*
%TD*%
%TO.C,D16*%
X85725000Y-32237500D03*
X85725000Y-34437500D03*
%TD*%
%TO.C,D45*%
X223837500Y-89387500D03*
X223837500Y-91587500D03*
%TD*%
%TO.C,D17*%
X114300000Y-51287500D03*
X114300000Y-53487500D03*
%TD*%
%TO.C,D25*%
X123825000Y-32237500D03*
X123825000Y-34437500D03*
%TD*%
D40*
%TO.C,C2*%
X45600000Y-61600000D03*
X44925000Y-61600000D03*
%TD*%
D23*
%TO.C,C4*%
X49000000Y-69000000D03*
X49477298Y-69477298D03*
%TD*%
D21*
%TO.C,D11*%
X66675000Y-32237500D03*
X66675000Y-34437500D03*
%TD*%
%TO.C,D7*%
X76200000Y-51287500D03*
X76200000Y-53487500D03*
%TD*%
%TO.C,D2*%
X57150000Y-51287500D03*
X57150000Y-53487500D03*
%TD*%
%TO.C,D50*%
X242887500Y-89387500D03*
X242887500Y-91587500D03*
%TD*%
%TO.C,D6*%
X59531250Y-32237500D03*
X59531250Y-34437500D03*
%TD*%
%TO.C,D26*%
X152400000Y-51287500D03*
X152400000Y-53487500D03*
%TD*%
%TO.C,D36*%
X185737500Y-89387500D03*
X185737500Y-91587500D03*
%TD*%
%TO.C,D41*%
X219075000Y-108437500D03*
X219075000Y-110637500D03*
%TD*%
%TO.C,D59*%
X271462500Y-70337500D03*
X271462500Y-72537500D03*
%TD*%
D24*
%TO.C,R6*%
X341116250Y-35718750D03*
X339921250Y-35718750D03*
%TD*%
D21*
%TO.C,D39*%
X195262500Y-70337500D03*
X195262500Y-72537500D03*
%TD*%
%TO.C,D40*%
X204787500Y-89387500D03*
X204787500Y-91587500D03*
%TD*%
M02*
