M48
; DRILL file {KiCad 9.0.5} date 2026-06-01T02:23:16-0500
; FORMAT={-:-/ absolute / metric / decimal}
; #@! TF.CreationDate,2026-06-01T02:23:16-05:00
; #@! TF.GenerationSoftware,Kicad,Pcbnew,9.0.5
; #@! TF.FileFunction,Plated,1,2,PTH
FMAT,2
METRIC
; #@! TA.AperFunction,Plated,PTH,ViaDrill
T1C0.300
; #@! TA.AperFunction,Plated,PTH,ComponentDrill
T2C0.600
; #@! TA.AperFunction,Plated,PTH,ComponentDrill
T3C1.000
; #@! TA.AperFunction,Plated,PTH,ComponentDrill
T4C1.500
; #@! TA.AperFunction,Plated,PTH,ComponentDrill
T5C2.600
%
G90
G05
T1
X29.0Y-30.5
X29.0Y-31.5
X29.0Y-32.5
X29.0Y-33.5
X29.0Y-34.5
X29.0Y-73.0
X29.0Y-74.0
X29.0Y-75.0
X29.0Y-76.0
X29.0Y-77.0
X29.0Y-115.5
X29.0Y-116.5
X29.0Y-117.5
X29.0Y-118.5
X29.0Y-119.5
X29.5Y-30.0
X29.5Y-31.0
X29.5Y-32.0
X29.5Y-33.0
X29.5Y-34.0
X29.5Y-35.0
X29.5Y-72.5
X29.5Y-73.5
X29.5Y-74.5
X29.5Y-75.5
X29.5Y-76.5
X29.5Y-77.5
X29.5Y-115.0
X29.5Y-116.0
X29.5Y-117.0
X29.5Y-118.0
X29.5Y-119.0
X29.5Y-120.0
X33.0Y-70.5
X43.606Y-66.094
X45.239Y-70.261
X45.3Y-65.2
X45.9Y-67.8
X46.2Y-40.3
X46.5Y-29.0
X46.576Y-68.424
X46.824Y-66.976
X47.0Y-29.5
X47.015Y-74.035
X47.1Y-79.3
X47.285Y-46.706
X47.412Y-61.299
X47.416Y-67.514
X47.5Y-29.0
X48.0Y-29.5
X48.0Y-53.0
X48.5Y-29.0
X48.7Y-68.1
X48.8Y-79.4
X49.0Y-29.5
X49.0Y-43.1
X49.1Y-48.4
X49.5Y-29.0
X49.725Y-54.7
X50.0Y-29.5
X50.4Y-66.3
X50.425Y-54.8
X50.5Y-29.0
X50.5Y-63.3
X51.0Y-29.5
X51.8Y-57.3
X52.5Y-57.0
X53.1Y-62.6
X53.275Y-67.4
X53.325Y-65.589
X53.4Y-59.7
X53.6Y-106.5
X54.125Y-67.4
X54.2Y-46.2
X54.3Y-69.4
X54.528Y-57.328
X54.6Y-60.1
X54.6Y-61.65
X54.7Y-71.4
X55.1Y-60.8
X55.3Y-69.1
X55.5Y-123.5
X56.0Y-50.5
X56.0Y-124.0
X56.5Y-123.5
X56.6Y-61.7
X56.614Y-60.484
X57.0Y-124.0
X57.4Y-62.65
X57.42Y-61.289
X57.5Y-123.5
X57.7Y-55.5
X57.7Y-74.2
X58.0Y-124.0
X58.494Y-61.656
X58.5Y-123.5
X59.0Y-124.0
X59.2Y-71.0
X59.5Y-123.5
X59.718Y-69.782
X60.0Y-95.5
X60.0Y-96.0
X60.0Y-96.5
X60.0Y-124.0
X60.5Y-95.0
X60.5Y-95.5
X60.5Y-97.0
X60.5Y-123.5
X60.724Y-70.787
X60.747Y-47.114
X61.0Y-94.5
X61.0Y-95.5
X61.0Y-97.0
X61.1Y-69.888
X61.113Y-47.71
X61.5Y-96.0
X61.5Y-96.5
X61.6Y-48.213
X61.6Y-71.9
X61.7Y-70.95
X62.5Y-94.5
X62.5Y-97.0
X62.7Y-64.0
X63.0Y-94.5
X63.0Y-96.5
X63.1Y-65.8
X63.4Y-47.4
X63.5Y-94.5
X63.5Y-96.0
X63.7Y-63.5
X63.8Y-67.2
X64.0Y-94.5
X64.0Y-95.5
X64.5Y-95.0
X64.6Y-55.7
X68.3Y-62.2
X68.589Y-66.189
X70.1Y-62.2
X71.4Y-63.1
X72.3Y-60.9
X72.6Y-73.1
X74.0Y-67.765
X74.2Y-62.9
X79.2Y-51.3
X80.1Y-51.3
X81.0Y-51.3
X81.819Y-51.328
X82.6Y-51.5
X84.659Y-45.482
X84.789Y-46.17
X84.848Y-46.868
X85.451Y-47.393
X85.8Y-48.113
X86.1Y-64.6
X88.5Y-29.5
X89.0Y-29.0
X89.5Y-29.5
X89.5Y-67.765
X90.0Y-29.0
X90.5Y-29.5
X91.0Y-29.0
X91.5Y-29.5
X92.0Y-29.0
X92.1Y-60.35
X92.5Y-29.5
X93.0Y-29.0
X98.0Y-123.5
X98.5Y-124.0
X99.0Y-123.5
X99.5Y-124.0
X100.0Y-123.5
X100.5Y-124.0
X101.0Y-123.5
X101.5Y-124.0
X102.0Y-85.5
X102.0Y-86.0
X102.0Y-86.5
X102.0Y-123.5
X102.5Y-85.0
X102.5Y-85.5
X102.5Y-87.0
X102.5Y-124.0
X103.0Y-84.5
X103.0Y-85.5
X103.0Y-87.0
X103.0Y-123.5
X103.5Y-86.0
X103.5Y-86.5
X104.5Y-84.5
X104.5Y-87.0
X105.0Y-84.5
X105.0Y-86.5
X105.5Y-84.5
X105.5Y-86.0
X106.0Y-84.5
X106.0Y-85.5
X106.5Y-85.0
X117.5Y-88.019
X123.0Y-123.5
X123.5Y-124.0
X124.0Y-123.5
X124.5Y-124.0
X125.0Y-123.5
X125.5Y-124.0
X125.7Y-47.511
X126.0Y-123.5
X126.5Y-124.0
X127.0Y-123.5
X127.5Y-124.0
X128.0Y-123.5
X131.0Y-29.5
X131.5Y-29.0
X132.5Y-29.0
X133.5Y-29.0
X134.5Y-29.0
X135.5Y-29.0
X136.0Y-29.5
X144.6Y-47.812
X145.5Y-123.5
X146.0Y-124.0
X146.5Y-123.5
X147.0Y-124.0
X147.5Y-123.5
X148.0Y-124.0
X148.5Y-123.5
X149.0Y-124.0
X149.5Y-123.5
X150.0Y-124.0
X150.5Y-123.5
X163.7Y-48.113
X164.0Y-84.5
X165.0Y-84.5
X165.0Y-85.5
X165.0Y-86.5
X165.0Y-87.5
X166.0Y-84.5
X168.0Y-123.5
X168.5Y-85.5
X168.5Y-124.0
X169.0Y-85.0
X169.0Y-86.0
X169.0Y-87.5
X169.0Y-123.5
X169.5Y-84.5
X169.5Y-86.0
X169.5Y-87.5
X169.5Y-124.0
X170.0Y-84.5
X170.0Y-86.0
X170.0Y-87.0
X170.0Y-123.5
X170.5Y-86.5
X170.5Y-124.0
X171.0Y-123.5
X171.5Y-124.0
X172.0Y-123.5
X172.5Y-124.0
X173.0Y-123.5
X173.5Y-29.5
X174.0Y-29.0
X174.5Y-29.5
X175.0Y-29.0
X175.5Y-29.5
X176.0Y-29.0
X176.5Y-29.5
X177.0Y-29.0
X177.5Y-29.5
X178.0Y-29.0
X178.5Y-29.5
X178.6Y-48.414
X191.5Y-123.5
X192.0Y-124.0
X192.5Y-123.5
X193.0Y-124.0
X193.5Y-123.5
X194.0Y-124.0
X194.5Y-123.5
X195.0Y-124.0
X195.5Y-123.5
X196.0Y-124.0
X196.5Y-123.5
X205.8Y-60.4
X216.0Y-29.5
X216.0Y-123.5
X216.5Y-29.0
X216.5Y-124.0
X217.0Y-29.5
X217.0Y-123.5
X217.5Y-29.0
X217.5Y-124.0
X218.0Y-29.5
X218.0Y-123.5
X218.5Y-29.0
X218.5Y-124.0
X219.0Y-29.5
X219.0Y-123.5
X219.5Y-29.0
X219.5Y-124.0
X220.0Y-29.5
X220.0Y-123.5
X220.3Y-60.5
X220.5Y-29.0
X220.5Y-124.0
X221.0Y-29.5
X221.0Y-123.5
X226.5Y-47.0
X226.5Y-47.5
X226.5Y-48.0
X227.0Y-46.5
X227.0Y-47.0
X227.0Y-48.5
X227.5Y-46.0
X227.5Y-47.0
X227.5Y-48.5
X228.0Y-47.5
X228.0Y-48.0
X229.0Y-46.0
X229.0Y-48.5
X229.5Y-46.0
X229.5Y-48.0
X230.0Y-46.0
X230.0Y-47.5
X230.5Y-46.0
X230.5Y-47.0
X231.0Y-46.5
X239.5Y-48.914
X258.5Y-29.5
X258.5Y-123.5
X258.8Y-49.115
X259.0Y-29.0
X259.0Y-124.0
X259.5Y-29.5
X259.5Y-123.5
X260.0Y-29.0
X260.0Y-124.0
X260.5Y-29.5
X260.5Y-123.5
X261.0Y-29.0
X261.0Y-124.0
X261.5Y-29.5
X261.5Y-123.5
X262.0Y-29.0
X262.0Y-124.0
X262.5Y-29.5
X262.5Y-123.5
X263.0Y-29.0
X263.0Y-124.0
X263.5Y-29.5
X263.5Y-123.5
X274.5Y-77.5
X274.5Y-78.0
X274.5Y-78.5
X275.0Y-77.0
X275.0Y-77.5
X275.0Y-79.0
X275.5Y-76.5
X275.5Y-77.5
X275.5Y-79.0
X276.0Y-78.0
X276.0Y-78.5
X277.0Y-76.5
X277.0Y-79.0
X277.4Y-49.5
X277.5Y-76.5
X277.5Y-78.5
X278.0Y-76.5
X278.0Y-78.0
X278.5Y-76.5
X278.5Y-77.5
X279.0Y-77.0
X301.0Y-29.5
X301.0Y-49.517
X301.0Y-123.5
X301.5Y-29.0
X301.5Y-124.0
X302.0Y-29.5
X302.0Y-123.5
X302.5Y-29.0
X302.5Y-124.0
X303.0Y-29.5
X303.0Y-123.5
X303.5Y-29.0
X303.5Y-124.0
X304.0Y-29.5
X304.0Y-123.5
X304.5Y-29.0
X304.5Y-124.0
X305.0Y-29.5
X305.0Y-123.5
X305.5Y-29.0
X305.5Y-124.0
X306.0Y-123.5
X325.2Y-49.6
X334.6Y-33.3
X335.609Y-33.3
X341.6Y-41.3
X342.4Y-51.0
X343.5Y-123.5
X344.0Y-124.0
X344.5Y-123.5
X345.0Y-29.0
X345.0Y-124.0
X345.5Y-29.5
X345.5Y-123.5
X346.0Y-29.0
X346.0Y-124.0
X346.148Y-62.348
X346.5Y-29.5
X346.5Y-39.6
X346.5Y-45.3
X346.5Y-123.5
X347.0Y-29.0
X347.0Y-124.0
X347.05Y-54.7
X347.5Y-29.5
X347.5Y-123.5
X348.0Y-29.0
X348.0Y-124.0
X348.5Y-29.5
X348.5Y-123.5
X349.5Y-31.8
X350.7Y-31.8
X351.5Y-30.0
X351.5Y-31.0
X351.5Y-32.0
X351.5Y-33.0
X351.5Y-34.0
X351.5Y-35.0
X351.5Y-72.5
X351.5Y-73.5
X351.5Y-74.5
X351.5Y-75.5
X351.5Y-76.5
X351.5Y-77.5
X351.5Y-115.0
X351.5Y-116.0
X351.5Y-117.0
X351.5Y-118.0
X351.5Y-119.0
X351.5Y-120.0
X352.0Y-30.5
X352.0Y-31.5
X352.0Y-32.5
X352.0Y-33.5
X352.0Y-34.5
X352.0Y-73.0
X352.0Y-74.0
X352.0Y-75.0
X352.0Y-76.0
X352.0Y-77.0
X352.0Y-115.5
X352.0Y-116.5
X352.0Y-117.5
X352.0Y-118.5
X352.0Y-119.5
T3
X335.544Y-35.481
X335.544Y-37.981
X335.544Y-40.481
X339.1Y-49.2
X341.64Y-49.2
X344.18Y-49.2
X346.72Y-49.2
X350.044Y-35.481
X350.044Y-40.481
T4
X35.56Y-43.18
X36.671Y-111.76
X39.052Y-54.61
X41.434Y-73.66
X41.91Y-40.64
X43.021Y-109.22
X45.402Y-52.07
X46.196Y-92.71
X47.784Y-71.12
X52.546Y-90.17
X54.61Y-43.18
X60.484Y-111.76
X60.96Y-40.64
X62.865Y-54.61
X66.834Y-109.22
X67.627Y-73.66
X69.215Y-52.07
X72.39Y-35.56
X73.977Y-71.12
X77.153Y-92.71
X78.74Y-33.02
X81.915Y-54.61
X83.502Y-90.17
X84.296Y-111.76
X86.677Y-73.66
X88.265Y-52.07
X90.646Y-109.22
X91.44Y-35.56
X93.027Y-71.12
X96.203Y-92.71
X97.79Y-33.02
X100.965Y-54.61
X102.552Y-90.17
X105.727Y-73.66
X107.315Y-52.07
X110.49Y-35.56
X112.078Y-71.12
X115.252Y-92.71
X116.84Y-33.02
X120.015Y-54.61
X121.602Y-90.17
X124.777Y-73.66
X126.365Y-52.07
X129.54Y-35.56
X131.127Y-71.12
X134.302Y-92.71
X135.89Y-33.02
X139.065Y-54.61
X140.653Y-90.17
X143.827Y-73.66
X145.415Y-52.07
X148.59Y-35.56
X150.177Y-71.12
X153.352Y-92.71
X154.94Y-33.02
X155.734Y-111.76
X158.115Y-54.61
X159.702Y-90.17
X162.084Y-109.22
X162.877Y-73.66
X164.465Y-52.07
X167.64Y-35.56
X169.227Y-71.12
X172.403Y-92.71
X173.99Y-33.02
X177.165Y-54.61
X178.752Y-90.17
X181.927Y-73.66
X183.515Y-52.07
X186.69Y-35.56
X188.278Y-71.12
X191.452Y-92.71
X193.04Y-33.02
X196.215Y-54.61
X197.802Y-90.17
X200.977Y-73.66
X202.565Y-52.07
X205.74Y-35.56
X207.327Y-71.12
X210.502Y-92.71
X212.09Y-33.02
X215.265Y-54.61
X216.852Y-90.17
X220.028Y-73.66
X221.615Y-52.07
X224.79Y-35.56
X224.79Y-111.76
X226.377Y-71.12
X229.552Y-92.71
X231.14Y-33.02
X231.14Y-109.22
X234.315Y-54.61
X235.903Y-90.17
X239.077Y-73.66
X240.665Y-52.07
X243.84Y-35.56
X243.84Y-111.76
X245.427Y-71.12
X248.602Y-92.71
X250.19Y-33.02
X250.19Y-109.22
X253.365Y-54.61
X254.952Y-90.17
X258.127Y-73.66
X259.715Y-52.07
X262.89Y-35.56
X262.89Y-111.76
X264.477Y-71.12
X269.24Y-33.02
X269.24Y-109.22
X272.415Y-54.61
X278.765Y-52.07
X281.94Y-111.76
X284.321Y-92.71
X288.29Y-109.22
X289.084Y-73.66
X290.671Y-90.17
X291.465Y-35.56
X295.434Y-71.12
X296.227Y-54.61
X297.815Y-33.02
X300.99Y-111.76
X302.577Y-52.07
X307.34Y-109.22
X320.04Y-35.56
X320.04Y-54.61
X320.04Y-73.66
X320.04Y-92.71
X320.04Y-111.76
X326.39Y-33.02
X326.39Y-52.07
X326.39Y-71.12
X326.39Y-90.17
X326.39Y-109.22
X339.09Y-92.71
X339.09Y-111.76
X345.44Y-90.17
X345.44Y-109.22
T5
X343.044Y-32.381
X343.044Y-43.581
T2
G00X45.28Y-28.325
M15
G01X45.28Y-29.125
M16
G05
G00X45.28Y-32.375
M15
G01X45.28Y-33.475
M16
G05
G00X53.92Y-28.325
M15
G01X53.92Y-29.125
M16
G05
G00X53.92Y-32.375
M15
G01X53.92Y-33.475
M16
G05
M30
